<svg xmlns="http://www.w3.org/2000/svg" viewBox="0 0 1283 562" width="1283" height="562" font-family="sans-serif" font-size="13"><defs><marker id="arrow" markerWidth="10" markerHeight="10" refX="9" refY="3" orient="auto" markerUnits="strokeWidth"><path d="M0,0 L9,3 L0,6 z" fill="#d4d7dd"/></marker><filter id="cardlift" x="-12%" y="-12%" width="124%" height="140%"><feDropShadow dx="0" dy="2" stdDeviation="3.5" flood-color="#000000" flood-opacity="0.12"/></filter></defs><g font-family="Helvetica, Arial, sans-serif"><rect x="24" y="24" width="1235" height="380" rx="12" fill="#26282d" stroke="#44474e" stroke-dasharray="6 5"/><text x="36" y="43" font-size="13" font-weight="700" fill="#d4d7dd">PseudoScriptPlugin</text><rect x="380" y="68" width="863" height="320" rx="12" fill="#26282d" stroke="#44474e" stroke-dasharray="6 5"/><text x="392" y="87" font-size="13" font-weight="700" fill="#d4d7dd">Configuration</text><rect x="587" y="278" width="300" height="94" rx="8" fill="#c77f10" filter="url(#cardlift)"/><path d="M592,278 H879 A8,8 0 0 1 887,286 V364 A8,8 0 0 1 879,372 H592 Z" fill="#2b2d31"/><rect x="587" y="278" width="300" height="94" rx="8" fill="none" stroke="#44474e"/><text x="606" y="298" font-size="10" letter-spacing="1.5" font-weight="600" fill="#c77f10">COMPONENT</text><text x="606" y="318" font-size="15" font-weight="700" fill="#d4d7dd">Settings</text><text x="606" y="336" font-size="11.5" fill="#9a9ea8">Application-wide persistent store of the</text><text x="606" y="351" font-size="11.5" fill="#9a9ea8">`pds` binary path. A blank value falls back…</text><rect x="927" y="278" width="300" height="94" rx="8" fill="#c77f10" filter="url(#cardlift)"/><path d="M932,278 H1219 A8,8 0 0 1 1227,286 V364 A8,8 0 0 1 1219,372 H932 Z" fill="#2b2d31"/><rect x="927" y="278" width="300" height="94" rx="8" fill="none" stroke="#44474e"/><text x="946" y="298" font-size="10" letter-spacing="1.5" font-weight="600" fill="#c77f10">COMPONENT</text><text x="946" y="318" font-size="15" font-weight="700" fill="#d4d7dd">BinaryCheck</text><text x="946" y="336" font-size="11.5" fill="#9a9ea8">&quot;Can we reach `pds`?&quot; — the single check</text><text x="946" y="351" font-size="11.5" fill="#9a9ea8">behind the container&apos;s published face, so…</text><rect x="396" y="112" width="300" height="94" rx="8" fill="#c77f10" filter="url(#cardlift)"/><path d="M401,112 H688 A8,8 0 0 1 696,120 V198 A8,8 0 0 1 688,206 H401 Z" fill="#2b2d31"/><rect x="396" y="112" width="300" height="94" rx="8" fill="none" stroke="#44474e"/><text x="415" y="132" font-size="10" letter-spacing="1.5" font-weight="600" fill="#c77f10">COMPONENT</text><text x="415" y="152" font-size="15" font-weight="700" fill="#d4d7dd">SettingsForm</text><text x="415" y="170" font-size="11.5" fill="#9a9ea8">The settings page (Settings &gt; Languages &amp;</text><text x="415" y="185" font-size="11.5" fill="#9a9ea8">Frameworks &gt; PseudoScript).</text><rect x="927" y="112" width="300" height="94" rx="8" fill="#c77f10" filter="url(#cardlift)"/><path d="M932,112 H1219 A8,8 0 0 1 1227,120 V198 A8,8 0 0 1 1219,206 H932 Z" fill="#2b2d31"/><rect x="927" y="112" width="300" height="94" rx="8" fill="none" stroke="#44474e"/><text x="946" y="132" font-size="10" letter-spacing="1.5" font-weight="600" fill="#c77f10">COMPONENT</text><text x="946" y="152" font-size="15" font-weight="700" fill="#d4d7dd">MissingBinaryBanner</text><text x="946" y="170" font-size="11.5" fill="#9a9ea8">Warns atop `.pds` / `pds.toml` files when</text><text x="946" y="185" font-size="11.5" fill="#9a9ea8">the binary is missing — highlighting still…</text><rect x="40" y="112" width="300" height="94" rx="8" fill="#0f9d8a" filter="url(#cardlift)"/><path d="M45,112 H332 A8,8 0 0 1 340,120 V198 A8,8 0 0 1 332,206 H45 Z" fill="#2b2d31"/><rect x="40" y="112" width="300" height="94" rx="8" fill="none" stroke="#44474e"/><text x="59" y="132" font-size="10" letter-spacing="1.5" font-weight="600" fill="#0f9d8a">CONTAINER</text><text x="59" y="152" font-size="15" font-weight="700" fill="#d4d7dd">LspBridge</text><text x="59" y="170" font-size="11.5" fill="#9a9ea8">Wires the `pds lsp` language server into the</text><text x="59" y="185" font-size="11.5" fill="#9a9ea8">IDE via LSP4IJ.</text><rect x="396" y="444" width="300" height="94" rx="8" fill="#e23b2e" filter="url(#cardlift)"/><path d="M401,444 H688 A8,8 0 0 1 696,452 V530 A8,8 0 0 1 688,538 H401 Z" fill="#2b2d31"/><rect x="396" y="444" width="300" height="94" rx="8" fill="none" stroke="#44474e"/><text x="415" y="464" font-size="10" letter-spacing="1.5" font-weight="600" fill="#e23b2e">SYSTEM</text><text x="415" y="484" font-size="15" font-weight="700" fill="#d4d7dd">Intellij</text><text x="415" y="502" font-size="11.5" fill="#9a9ea8">The host IDE platform (IntelliJ). Provides</text><text x="415" y="517" font-size="11.5" fill="#9a9ea8">the editor, tool windows, file types, and…</text><path d="M1077,206 L1077,212 L1077,218 L1077,224 L1077,230 L1077,236 L1077,242 L1077,248 L1077,254 L1077,260 L1077,266 L1077,272 L1077,278 " fill="none" stroke="#d4d7dd" marker-end="url(#arrow)"/><rect x="1021" y="227" width="113" height="30" rx="4" fill="#2b2d31e6"/><text x="1077" y="239" text-anchor="middle" font-size="11.5" fill="#9a9ea8"><tspan x="1077" dy="0">isAvailable</tspan><tspan x="1077" dy="14">notFoundMessage</tspan></text><path d="M600,206 L607,212 L614,218 L621,224 L628,230 L635,236 L642,242 L648,248 L655,254 L662,260 L669,266 L676,272 L683,278 " fill="none" stroke="#d4d7dd" marker-end="url(#arrow)"/><rect x="603" y="234" width="78" height="16" rx="4" fill="#2b2d31e6"/><text x="642" y="246" text-anchor="middle" font-size="11.5" fill="#9a9ea8"><tspan x="642" dy="0">setPdsPath</tspan></text><path d="M546,206 L546,212 L546,219 L546,227 L546,237 L546,247 L546,258 L546,269 L546,281 L546,292 L546,304 L546,315 L546,325 L546,335 L546,346 L546,358 L546,369 L546,381 L546,392 L546,403 L546,413 L546,423 L546,431 L546,438 L546,444 " fill="none" stroke="#d4d7dd" marker-end="url(#arrow)"/><rect x="472" y="317" width="148" height="16" rx="4" fill="#2b2d31e6"/><text x="546" y="329" text-anchor="middle" font-size="11.5" fill="#9a9ea8"><tspan x="546" dy="0">refreshNotifications</tspan></text></g></svg>