<svg xmlns="http://www.w3.org/2000/svg" viewBox="0 0 448 475" width="448" height="475" font-family="sans-serif" font-size="13"><defs><marker id="arrow" markerWidth="10" markerHeight="10" refX="9" refY="3" orient="auto" markerUnits="strokeWidth"><path d="M0,0 L9,3 L0,6 z" fill="#b7bbc3"/></marker></defs><g font-family="Helvetica, Arial, sans-serif"><defs><marker id="seqcall" markerWidth="11" markerHeight="11" refX="9" refY="3.5" orient="auto" markerUnits="userSpaceOnUse"><path d="M0,0 L10,3.5 L0,7 z" fill="#d4d7dd"/></marker><marker id="seqret" markerWidth="12" markerHeight="12" refX="9" refY="4" orient="auto" markerUnits="userSpaceOnUse"><path d="M0,0 L10,4 M0,8 L10,4" fill="none" stroke="#9a9ea8" stroke-width="1.3"/></marker></defs><text x="20" y="22" font-size="10" letter-spacing="2" fill="#9a9ea8">SEQUENCE</text><text x="20" y="44" font-size="17" font-weight="700" fill="#d4d7dd">Render</text><rect x="92" y="299" width="264" height="140" rx="4" fill="#d4d7dd" fill-opacity="0.015" stroke="#565a62"/><path d="M92,299 h42 l-8,16 h-34 z" fill="#565a62" fill-opacity="0.5" stroke="#565a62"/><text x="100" y="314" font-size="11" font-weight="700" fill="#d4d7dd">alt</text><text x="142" y="314" font-size="11" fill="#9a9ea8">[else ok]</text><rect x="105" y="205" width="10" height="182" rx="2" fill="#ff5c38" fill-opacity="0.10" stroke="#ff5c38" stroke-opacity="0.5"/><rect x="333" y="205" width="10" height="182" rx="2" fill="#3b3e45" fill-opacity="1" stroke="#44474e" stroke-opacity="1"/><rect x="20" y="64" width="180" height="103" rx="8" fill="#c77f10" filter="url(#cardlift)"/><path d="M25,64 H192 A8,8 0 0 1 200,72 V159 A8,8 0 0 1 192,167 H25 Z" fill="#2b2d31"/><rect x="20" y="64" width="180" height="103" rx="8" fill="none" stroke="#44474e"/><text x="39" y="84" font-size="10" letter-spacing="1.5" font-weight="600" fill="#c77f10">COMPONENT</text><text x="39" y="104" font-size="15" font-weight="700" fill="#d4d7dd">MissingBinaryBanner</text><text x="39" y="120" font-size="11" fill="#9a9ea8">PseudoScriptPlugin::Configuration</text><text x="39" y="138" font-size="11.5" fill="#9a9ea8">Warns atop `.pds` /</text><text x="39" y="153" font-size="11.5" fill="#9a9ea8">`pds.toml` files when</text><line x1="110" y1="167" x2="110" y2="455" stroke="#44474e" stroke-dasharray="2 4"/><rect x="248" y="64" width="180" height="103" rx="8" fill="#c77f10" filter="url(#cardlift)"/><path d="M253,64 H420 A8,8 0 0 1 428,72 V159 A8,8 0 0 1 420,167 H253 Z" fill="#2b2d31"/><rect x="248" y="64" width="180" height="103" rx="8" fill="none" stroke="#44474e"/><text x="267" y="84" font-size="10" letter-spacing="1.5" font-weight="600" fill="#c77f10">COMPONENT</text><text x="267" y="104" font-size="15" font-weight="700" fill="#d4d7dd">BinaryCheck</text><text x="267" y="120" font-size="11" fill="#9a9ea8">PseudoScriptPlugin::Configuration</text><text x="267" y="138" font-size="11.5" fill="#9a9ea8">&quot;Can we reach `pds`?&quot; —</text><text x="267" y="153" font-size="11.5" fill="#9a9ea8">the single check behind</text><line x1="338" y1="167" x2="338" y2="455" stroke="#44474e" stroke-dasharray="2 4"/><line x1="115" y1="211" x2="333" y2="211" stroke="#d4d7dd" stroke-width="1.4" marker-end="url(#seqcall)"/><circle cx="93" cy="211" r="8" fill="#ff5c38"/><text x="93" y="214" text-anchor="middle" font-size="10" font-weight="700" fill="#fff">1</text><rect x="175" y="191" width="99" height="14" rx="4" fill="#2b2d31" fill-opacity="0.92"/><text x="224" y="202" text-anchor="middle" font-size="12.5" fill="#d4d7dd">isAvailable<tspan fill="#9a9ea8">()</tspan></text><line x1="333" y1="255" x2="115" y2="255" stroke="#9a9ea8" stroke-width="1.3" stroke-dasharray="5 3" marker-end="url(#seqret)"/><rect x="175" y="235" width="99" height="14" rx="4" fill="#2b2d31" fill-opacity="0.92"/><text x="224" y="246" text-anchor="middle" font-size="12.5" fill="#9a9ea8">↩ return<tspan fill="#9a9ea8"> bool</tspan></text><line x1="115" y1="337" x2="333" y2="337" stroke="#d4d7dd" stroke-width="1.4" marker-end="url(#seqcall)"/><circle cx="93" cy="337" r="8" fill="#ff5c38"/><text x="93" y="340" text-anchor="middle" font-size="10" font-weight="700" fill="#fff">2</text><rect x="161" y="317" width="127" height="14" rx="4" fill="#2b2d31" fill-opacity="0.92"/><text x="224" y="328" text-anchor="middle" font-size="12.5" fill="#d4d7dd">notFoundMessage<tspan fill="#9a9ea8">()</tspan></text><line x1="333" y1="381" x2="115" y2="381" stroke="#9a9ea8" stroke-width="1.3" stroke-dasharray="5 3" marker-end="url(#seqret)"/><rect x="168" y="361" width="113" height="14" rx="4" fill="#2b2d31" fill-opacity="0.92"/><text x="224" y="372" text-anchor="middle" font-size="12.5" fill="#9a9ea8">↩ return<tspan fill="#9a9ea8"> string</tspan></text></g></svg>