<svg xmlns="http://www.w3.org/2000/svg" viewBox="0 0 448 494" width="448" height="494" font-family="sans-serif" font-size="13"><defs><marker id="arrow" markerWidth="10" markerHeight="10" refX="9" refY="3" orient="auto" markerUnits="strokeWidth"><path d="M0,0 L9,3 L0,6 z" fill="#b7bbc3"/></marker></defs><g font-family="Helvetica, Arial, sans-serif"><defs><marker id="seqcall" markerWidth="11" markerHeight="11" refX="9" refY="3.5" orient="auto" markerUnits="userSpaceOnUse"><path d="M0,0 L10,3.5 L0,7 z" fill="#d4d7dd"/></marker><marker id="seqret" markerWidth="12" markerHeight="12" refX="9" refY="4" orient="auto" markerUnits="userSpaceOnUse"><path d="M0,0 L10,4 M0,8 L10,4" fill="none" stroke="#9a9ea8" stroke-width="1.3"/></marker></defs><text x="20" y="22" font-size="10" letter-spacing="2" fill="#9a9ea8">SEQUENCE</text><text x="20" y="44" font-size="17" font-weight="700" fill="#d4d7dd">Render</text><rect x="92" y="286" width="264" height="168" rx="4" fill="#d4d7dd" fill-opacity="0.015" stroke="#565a62"/><path d="M92,286 h42 l-8,16 h-34 z" fill="#565a62" fill-opacity="0.5" stroke="#565a62"/><text x="100" y="301" font-size="11" font-weight="700" fill="#d4d7dd">alt</text><text x="142" y="301" font-size="11" fill="#9a9ea8">[else ok]</text><rect x="105" y="172" width="10" height="220" rx="2" fill="#ff5c38" fill-opacity="0.10" stroke="#ff5c38" stroke-opacity="0.5"/><rect x="333" y="172" width="10" height="220" rx="2" fill="#3b3e45" fill-opacity="1" stroke="#44474e" stroke-opacity="1"/><rect x="20" y="64" width="180" height="60" rx="8" fill="#c77f10" filter="url(#cardlift)"/><path d="M25,64 H192 A8,8 0 0 1 200,72 V116 A8,8 0 0 1 192,124 H25 Z" fill="#2b2d31"/><rect x="20" y="64" width="180" height="60" rx="8" fill="none" stroke="#44474e"/><text x="39" y="84" font-size="10" letter-spacing="1.5" font-weight="600" fill="#c77f10">COMPONENT</text><text x="39" y="104" font-size="15" font-weight="700" fill="#d4d7dd">MissingBinaryBanner</text><line x1="110" y1="124" x2="110" y2="474" stroke="#44474e" stroke-dasharray="2 4"/><rect x="248" y="64" width="180" height="60" rx="8" fill="#c77f10" filter="url(#cardlift)"/><path d="M253,64 H420 A8,8 0 0 1 428,72 V116 A8,8 0 0 1 420,124 H253 Z" fill="#2b2d31"/><rect x="248" y="64" width="180" height="60" rx="8" fill="none" stroke="#44474e"/><text x="267" y="84" font-size="10" letter-spacing="1.5" font-weight="600" fill="#c77f10">COMPONENT</text><text x="267" y="104" font-size="15" font-weight="700" fill="#d4d7dd">BinaryCheck</text><line x1="338" y1="124" x2="338" y2="474" stroke="#44474e" stroke-dasharray="2 4"/><line x1="115" y1="178" x2="333" y2="178" stroke="#d4d7dd" stroke-width="1.4" marker-end="url(#seqcall)"/><circle cx="93" cy="178" r="8" fill="#ff5c38"/><text x="93" y="181" text-anchor="middle" font-size="10" font-weight="700" fill="#fff">1</text><rect x="152" y="157" width="145" height="17" rx="4" fill="#2b2d31" fill-opacity="0.92"/><text x="224" y="169" text-anchor="middle" font-size="12.5" fill="#d4d7dd">isAvailable<tspan fill="#9a9ea8">(): bool</tspan></text><line x1="333" y1="232" x2="115" y2="232" stroke="#9a9ea8" stroke-width="1.3" stroke-dasharray="5 3" marker-end="url(#seqret)"/><rect x="173" y="211" width="103" height="17" rx="4" fill="#2b2d31" fill-opacity="0.92"/><text x="224" y="223" text-anchor="middle" font-size="12.5" fill="#9a9ea8">↩ return<tspan fill="#9a9ea8"> bool</tspan></text><line x1="115" y1="332" x2="333" y2="332" stroke="#d4d7dd" stroke-width="1.4" marker-end="url(#seqcall)"/><circle cx="93" cy="332" r="8" fill="#ff5c38"/><text x="93" y="335" text-anchor="middle" font-size="10" font-weight="700" fill="#fff">2</text><rect x="131" y="311" width="187" height="17" rx="4" fill="#2b2d31" fill-opacity="0.92"/><text x="224" y="323" text-anchor="middle" font-size="12.5" fill="#d4d7dd">notFoundMessage<tspan fill="#9a9ea8">(): string</tspan></text><line x1="333" y1="386" x2="115" y2="386" stroke="#9a9ea8" stroke-width="1.3" stroke-dasharray="5 3" marker-end="url(#seqret)"/><rect x="166" y="365" width="117" height="17" rx="4" fill="#2b2d31" fill-opacity="0.92"/><text x="224" y="377" text-anchor="middle" font-size="12.5" fill="#9a9ea8">↩ return<tspan fill="#9a9ea8"> string</tspan></text></g></svg>