<svg xmlns="http://www.w3.org/2000/svg" viewBox="0 0 652 407" width="652" height="407" font-family="sans-serif" font-size="13"><defs><marker id="arrow" markerWidth="10" markerHeight="10" refX="9" refY="3" orient="auto" markerUnits="strokeWidth"><path d="M0,0 L9,3 L0,6 z" fill="#b7bbc3"/></marker></defs><g font-family="Helvetica, Arial, sans-serif"><defs><marker id="seqcall" markerWidth="11" markerHeight="11" refX="9" refY="3.5" orient="auto" markerUnits="userSpaceOnUse"><path d="M0,0 L10,3.5 L0,7 z" fill="#d4d7dd"/></marker><marker id="seqret" markerWidth="12" markerHeight="12" refX="9" refY="4" orient="auto" markerUnits="userSpaceOnUse"><path d="M0,0 L10,4 M0,8 L10,4" fill="none" stroke="#9a9ea8" stroke-width="1.3"/></marker></defs><text x="20" y="22" font-size="10" letter-spacing="2" fill="#9a9ea8">SEQUENCE</text><text x="20" y="44" font-size="17" font-weight="700" fill="#d4d7dd">ApplySettings</text><rect x="99" y="205" width="10" height="144" rx="2" fill="#ff5c38" fill-opacity="0.10" stroke="#ff5c38" stroke-opacity="0.5"/><rect x="327" y="205" width="10" height="56" rx="2" fill="#3b3e45" fill-opacity="1" stroke="#44474e" stroke-opacity="1"/><rect x="543" y="293" width="10" height="56" rx="2" fill="#3b3e45" fill-opacity="1" stroke="#44474e" stroke-opacity="1"/><rect x="20" y="64" width="168" height="103" rx="8" fill="#c77f10" filter="url(#cardlift)"/><path d="M25,64 H180 A8,8 0 0 1 188,72 V159 A8,8 0 0 1 180,167 H25 Z" fill="#2b2d31"/><rect x="20" y="64" width="168" height="103" rx="8" fill="none" stroke="#44474e"/><text x="39" y="84" font-size="10" letter-spacing="1.5" font-weight="600" fill="#c77f10">COMPONENT</text><text x="39" y="104" font-size="15" font-weight="700" fill="#d4d7dd">SettingsForm</text><text x="39" y="120" font-size="11" fill="#9a9ea8">PseudoScriptPlugin::Configuration</text><text x="39" y="138" font-size="11.5" fill="#9a9ea8">The settings page</text><text x="39" y="153" font-size="11.5" fill="#9a9ea8">(Settings &gt; Languages</text><line x1="104" y1="167" x2="104" y2="387" stroke="#44474e" stroke-dasharray="2 4"/><rect x="248" y="64" width="168" height="103" rx="8" fill="#c77f10" filter="url(#cardlift)"/><path d="M253,64 H408 A8,8 0 0 1 416,72 V159 A8,8 0 0 1 408,167 H253 Z" fill="#2b2d31"/><rect x="248" y="64" width="168" height="103" rx="8" fill="none" stroke="#44474e"/><text x="267" y="84" font-size="10" letter-spacing="1.5" font-weight="600" fill="#c77f10">COMPONENT</text><text x="267" y="104" font-size="15" font-weight="700" fill="#d4d7dd">Settings</text><text x="267" y="120" font-size="11" fill="#9a9ea8">PseudoScriptPlugin::Configuration</text><text x="267" y="138" font-size="11.5" fill="#9a9ea8">Application-wide</text><text x="267" y="153" font-size="11.5" fill="#9a9ea8">persistent store of</text><line x1="332" y1="167" x2="332" y2="387" stroke="#44474e" stroke-dasharray="2 4"/><rect x="464" y="64" width="168" height="103" rx="8" fill="#e23b2e" filter="url(#cardlift)"/><path d="M469,64 H624 A8,8 0 0 1 632,72 V159 A8,8 0 0 1 624,167 H469 Z" fill="#2b2d31"/><rect x="464" y="64" width="168" height="103" rx="8" fill="none" stroke="#44474e"/><text x="483" y="84" font-size="10" letter-spacing="1.5" font-weight="600" fill="#e23b2e">SYSTEM</text><text x="483" y="104" font-size="15" font-weight="700" fill="#d4d7dd">Intellij</text><text x="483" y="122" font-size="11.5" fill="#9a9ea8">The host IDE platform</text><text x="483" y="137" font-size="11.5" fill="#9a9ea8">(IntelliJ). Provides</text><line x1="548" y1="167" x2="548" y2="387" stroke="#44474e" stroke-dasharray="2 4"/><line x1="109" y1="211" x2="327" y2="211" stroke="#d4d7dd" stroke-width="1.4" marker-end="url(#seqcall)"/><circle cx="87" cy="211" r="8" fill="#ff5c38"/><text x="87" y="214" text-anchor="middle" font-size="10" font-weight="700" fill="#fff">1</text><rect x="130" y="191" width="176" height="14" rx="4" fill="#2b2d31" fill-opacity="0.92"/><text x="218" y="202" text-anchor="middle" font-size="12.5" fill="#d4d7dd">setPdsPath<tspan fill="#9a9ea8">(path: string)</tspan></text><line x1="327" y1="255" x2="109" y2="255" stroke="#9a9ea8" stroke-width="1.3" stroke-dasharray="5 3" marker-end="url(#seqret)"/><rect x="186" y="235" width="64" height="14" rx="4" fill="#2b2d31" fill-opacity="0.92"/><text x="218" y="246" text-anchor="middle" font-size="12.5" fill="#9a9ea8">↩ return</text><line x1="109" y1="299" x2="543" y2="299" stroke="#d4d7dd" stroke-width="1.4" marker-end="url(#seqcall)"/><circle cx="87" cy="299" r="8" fill="#ff5c38"/><text x="87" y="302" text-anchor="middle" font-size="10" font-weight="700" fill="#fff">2</text><rect x="245" y="279" width="162" height="14" rx="4" fill="#2b2d31" fill-opacity="0.92"/><text x="326" y="290" text-anchor="middle" font-size="12.5" fill="#d4d7dd">refreshNotifications<tspan fill="#9a9ea8">()</tspan></text><line x1="543" y1="343" x2="109" y2="343" stroke="#9a9ea8" stroke-width="1.3" stroke-dasharray="5 3" marker-end="url(#seqret)"/><rect x="294" y="323" width="64" height="14" rx="4" fill="#2b2d31" fill-opacity="0.92"/><text x="326" y="334" text-anchor="middle" font-size="12.5" fill="#9a9ea8">↩ return</text></g></svg>