<svg xmlns="http://www.w3.org/2000/svg" viewBox="0 0 994 456" width="994" height="456" font-family="sans-serif" font-size="13"><defs><marker id="arrow" markerWidth="10" markerHeight="10" refX="9" refY="3" orient="auto" markerUnits="strokeWidth"><path d="M0,0 L9,3 L0,6 z" fill="#d4d7dd"/></marker><filter id="cardlift" x="-12%" y="-12%" width="124%" height="140%"><feDropShadow dx="0" dy="2" stdDeviation="3.5" flood-color="#000000" flood-opacity="0.12"/></filter></defs><g font-family="Helvetica, Arial, sans-serif"><rect x="30" y="46" width="300" height="94" rx="8" fill="#4f72f0" filter="url(#cardlift)"/><path d="M35,46 H322 A8,8 0 0 1 330,54 V132 A8,8 0 0 1 322,140 H35 Z" fill="#2b2d31"/><rect x="30" y="46" width="300" height="94" rx="8" fill="none" stroke="#44474e"/><text x="49" y="66" font-size="10" letter-spacing="1.5" font-weight="600" fill="#4f72f0">PERSON</text><text x="49" y="86" font-size="15" font-weight="700" fill="#d4d7dd">Developer</text><text x="49" y="104" font-size="11.5" fill="#9a9ea8">A developer authoring `.pds` models in a</text><text x="49" y="119" font-size="11.5" fill="#9a9ea8">JetBrains IDE.</text><rect x="30" y="201" width="300" height="94" rx="8" fill="#e23b2e" filter="url(#cardlift)"/><path d="M35,201 H322 A8,8 0 0 1 330,209 V287 A8,8 0 0 1 322,295 H35 Z" fill="#2b2d31"/><rect x="30" y="201" width="300" height="94" rx="8" fill="none" stroke="#44474e"/><text x="49" y="221" font-size="10" letter-spacing="1.5" font-weight="600" fill="#e23b2e">SYSTEM</text><text x="49" y="241" font-size="15" font-weight="700" fill="#d4d7dd">PseudoScriptPlugin</text><text x="49" y="259" font-size="11.5" fill="#9a9ea8">The PseudoScript IDE plugin — the system</text><text x="49" y="274" font-size="11.5" fill="#9a9ea8">this workspace models. Its subsystems are…</text><rect x="670" y="184" width="300" height="94" rx="8" fill="#e23b2e" filter="url(#cardlift)"/><path d="M675,184 H962 A8,8 0 0 1 970,192 V270 A8,8 0 0 1 962,278 H675 Z" fill="#2b2d31"/><rect x="670" y="184" width="300" height="94" rx="8" fill="none" stroke="#44474e"/><text x="689" y="204" font-size="10" letter-spacing="1.5" font-weight="600" fill="#e23b2e">SYSTEM</text><text x="689" y="224" font-size="15" font-weight="700" fill="#d4d7dd">Pds</text><text x="689" y="242" font-size="11.5" fill="#9a9ea8">The `pds` toolchain the plugin shells out to</text><text x="689" y="257" font-size="11.5" fill="#9a9ea8">— modelled in full by the `pseudoscript`…</text><rect x="670" y="30" width="300" height="94" rx="8" fill="#e23b2e" filter="url(#cardlift)"/><path d="M675,30 H962 A8,8 0 0 1 970,38 V116 A8,8 0 0 1 962,124 H675 Z" fill="#2b2d31"/><rect x="670" y="30" width="300" height="94" rx="8" fill="none" stroke="#44474e"/><text x="689" y="50" font-size="10" letter-spacing="1.5" font-weight="600" fill="#e23b2e">SYSTEM</text><text x="689" y="70" font-size="15" font-weight="700" fill="#d4d7dd">Lsp4ij</text><text x="689" y="88" font-size="11.5" fill="#9a9ea8">The LSP4IJ client runtime — a required</text><text x="689" y="103" font-size="11.5" fill="#9a9ea8">companion IDE plugin. Owns the LSP lifecycl…</text><rect x="670" y="338" width="300" height="94" rx="8" fill="#e23b2e" filter="url(#cardlift)"/><path d="M675,338 H962 A8,8 0 0 1 970,346 V424 A8,8 0 0 1 962,432 H675 Z" fill="#2b2d31"/><rect x="670" y="338" width="300" height="94" rx="8" fill="none" stroke="#44474e"/><text x="689" y="358" font-size="10" letter-spacing="1.5" font-weight="600" fill="#e23b2e">SYSTEM</text><text x="689" y="378" font-size="15" font-weight="700" fill="#d4d7dd">Intellij</text><text x="689" y="396" font-size="11.5" fill="#9a9ea8">The host IDE platform (IntelliJ). Provides</text><text x="689" y="411" font-size="11.5" fill="#9a9ea8">the editor, tool windows, file types, and…</text><path d="M330,280 L540,385 L640,385 " fill="none" stroke="#d4d7dd" marker-end="url(#arrow)"/><path d="M330,281 L606,417 L641,416 " fill="none" stroke="#d4d7dd" marker-end="url(#arrow)"/><path d="M330,209 L556,77 L640,77 " fill="none" stroke="#d4d7dd" marker-end="url(#arrow)"/><path d="M330,217 L496,141 L642,187 " fill="none" stroke="#d4d7dd" marker-end="url(#arrow)"/><path d="M330,227 L502,173 L641,202 " fill="none" stroke="#d4d7dd" marker-end="url(#arrow)"/><path d="M330,243 L495,231 L640,231 " fill="none" stroke="#d4d7dd" marker-end="url(#arrow)"/><path d="M330,259 L521,292 L641,263 " fill="none" stroke="#d4d7dd" marker-end="url(#arrow)"/><path d="M330,269 L496,323 L642,275 " fill="none" stroke="#d4d7dd" marker-end="url(#arrow)"/><rect x="461" y="377" width="78" height="16" rx="4" fill="#2b2d31e6"/><text x="500" y="389" text-anchor="middle" font-size="11.5" fill="#9a9ea8">openEditor</text><rect x="426" y="410" width="148" height="16" rx="4" fill="#2b2d31e6"/><text x="500" y="422" text-anchor="middle" font-size="11.5" fill="#9a9ea8">refreshNotifications</text><rect x="437" y="69" width="106" height="16" rx="4" fill="#2b2d31e6"/><text x="490" y="81" text-anchor="middle" font-size="11.5" fill="#9a9ea8">registerServer</text><rect x="486" y="130" width="29" height="16" rx="4" fill="#2b2d31e6"/><text x="500" y="142" text-anchor="middle" font-size="11.5" fill="#9a9ea8">doc</text><rect x="482" y="163" width="36" height="16" rx="4" fill="#2b2d31e6"/><text x="500" y="175" text-anchor="middle" font-size="11.5" fill="#9a9ea8">list</text><rect x="486" y="223" width="29" height="16" rx="4" fill="#2b2d31e6"/><text x="500" y="235" text-anchor="middle" font-size="11.5" fill="#9a9ea8">lsp</text><rect x="472" y="284" width="57" height="16" rx="4" fill="#2b2d31e6"/><text x="500" y="296" text-anchor="middle" font-size="11.5" fill="#9a9ea8">outline</text><rect x="486" y="317" width="29" height="16" rx="4" fill="#2b2d31e6"/><text x="500" y="329" text-anchor="middle" font-size="11.5" fill="#9a9ea8">svg</text></g></svg>