<svg xmlns="http://www.w3.org/2000/svg" viewBox="0 0 1028 366" width="1028" height="366" font-family="sans-serif" font-size="13"><defs><marker id="arrow" markerWidth="10" markerHeight="10" refX="9" refY="3" orient="auto" markerUnits="strokeWidth"><path d="M0,0 L9,3 L0,6 z" fill="#d4d7dd"/></marker><filter id="cardlift" x="-12%" y="-12%" width="124%" height="140%"><feDropShadow dx="0" dy="2" stdDeviation="3.5" flood-color="#000000" flood-opacity="0.12"/></filter></defs><g font-family="Helvetica, Arial, sans-serif"><rect x="24" y="24" width="300" height="94" rx="8" fill="#4f72f0" filter="url(#cardlift)"/><path d="M29,24 H316 A8,8 0 0 1 324,32 V110 A8,8 0 0 1 316,118 H29 Z" fill="#2b2d31"/><rect x="24" y="24" width="300" height="94" rx="8" fill="none" stroke="#44474e"/><text x="43" y="44" font-size="10" letter-spacing="1.5" font-weight="600" fill="#4f72f0">PERSON</text><text x="43" y="64" font-size="15" font-weight="700" fill="#d4d7dd">Developer</text><text x="43" y="82" font-size="11.5" fill="#9a9ea8">A developer authoring `.pds` models in a</text><text x="43" y="97" font-size="11.5" fill="#9a9ea8">JetBrains IDE.</text><rect x="364" y="24" width="300" height="94" rx="8" fill="#e23b2e" filter="url(#cardlift)"/><path d="M369,24 H656 A8,8 0 0 1 664,32 V110 A8,8 0 0 1 656,118 H369 Z" fill="#2b2d31"/><rect x="364" y="24" width="300" height="94" rx="8" fill="none" stroke="#44474e"/><text x="383" y="44" font-size="10" letter-spacing="1.5" font-weight="600" fill="#e23b2e">SYSTEM</text><text x="383" y="64" font-size="15" font-weight="700" fill="#d4d7dd">PseudoScriptPlugin</text><text x="383" y="82" font-size="11.5" fill="#9a9ea8">The PseudoScript IDE plugin — the system</text><text x="383" y="97" font-size="11.5" fill="#9a9ea8">this workspace models. Its subsystems are…</text><rect x="24" y="248" width="300" height="94" rx="8" fill="#e23b2e" filter="url(#cardlift)"/><path d="M29,248 H316 A8,8 0 0 1 324,256 V334 A8,8 0 0 1 316,342 H29 Z" fill="#2b2d31"/><rect x="24" y="248" width="300" height="94" rx="8" fill="none" stroke="#44474e"/><text x="43" y="268" font-size="10" letter-spacing="1.5" font-weight="600" fill="#e23b2e">SYSTEM</text><text x="43" y="288" font-size="15" font-weight="700" fill="#d4d7dd">Pds</text><text x="43" y="306" font-size="11.5" fill="#9a9ea8">The `pds` toolchain the plugin shells out to</text><text x="43" y="321" font-size="11.5" fill="#9a9ea8">— modelled in full by the `pseudoscript`…</text><rect x="364" y="248" width="300" height="94" rx="8" fill="#e23b2e" filter="url(#cardlift)"/><path d="M369,248 H656 A8,8 0 0 1 664,256 V334 A8,8 0 0 1 656,342 H369 Z" fill="#2b2d31"/><rect x="364" y="248" width="300" height="94" rx="8" fill="none" stroke="#44474e"/><text x="383" y="268" font-size="10" letter-spacing="1.5" font-weight="600" fill="#e23b2e">SYSTEM</text><text x="383" y="288" font-size="15" font-weight="700" fill="#d4d7dd">Lsp4ij</text><text x="383" y="306" font-size="11.5" fill="#9a9ea8">The LSP4IJ client runtime — a required</text><text x="383" y="321" font-size="11.5" fill="#9a9ea8">companion IDE plugin. Owns the LSP lifecycl…</text><rect x="704" y="248" width="300" height="94" rx="8" fill="#e23b2e" filter="url(#cardlift)"/><path d="M709,248 H996 A8,8 0 0 1 1004,256 V334 A8,8 0 0 1 996,342 H709 Z" fill="#2b2d31"/><rect x="704" y="248" width="300" height="94" rx="8" fill="none" stroke="#44474e"/><text x="723" y="268" font-size="10" letter-spacing="1.5" font-weight="600" fill="#e23b2e">SYSTEM</text><text x="723" y="288" font-size="15" font-weight="700" fill="#d4d7dd">Intellij</text><text x="723" y="306" font-size="11.5" fill="#9a9ea8">The host IDE platform (IntelliJ). Provides</text><text x="723" y="321" font-size="11.5" fill="#9a9ea8">the editor, tool windows, file types, and…</text><path d="M585,118 L602,129 L618,140 L635,151 L651,161 L668,172 L684,183 L700,194 L717,205 L733,216 L750,226 L766,237 L783,248 " fill="none" stroke="#d4d7dd" marker-end="url(#arrow)"/><rect x="610" y="161" width="148" height="44" rx="4" fill="#2b2d31e6"/><text x="684" y="173" text-anchor="middle" font-size="11.5" fill="#9a9ea8"><tspan x="684" dy="0">openBrowser</tspan><tspan x="684" dy="14">openEditor</tspan><tspan x="684" dy="14">refreshNotifications</tspan></text><path d="M514,118 L514,129 L514,140 L514,151 L514,161 L514,172 L514,183 L514,194 L514,205 L514,216 L514,226 L514,237 L514,248 " fill="none" stroke="#d4d7dd" marker-end="url(#arrow)"/><rect x="461" y="175" width="106" height="16" rx="4" fill="#2b2d31e6"/><text x="514" y="187" text-anchor="middle" font-size="11.5" fill="#9a9ea8"><tspan x="514" dy="0">registerServer</tspan></text><path d="M443,118 L426,129 L410,140 L393,151 L377,161 L360,172 L344,183 L328,194 L311,205 L295,216 L278,226 L262,237 L245,248 " fill="none" stroke="#d4d7dd" marker-end="url(#arrow)"/><rect x="309" y="126" width="71" height="114" rx="4" fill="#2b2d31e6"/><text x="344" y="138" text-anchor="middle" font-size="11.5" fill="#9a9ea8"><tspan x="344" dy="0">doc</tspan><tspan x="344" dy="14">docServe</tspan><tspan x="344" dy="14">docWatch</tspan><tspan x="344" dy="14">list</tspan><tspan x="344" dy="14">lsp</tspan><tspan x="344" dy="14">outline</tspan><tspan x="344" dy="14">symbolSvg</tspan><tspan x="344" dy="14">viewSvg</tspan></text></g></svg>