<svg xmlns="http://www.w3.org/2000/svg" viewBox="0 0 1143 896" width="1143" height="896" font-family="sans-serif" font-size="13"><defs><marker id="arrow" markerWidth="10" markerHeight="10" refX="9" refY="3" orient="auto" markerUnits="strokeWidth"><path d="M0,0 L9,3 L0,6 z" fill="#d4d7dd"/></marker><filter id="cardlift" x="-12%" y="-12%" width="124%" height="140%"><feDropShadow dx="0" dy="2" stdDeviation="3.5" flood-color="#000000" flood-opacity="0.12"/></filter></defs><g font-family="Helvetica, Arial, sans-serif"><rect x="75" y="24" width="1044" height="712" rx="12" fill="#26282d" stroke="#44474e" stroke-dasharray="6 5"/><text x="87" y="43" font-size="13" font-weight="700" fill="#d4d7dd">PseudoScriptPlugin</text><rect x="91" y="68" width="1012" height="652" rx="12" fill="#26282d" stroke="#44474e" stroke-dasharray="6 5"/><text x="103" y="87" font-size="13" font-weight="700" fill="#d4d7dd">Diagrams</text><rect x="447" y="610" width="300" height="94" rx="8" fill="#c77f10" filter="url(#cardlift)"/><path d="M452,610 H739 A8,8 0 0 1 747,618 V696 A8,8 0 0 1 739,704 H452 Z" fill="#2b2d31"/><rect x="447" y="610" width="300" height="94" rx="8" fill="none" stroke="#44474e"/><text x="466" y="630" font-size="10" letter-spacing="1.5" font-weight="600" fill="#c77f10">COMPONENT</text><text x="466" y="650" font-size="15" font-weight="700" fill="#d4d7dd">Cli</text><text x="466" y="668" font-size="11.5" fill="#9a9ea8">Thin wrapper over the `pds` CLI for diagram</text><text x="466" y="683" font-size="11.5" fill="#9a9ea8">data. Runs the configured binary with the…</text><rect x="107" y="112" width="300" height="94" rx="8" fill="#c77f10" filter="url(#cardlift)"/><path d="M112,112 H399 A8,8 0 0 1 407,120 V198 A8,8 0 0 1 399,206 H112 Z" fill="#2b2d31"/><rect x="107" y="112" width="300" height="94" rx="8" fill="none" stroke="#44474e"/><text x="126" y="132" font-size="10" letter-spacing="1.5" font-weight="600" fill="#c77f10">COMPONENT</text><text x="126" y="152" font-size="15" font-weight="700" fill="#d4d7dd">StructureTree</text><text x="126" y="170" font-size="11.5" fill="#9a9ea8">The Structure tab: discovers workspaces,</text><text x="126" y="185" font-size="11.5" fill="#9a9ea8">outlines each, and draws the tree — symbols…</text><rect x="256" y="278" width="300" height="94" rx="8" fill="#c77f10" filter="url(#cardlift)"/><path d="M261,278 H548 A8,8 0 0 1 556,286 V364 A8,8 0 0 1 548,372 H261 Z" fill="#2b2d31"/><rect x="256" y="278" width="300" height="94" rx="8" fill="none" stroke="#44474e"/><text x="275" y="298" font-size="10" letter-spacing="1.5" font-weight="600" fill="#c77f10">COMPONENT</text><text x="275" y="318" font-size="15" font-weight="700" fill="#d4d7dd">DiagramService</text><text x="275" y="336" font-size="11.5" fill="#9a9ea8">Opens diagrams in the main editor area,</text><text x="275" y="351" font-size="11.5" fill="#9a9ea8">reusing one tab per project so successive…</text><rect x="256" y="444" width="300" height="94" rx="8" fill="#c77f10" filter="url(#cardlift)"/><path d="M261,444 H548 A8,8 0 0 1 556,452 V530 A8,8 0 0 1 548,538 H261 Z" fill="#2b2d31"/><rect x="256" y="444" width="300" height="94" rx="8" fill="none" stroke="#44474e"/><text x="275" y="464" font-size="10" letter-spacing="1.5" font-weight="600" fill="#c77f10">COMPONENT</text><text x="275" y="484" font-size="15" font-weight="700" fill="#d4d7dd">DiagramEditor</text><text x="275" y="502" font-size="11.5" fill="#9a9ea8">The zoomable, pannable SVG canvas: renders</text><text x="275" y="517" font-size="11.5" fill="#9a9ea8">`pds svg` output with zoom / pan and SVG /…</text><rect x="447" y="112" width="300" height="94" rx="8" fill="#c77f10" filter="url(#cardlift)"/><path d="M452,112 H739 A8,8 0 0 1 747,120 V198 A8,8 0 0 1 739,206 H452 Z" fill="#2b2d31"/><rect x="447" y="112" width="300" height="94" rx="8" fill="none" stroke="#44474e"/><text x="466" y="132" font-size="10" letter-spacing="1.5" font-weight="600" fill="#c77f10">COMPONENT</text><text x="466" y="152" font-size="15" font-weight="700" fill="#d4d7dd">DiagramAction</text><text x="466" y="170" font-size="11.5" fill="#9a9ea8">Right-click → Open Diagram on a `.pds`</text><text x="466" y="185" font-size="11.5" fill="#9a9ea8">source file: resolve the symbol under the…</text><rect x="787" y="610" width="300" height="94" rx="8" fill="#c77f10" filter="url(#cardlift)"/><path d="M792,610 H1079 A8,8 0 0 1 1087,618 V696 A8,8 0 0 1 1079,704 H792 Z" fill="#2b2d31"/><rect x="787" y="610" width="300" height="94" rx="8" fill="none" stroke="#44474e"/><text x="806" y="630" font-size="10" letter-spacing="1.5" font-weight="600" fill="#c77f10">COMPONENT</text><text x="806" y="650" font-size="15" font-weight="700" fill="#d4d7dd">Help</text><text x="806" y="668" font-size="11.5" fill="#9a9ea8">The Help button on the tool window: a quick</text><text x="806" y="683" font-size="11.5" fill="#9a9ea8">PseudoProgramming intro and a paste-ready…</text><rect x="24" y="778" width="300" height="94" rx="8" fill="#e23b2e" filter="url(#cardlift)"/><path d="M29,778 H316 A8,8 0 0 1 324,786 V864 A8,8 0 0 1 316,872 H29 Z" fill="#2b2d31"/><rect x="24" y="778" width="300" height="94" rx="8" fill="none" stroke="#44474e"/><text x="43" y="798" font-size="10" letter-spacing="1.5" font-weight="600" fill="#e23b2e">SYSTEM</text><text x="43" y="818" font-size="15" font-weight="700" fill="#d4d7dd">Intellij</text><text x="43" y="836" font-size="11.5" fill="#9a9ea8">The host IDE platform (IntelliJ). Provides</text><text x="43" y="851" font-size="11.5" fill="#9a9ea8">the editor, tool windows, file types, and…</text><rect x="447" y="778" width="300" height="94" rx="8" fill="#e23b2e" filter="url(#cardlift)"/><path d="M452,778 H739 A8,8 0 0 1 747,786 V864 A8,8 0 0 1 739,872 H452 Z" fill="#2b2d31"/><rect x="447" y="778" width="300" height="94" rx="8" fill="none" stroke="#44474e"/><text x="466" y="798" font-size="10" letter-spacing="1.5" font-weight="600" fill="#e23b2e">SYSTEM</text><text x="466" y="818" font-size="15" font-weight="700" fill="#d4d7dd">Pds</text><text x="466" y="836" font-size="11.5" fill="#9a9ea8">The `pds` toolchain the plugin shells out to</text><text x="466" y="851" font-size="11.5" fill="#9a9ea8">— modelled in full by the `pseudoscript`…</text><path d="M597,704 L597,710 L597,716 L597,723 L597,729 L597,735 L597,741 L597,747 L597,753 L597,760 L597,766 L597,772 L597,778 " fill="none" stroke="#d4d7dd" marker-end="url(#arrow)"/><rect x="562" y="712" width="71" height="58" rx="4" fill="#2b2d31e6"/><text x="597" y="724" text-anchor="middle" font-size="11.5" fill="#9a9ea8"><tspan x="597" dy="0">list</tspan><tspan x="597" dy="14">outline</tspan><tspan x="597" dy="14">symbolSvg</tspan><tspan x="597" dy="14">viewSvg</tspan></text><path d="M597,206 L597,212 L597,218 L597,226 L597,235 L597,245 L597,255 L597,266 L597,277 L597,289 L597,301 L597,313 L597,325 L597,337 L597,350 L597,364 L597,379 L597,393 L597,408 L597,423 L597,437 L597,452 L597,466 L597,479 L597,491 L597,503 L597,515 L597,527 L597,539 L597,550 L597,561 L597,571 L597,581 L597,590 L597,598 L597,604 L597,610 " fill="none" stroke="#d4d7dd" marker-end="url(#arrow)"/><rect x="569" y="400" width="57" height="16" rx="4" fill="#2b2d31e6"/><text x="597" y="412" text-anchor="middle" font-size="11.5" fill="#9a9ea8"><tspan x="597" dy="0">outline</tspan></text><path d="M543,206 L536,212 L529,218 L522,224 L515,230 L508,236 L501,242 L495,248 L488,254 L481,260 L474,266 L467,272 L460,278 " fill="none" stroke="#d4d7dd" marker-end="url(#arrow)"/><rect x="459" y="227" width="85" height="30" rx="4" fill="#2b2d31e6"/><text x="501" y="239" text-anchor="middle" font-size="11.5" fill="#9a9ea8"><tspan x="501" dy="0">show</tspan><tspan x="501" dy="14">showContext</tspan></text><path d="M460,538 L467,544 L474,550 L481,556 L488,562 L495,568 L502,574 L508,580 L515,586 L522,592 L529,598 L536,604 L543,610 " fill="none" stroke="#d4d7dd" marker-end="url(#arrow)"/><rect x="463" y="559" width="78" height="30" rx="4" fill="#2b2d31e6"/><text x="502" y="571" text-anchor="middle" font-size="11.5" fill="#9a9ea8"><tspan x="502" dy="0">contextSvg</tspan><tspan x="502" dy="14">symbolSvg</tspan></text><path d="M406,372 L406,378 L406,384 L406,390 L406,396 L406,402 L406,408 L406,414 L406,420 L406,426 L406,432 L406,438 L406,444 " fill="none" stroke="#d4d7dd" marker-end="url(#arrow)"/><rect x="357" y="393" width="99" height="30" rx="4" fill="#2b2d31e6"/><text x="406" y="405" text-anchor="middle" font-size="11.5" fill="#9a9ea8"><tspan x="406" dy="0">RenderContext</tspan><tspan x="406" dy="14">RenderSymbol</tspan></text><path d="M340,372 L332,378 L320,384 L307,392 L291,401 L274,411 L257,421 L240,432 L223,443 L208,455 L194,467 L183,479 L174,491 L168,503 L164,516 L162,530 L162,545 L162,559 L164,574 L166,589 L168,603 L170,618 L172,631 L173,645 L174,657 L174,669 L174,681 L174,693 L174,705 L174,717 L174,728 L174,738 L174,748 L174,757 L174,765 L174,772 L174,778 " fill="none" stroke="#d4d7dd" marker-end="url(#arrow)"/><rect x="125" y="566" width="78" height="16" rx="4" fill="#2b2d31e6"/><text x="164" y="578" text-anchor="middle" font-size="11.5" fill="#9a9ea8"><tspan x="164" dy="0">openEditor</tspan></text><path d="M365,206 L379,212 L398,218 L420,226 L446,235 L473,245 L501,255 L530,266 L557,277 L583,289 L605,301 L624,313 L638,325 L648,337 L654,350 L658,364 L659,379 L659,393 L657,408 L654,423 L650,437 L646,452 L643,466 L640,479 L638,491 L636,503 L634,515 L632,527 L629,539 L626,550 L623,561 L620,571 L617,581 L615,590 L612,598 L610,604 L609,610 " fill="none" stroke="#d4d7dd" marker-end="url(#arrow)"/><rect x="618" y="393" width="78" height="30" rx="4" fill="#2b2d31e6"/><text x="657" y="405" text-anchor="middle" font-size="11.5" fill="#9a9ea8"><tspan x="657" dy="0">outline</tspan><tspan x="657" dy="14">workspaces</tspan></text><path d="M299,206 L305,212 L310,218 L315,224 L321,230 L326,236 L332,242 L337,248 L342,254 L348,260 L353,266 L358,272 L364,278 " fill="none" stroke="#d4d7dd" marker-end="url(#arrow)"/><rect x="314" y="234" width="36" height="16" rx="4" fill="#2b2d31e6"/><text x="332" y="246" text-anchor="middle" font-size="11.5" fill="#9a9ea8"><tspan x="332" dy="0">show</tspan></text><path d="M245,206 L244,212 L241,218 L239,226 L236,235 L233,245 L230,255 L227,266 L224,277 L221,289 L219,301 L217,313 L215,325 L214,337 L213,350 L213,363 L213,377 L213,391 L213,405 L213,419 L214,434 L214,448 L215,463 L215,477 L215,491 L215,505 L215,519 L216,534 L216,548 L216,562 L217,577 L217,591 L217,605 L217,619 L217,632 L216,645 L215,657 L213,669 L211,681 L209,693 L206,705 L203,717 L200,728 L197,738 L194,748 L191,757 L189,765 L187,772 L185,778 " fill="none" stroke="#d4d7dd" marker-end="url(#arrow)"/><rect x="176" y="483" width="78" height="16" rx="4" fill="#2b2d31e6"/><text x="215" y="495" text-anchor="middle" font-size="11.5" fill="#9a9ea8"><tspan x="215" dy="0">openEditor</tspan></text></g></svg>