<svg xmlns="http://www.w3.org/2000/svg" viewBox="0 0 1146 1359" width="1146" height="1359" font-family="sans-serif" font-size="13"><defs><marker id="arrow" markerWidth="10" markerHeight="10" refX="9" refY="3" orient="auto" markerUnits="strokeWidth"><path d="M0,0 L9,3 L0,6 z" fill="#b7bbc3"/></marker></defs><g font-family="Helvetica, Arial, sans-serif"><defs><marker id="seqcall" markerWidth="11" markerHeight="11" refX="9" refY="3.5" orient="auto" markerUnits="userSpaceOnUse"><path d="M0,0 L10,3.5 L0,7 z" fill="#d4d7dd"/></marker><marker id="seqret" markerWidth="12" markerHeight="12" refX="9" refY="4" orient="auto" markerUnits="userSpaceOnUse"><path d="M0,0 L10,4 M0,8 L10,4" fill="none" stroke="#9a9ea8" stroke-width="1.3"/></marker></defs><text x="20" y="22" font-size="10" letter-spacing="2" fill="#9a9ea8">SEQUENCE</text><text x="20" y="44" font-size="17" font-weight="700" fill="#d4d7dd">Refresh</text><rect x="86" y="599" width="505" height="178" rx="4" fill="#d4d7dd" fill-opacity="0.015" stroke="#565a62"/><path d="M86,599 h42 l-8,16 h-34 z" fill="#565a62" fill-opacity="0.5" stroke="#565a62"/><text x="94" y="614" font-size="11" font-weight="700" fill="#d4d7dd">alt</text><text x="136" y="614" font-size="11" fill="#9a9ea8">[self.isEmpty() &amp;&amp; listed.isErr]</text><line x1="86" y1="693" x2="591" y2="693" stroke="#565a62" stroke-dasharray="5 3"/><text x="94" y="707" font-size="11" font-weight="700" fill="#9a9ea8">[else]</text><rect x="86" y="1045" width="82" height="218" rx="4" fill="#d4d7dd" fill-opacity="0.015" stroke="#565a62"/><path d="M86,1045 h42 l-8,16 h-34 z" fill="#565a62" fill-opacity="0.5" stroke="#565a62"/><text x="94" y="1060" font-size="11" font-weight="700" fill="#d4d7dd">alt</text><text x="136" y="1060" font-size="11" fill="#9a9ea8">[nodes.isErr]</text><line x1="86" y1="1159" x2="168" y2="1159" stroke="#565a62" stroke-dasharray="5 3"/><text x="94" y="1173" font-size="11" font-weight="700" fill="#9a9ea8">[else]</text><rect x="86" y="831" width="974" height="462" rx="4" fill="#d4d7dd" fill-opacity="0.015" stroke="#565a62"/><path d="M86,831 h50 l-8,16 h-42 z" fill="#565a62" fill-opacity="0.5" stroke="#565a62"/><text x="94" y="846" font-size="11" font-weight="700" fill="#d4d7dd">loop</text><text x="144" y="846" font-size="11" fill="#9a9ea8">[roots.value]</text><rect x="86" y="793" width="974" height="530" rx="4" fill="#d4d7dd" fill-opacity="0.015" stroke="#565a62"/><path d="M86,793 h42 l-8,16 h-34 z" fill="#565a62" fill-opacity="0.5" stroke="#565a62"/><text x="94" y="808" font-size="11" font-weight="700" fill="#d4d7dd">alt</text><text x="136" y="808" font-size="11" fill="#9a9ea8">[else roots.isErr]</text><rect x="99" y="205" width="10" height="986" rx="2" fill="#ff5c38" fill-opacity="0.10" stroke="#ff5c38" stroke-opacity="0.5"/><rect x="568" y="205" width="10" height="802" rx="2" fill="#3b3e45" fill-opacity="1" stroke="#44474e" stroke-opacity="1"/><rect x="1037" y="249" width="10" height="714" rx="2" fill="#3b3e45" fill-opacity="1" stroke="#44474e" stroke-opacity="1"/><rect x="20" y="64" width="168" height="103" rx="8" fill="#c77f10" filter="url(#cardlift)"/><path d="M25,64 H180 A8,8 0 0 1 188,72 V159 A8,8 0 0 1 180,167 H25 Z" fill="#2b2d31"/><rect x="20" y="64" width="168" height="103" rx="8" fill="none" stroke="#44474e"/><text x="39" y="84" font-size="10" letter-spacing="1.5" font-weight="600" fill="#c77f10">COMPONENT</text><text x="39" y="104" font-size="15" font-weight="700" fill="#d4d7dd">StructureTree</text><text x="39" y="120" font-size="11" fill="#9a9ea8">PseudoScriptPlugin::Diagrams</text><text x="39" y="138" font-size="11.5" fill="#9a9ea8">The Structure tab:</text><text x="39" y="153" font-size="11.5" fill="#9a9ea8">discovers workspaces,</text><line x1="104" y1="167" x2="104" y2="1339" stroke="#44474e" stroke-dasharray="2 4"/><rect x="489" y="64" width="168" height="103" rx="8" fill="#c77f10" filter="url(#cardlift)"/><path d="M494,64 H649 A8,8 0 0 1 657,72 V159 A8,8 0 0 1 649,167 H494 Z" fill="#2b2d31"/><rect x="489" y="64" width="168" height="103" rx="8" fill="none" stroke="#44474e"/><text x="508" y="84" font-size="10" letter-spacing="1.5" font-weight="600" fill="#c77f10">COMPONENT</text><text x="508" y="104" font-size="15" font-weight="700" fill="#d4d7dd">Cli</text><text x="508" y="120" font-size="11" fill="#9a9ea8">PseudoScriptPlugin::Diagrams</text><text x="508" y="138" font-size="11.5" fill="#9a9ea8">Thin wrapper over the</text><text x="508" y="153" font-size="11.5" fill="#9a9ea8">`pds` CLI for diagram</text><line x1="573" y1="167" x2="573" y2="1339" stroke="#44474e" stroke-dasharray="2 4"/><rect x="958" y="64" width="168" height="103" rx="8" fill="#e23b2e" filter="url(#cardlift)"/><path d="M963,64 H1118 A8,8 0 0 1 1126,72 V159 A8,8 0 0 1 1118,167 H963 Z" fill="#2b2d31"/><rect x="958" y="64" width="168" height="103" rx="8" fill="none" stroke="#44474e"/><text x="977" y="84" font-size="10" letter-spacing="1.5" font-weight="600" fill="#e23b2e">SYSTEM</text><text x="977" y="104" font-size="15" font-weight="700" fill="#d4d7dd">Pds</text><text x="977" y="122" font-size="11.5" fill="#9a9ea8">The `pds` toolchain</text><text x="977" y="137" font-size="11.5" fill="#9a9ea8">the plugin shells out</text><line x1="1042" y1="167" x2="1042" y2="1339" stroke="#44474e" stroke-dasharray="2 4"/><line x1="109" y1="211" x2="568" y2="211" stroke="#d4d7dd" stroke-width="1.4" marker-end="url(#seqcall)"/><circle cx="87" cy="211" r="8" fill="#ff5c38"/><text x="87" y="214" text-anchor="middle" font-size="10" font-weight="700" fill="#fff">1</text><rect x="229" y="191" width="218" height="14" rx="4" fill="#2b2d31" fill-opacity="0.92"/><text x="338" y="202" text-anchor="middle" font-size="12.5" fill="#d4d7dd">workspaces<tspan fill="#9a9ea8">(projectDir: string)</tspan></text><line x1="578" y1="255" x2="1037" y2="255" stroke="#d4d7dd" stroke-width="1.4" marker-end="url(#seqcall)"/><circle cx="556" cy="255" r="8" fill="#ff5c38"/><text x="556" y="258" text-anchor="middle" font-size="10" font-weight="700" fill="#fff">2</text><rect x="740" y="235" width="134" height="14" rx="4" fill="#2b2d31" fill-opacity="0.92"/><text x="807" y="246" text-anchor="middle" font-size="12.5" fill="#d4d7dd">list<tspan fill="#9a9ea8">(root: string)</tspan></text><line x1="1037" y1="299" x2="578" y2="299" stroke="#9a9ea8" stroke-width="1.3" stroke-dasharray="5 3" marker-end="url(#seqret)"/><rect x="660" y="279" width="295" height="14" rx="4" fill="#2b2d31" fill-opacity="0.92"/><text x="807" y="290" text-anchor="middle" font-size="12.5" fill="#9a9ea8">↩ return<tspan fill="#9a9ea8"> Result&lt;string[], main::CliError&gt;</tspan></text><path d="M578,343 h34 a6 6 0 0 1 6 6 v8 a6 6 0 0 1 -6 6 h-34" fill="none" stroke="#d4d7dd" stroke-width="1.4" marker-end="url(#seqcall)"/><circle cx="556" cy="343" r="8" fill="#ff5c38"/><text x="556" y="346" text-anchor="middle" font-size="10" font-weight="700" fill="#fff">3</text><text x="624" y="347" text-anchor="start" font-size="12.5" fill="#d4d7dd">hiddenWorkspaces</text><path d="M578,407 h34 a6 6 0 0 1 6 6 v8 a6 6 0 0 1 -6 6 h-34" fill="none" stroke="#d4d7dd" stroke-width="1.4" marker-end="url(#seqcall)"/><circle cx="556" cy="407" r="8" fill="#ff5c38"/><text x="556" y="410" text-anchor="middle" font-size="10" font-weight="700" fill="#fff">4</text><text x="624" y="411" text-anchor="start" font-size="12.5" fill="#d4d7dd">listedOrEmpty</text><path d="M578,471 h34 a6 6 0 0 1 6 6 v8 a6 6 0 0 1 -6 6 h-34" fill="none" stroke="#d4d7dd" stroke-width="1.4" marker-end="url(#seqcall)"/><circle cx="556" cy="471" r="8" fill="#ff5c38"/><text x="556" y="474" text-anchor="middle" font-size="10" font-weight="700" fill="#fff">5</text><text x="624" y="475" text-anchor="start" font-size="12.5" fill="#d4d7dd">union</text><path d="M578,535 h34 a6 6 0 0 1 6 6 v8 a6 6 0 0 1 -6 6 h-34" fill="none" stroke="#d4d7dd" stroke-width="1.4" marker-end="url(#seqcall)"/><circle cx="556" cy="535" r="8" fill="#ff5c38"/><text x="556" y="538" text-anchor="middle" font-size="10" font-weight="700" fill="#fff">6</text><text x="624" y="539" text-anchor="start" font-size="12.5" fill="#d4d7dd">isEmpty</text><line x1="568" y1="637" x2="109" y2="637" stroke="#f0563b" stroke-width="1.3" stroke-dasharray="5 3" marker-end="url(#seqret)"/><rect x="261" y="617" width="155" height="14" rx="4" fill="#2b2d31" fill-opacity="0.92"/><text x="338" y="628" text-anchor="middle" font-size="12.5" fill="#f0563b">↩ Err<tspan fill="#9a9ea8">&lt;main::CliError&gt;</tspan></text><line x1="568" y1="719" x2="109" y2="719" stroke="#23c2ab" stroke-width="1.3" stroke-dasharray="5 3" marker-end="url(#seqret)"/><rect x="285" y="699" width="106" height="14" rx="4" fill="#2b2d31" fill-opacity="0.92"/><text x="338" y="710" text-anchor="middle" font-size="12.5" fill="#23c2ab">↩ Ok<tspan fill="#9a9ea8">&lt;string[]&gt;</tspan></text><line x1="109" y1="869" x2="568" y2="869" stroke="#d4d7dd" stroke-width="1.4" marker-end="url(#seqcall)"/><circle cx="87" cy="869" r="8" fill="#ff5c38"/><text x="87" y="872" text-anchor="middle" font-size="10" font-weight="700" fill="#fff">7</text><rect x="233" y="849" width="211" height="14" rx="4" fill="#2b2d31" fill-opacity="0.92"/><text x="338" y="860" text-anchor="middle" font-size="12.5" fill="#d4d7dd">outline<tspan fill="#9a9ea8">(workspaceDir: string)</tspan></text><line x1="578" y1="913" x2="1037" y2="913" stroke="#d4d7dd" stroke-width="1.4" marker-end="url(#seqcall)"/><circle cx="556" cy="913" r="8" fill="#ff5c38"/><text x="556" y="916" text-anchor="middle" font-size="10" font-weight="700" fill="#fff">8</text><rect x="702" y="893" width="211" height="14" rx="4" fill="#2b2d31" fill-opacity="0.92"/><text x="807" y="904" text-anchor="middle" font-size="12.5" fill="#d4d7dd">outline<tspan fill="#9a9ea8">(workspaceDir: string)</tspan></text><line x1="1037" y1="957" x2="578" y2="957" stroke="#9a9ea8" stroke-width="1.3" stroke-dasharray="5 3" marker-end="url(#seqret)"/><rect x="611" y="937" width="393" height="14" rx="4" fill="#2b2d31" fill-opacity="0.92"/><text x="807" y="948" text-anchor="middle" font-size="12.5" fill="#9a9ea8">↩ return<tspan fill="#9a9ea8"> Result&lt;main::PdsOutlineNode[], main::CliError&gt;</tspan></text><line x1="568" y1="1001" x2="109" y2="1001" stroke="#9a9ea8" stroke-width="1.3" stroke-dasharray="5 3" marker-end="url(#seqret)"/><rect x="142" y="981" width="393" height="14" rx="4" fill="#2b2d31" fill-opacity="0.92"/><text x="338" y="992" text-anchor="middle" font-size="12.5" fill="#9a9ea8">↩ return<tspan fill="#9a9ea8"> Result&lt;main::PdsOutlineNode[], main::CliError&gt;</tspan></text><path d="M109,1083 h34 a6 6 0 0 1 6 6 v8 a6 6 0 0 1 -6 6 h-34" fill="none" stroke="#d4d7dd" stroke-width="1.4" marker-end="url(#seqcall)"/><circle cx="87" cy="1083" r="8" fill="#ff5c38"/><text x="87" y="1086" text-anchor="middle" font-size="10" font-weight="700" fill="#fff">9</text><text x="155" y="1087" text-anchor="start" font-size="12.5" fill="#d4d7dd">attachError</text><path d="M109,1185 h34 a6 6 0 0 1 6 6 v8 a6 6 0 0 1 -6 6 h-34" fill="none" stroke="#d4d7dd" stroke-width="1.4" marker-end="url(#seqcall)"/><circle cx="87" cy="1185" r="8" fill="#ff5c38"/><text x="87" y="1188" text-anchor="middle" font-size="10" font-weight="700" fill="#fff">10</text><text x="155" y="1189" text-anchor="start" font-size="12.5" fill="#d4d7dd">attach</text></g></svg>