<svg xmlns="http://www.w3.org/2000/svg" viewBox="0 0 2277 444" width="2277" height="444" font-family="sans-serif" font-size="13"><defs><marker id="arrow" markerWidth="10" markerHeight="10" refX="9" refY="3" orient="auto" markerUnits="strokeWidth"><path d="M0,0 L9,3 L0,6 z" fill="#d4d7dd"/></marker><filter id="cardlift" x="-12%" y="-12%" width="124%" height="140%"><feDropShadow dx="0" dy="2" stdDeviation="3.5" flood-color="#000000" flood-opacity="0.12"/></filter></defs><g font-family="Helvetica, Arial, sans-serif"><rect x="6" y="80" width="1800" height="340" rx="12" fill="#26282d" stroke="#44474e" stroke-dasharray="6 5"/><text x="18" y="99" font-size="13" font-weight="700" fill="#d4d7dd">Diagrams</text><rect x="1482" y="180" width="300" height="94" rx="8" fill="#c77f10" filter="url(#cardlift)"/><path d="M1487,180 H1774 A8,8 0 0 1 1782,188 V266 A8,8 0 0 1 1774,274 H1487 Z" fill="#2b2d31"/><rect x="1482" y="180" width="300" height="94" rx="8" fill="none" stroke="#44474e"/><text x="1501" y="200" font-size="10" letter-spacing="1.5" font-weight="600" fill="#c77f10">COMPONENT</text><text x="1501" y="220" font-size="15" font-weight="700" fill="#d4d7dd">Cli</text><text x="1501" y="238" font-size="11.5" fill="#9a9ea8">Thin wrapper over the `pds` CLI for diagram</text><text x="1501" y="253" font-size="11.5" fill="#9a9ea8">data. Runs the configured binary with the…</text><rect x="30" y="104" width="300" height="94" rx="8" fill="#c77f10" filter="url(#cardlift)"/><path d="M35,104 H322 A8,8 0 0 1 330,112 V190 A8,8 0 0 1 322,198 H35 Z" fill="#2b2d31"/><rect x="30" y="104" width="300" height="94" rx="8" fill="none" stroke="#44474e"/><text x="49" y="124" font-size="10" letter-spacing="1.5" font-weight="600" fill="#c77f10">COMPONENT</text><text x="49" y="144" font-size="15" font-weight="700" fill="#d4d7dd">StructureTree</text><text x="49" y="162" font-size="11.5" fill="#9a9ea8">The Structure tab: discovers workspaces,</text><text x="49" y="177" font-size="11.5" fill="#9a9ea8">outlines each, and draws the tree; selectin…</text><rect x="462" y="162" width="300" height="94" rx="8" fill="#c77f10" filter="url(#cardlift)"/><path d="M467,162 H754 A8,8 0 0 1 762,170 V248 A8,8 0 0 1 754,256 H467 Z" fill="#2b2d31"/><rect x="462" y="162" width="300" height="94" rx="8" fill="none" stroke="#44474e"/><text x="481" y="182" font-size="10" letter-spacing="1.5" font-weight="600" fill="#c77f10">COMPONENT</text><text x="481" y="202" font-size="15" font-weight="700" fill="#d4d7dd">DiagramService</text><text x="481" y="220" font-size="11.5" fill="#9a9ea8">Opens diagrams in the main editor area,</text><text x="481" y="235" font-size="11.5" fill="#9a9ea8">reusing one tab per project so successive…</text><rect x="972" y="239" width="300" height="94" rx="8" fill="#c77f10" filter="url(#cardlift)"/><path d="M977,239 H1264 A8,8 0 0 1 1272,247 V325 A8,8 0 0 1 1264,333 H977 Z" fill="#2b2d31"/><rect x="972" y="239" width="300" height="94" rx="8" fill="none" stroke="#44474e"/><text x="991" y="259" font-size="10" letter-spacing="1.5" font-weight="600" fill="#c77f10">COMPONENT</text><text x="991" y="279" font-size="15" font-weight="700" fill="#d4d7dd">DiagramEditor</text><text x="991" y="297" font-size="11.5" fill="#9a9ea8">The zoomable, pannable SVG canvas: renders</text><text x="991" y="312" font-size="11.5" fill="#9a9ea8">`pds svg` output with zoom / pan and SVG /…</text><rect x="30" y="302" width="300" height="94" rx="8" fill="#c77f10" filter="url(#cardlift)"/><path d="M35,302 H322 A8,8 0 0 1 330,310 V388 A8,8 0 0 1 322,396 H35 Z" fill="#2b2d31"/><rect x="30" y="302" width="300" height="94" rx="8" fill="none" stroke="#44474e"/><text x="49" y="322" font-size="10" letter-spacing="1.5" font-weight="600" fill="#c77f10">COMPONENT</text><text x="49" y="342" font-size="15" font-weight="700" fill="#d4d7dd">DiagramAction</text><text x="49" y="360" font-size="11.5" fill="#9a9ea8">Right-click → Open Diagram on a `.pds`</text><text x="49" y="375" font-size="11.5" fill="#9a9ea8">source file: resolve the symbol under the…</text><rect x="972" y="85" width="300" height="94" rx="8" fill="#e23b2e" filter="url(#cardlift)"/><path d="M977,85 H1264 A8,8 0 0 1 1272,93 V171 A8,8 0 0 1 1264,179 H977 Z" fill="#2b2d31"/><rect x="972" y="85" width="300" height="94" rx="8" fill="none" stroke="#44474e"/><text x="991" y="105" font-size="10" letter-spacing="1.5" font-weight="600" fill="#e23b2e">SYSTEM</text><text x="991" y="125" font-size="15" font-weight="700" fill="#d4d7dd">Intellij</text><text x="991" y="143" font-size="11.5" fill="#9a9ea8">The host IDE platform (IntelliJ). Provides</text><text x="991" y="158" font-size="11.5" fill="#9a9ea8">the editor, tool windows, file types, and…</text><rect x="1953" y="184" width="300" height="94" rx="8" fill="#e23b2e" filter="url(#cardlift)"/><path d="M1958,184 H2245 A8,8 0 0 1 2253,192 V270 A8,8 0 0 1 2245,278 H1958 Z" fill="#2b2d31"/><rect x="1953" y="184" width="300" height="94" rx="8" fill="none" stroke="#44474e"/><text x="1972" y="204" font-size="10" letter-spacing="1.5" font-weight="600" fill="#e23b2e">SYSTEM</text><text x="1972" y="224" font-size="15" font-weight="700" fill="#d4d7dd">Pds</text><text x="1972" y="242" font-size="11.5" fill="#9a9ea8">The `pds` toolchain the plugin shells out to</text><text x="1972" y="257" font-size="11.5" fill="#9a9ea8">— modelled in full by the `pseudoscript`…</text><path d="M1782,228 L1869,231 L1923,231 " fill="none" stroke="#d4d7dd" marker-end="url(#arrow)"/><path d="M1782,240 L1888,263 L1924,262 " fill="none" stroke="#d4d7dd" marker-end="url(#arrow)"/><path d="M1782,213 L1862,196 L1924,203 " fill="none" stroke="#d4d7dd" marker-end="url(#arrow)"/><path d="M304,104 L367,17 L583,17 L838,17 L1093,17 L1398,17 L1512,154 " fill="none" stroke="#d4d7dd" marker-end="url(#arrow)"/><path d="M320,104 L367,50 L583,50 L838,50 L1093,50 L1417,50 L1512,154 " fill="none" stroke="#d4d7dd" marker-end="url(#arrow)"/><path d="M330,164 L397,175 L433,182 " fill="none" stroke="#d4d7dd" marker-end="url(#arrow)"/><path d="M762,222 L881,242 L943,257 " fill="none" stroke="#d4d7dd" marker-end="url(#arrow)"/><path d="M1272,292 L1418,311 L1468,291 " fill="none" stroke="#d4d7dd" marker-end="url(#arrow)"/><path d="M1272,277 L1411,261 L1453,253 " fill="none" stroke="#d4d7dd" marker-end="url(#arrow)"/><path d="M762,197 L907,176 L944,168 " fill="none" stroke="#d4d7dd" marker-end="url(#arrow)"/><path d="M330,378 L367,404 L583,404 L838,404 L1093,404 L1398,404 L1505,298 " fill="none" stroke="#d4d7dd" marker-end="url(#arrow)"/><path d="M330,319 L399,290 L438,272 " fill="none" stroke="#d4d7dd" marker-end="url(#arrow)"/><rect x="1850" y="223" width="36" height="16" rx="4" fill="#2b2d31e6"/><text x="1868" y="235" text-anchor="middle" font-size="11.5" fill="#9a9ea8">list</text><rect x="1840" y="256" width="57" height="16" rx="4" fill="#2b2d31e6"/><text x="1868" y="268" text-anchor="middle" font-size="11.5" fill="#9a9ea8">outline</text><rect x="1854" y="186" width="29" height="16" rx="4" fill="#2b2d31e6"/><text x="1868" y="198" text-anchor="middle" font-size="11.5" fill="#9a9ea8">svg</text><rect x="1349" y="9" width="57" height="16" rx="4" fill="#2b2d31e6"/><text x="1377" y="21" text-anchor="middle" font-size="11.5" fill="#9a9ea8">outline</text><rect x="1338" y="42" width="78" height="16" rx="4" fill="#2b2d31e6"/><text x="1377" y="54" text-anchor="middle" font-size="11.5" fill="#9a9ea8">workspaces</text><rect x="378" y="172" width="36" height="16" rx="4" fill="#2b2d31e6"/><text x="396" y="184" text-anchor="middle" font-size="11.5" fill="#9a9ea8">show</text><rect x="842" y="240" width="50" height="16" rx="4" fill="#2b2d31e6"/><text x="867" y="252" text-anchor="middle" font-size="11.5" fill="#9a9ea8">Render</text><rect x="1338" y="299" width="78" height="16" rx="4" fill="#2b2d31e6"/><text x="1377" y="311" text-anchor="middle" font-size="11.5" fill="#9a9ea8">contextSvg</text><rect x="1342" y="248" width="71" height="16" rx="4" fill="#2b2d31e6"/><text x="1377" y="260" text-anchor="middle" font-size="11.5" fill="#9a9ea8">symbolSvg</text><rect x="828" y="163" width="78" height="16" rx="4" fill="#2b2d31e6"/><text x="867" y="175" text-anchor="middle" font-size="11.5" fill="#9a9ea8">openEditor</text><rect x="1349" y="396" width="57" height="16" rx="4" fill="#2b2d31e6"/><text x="1377" y="408" text-anchor="middle" font-size="11.5" fill="#9a9ea8">outline</text><rect x="378" y="271" width="36" height="16" rx="4" fill="#2b2d31e6"/><text x="396" y="283" text-anchor="middle" font-size="11.5" fill="#9a9ea8">show</text></g></svg>