<svg xmlns="http://www.w3.org/2000/svg" viewBox="0 0 3828 1668" width="3828" height="1668" font-family="sans-serif" font-size="13"><defs><marker id="arrow" markerWidth="10" markerHeight="10" refX="9" refY="3" orient="auto" markerUnits="strokeWidth"><path d="M0,0 L9,3 L0,6 z" fill="#b7bbc3"/></marker></defs><g font-family="Helvetica, Arial, sans-serif"><defs><marker id="seqcall" markerWidth="11" markerHeight="11" refX="9" refY="3.5" orient="auto" markerUnits="userSpaceOnUse"><path d="M0,0 L10,3.5 L0,7 z" fill="#d4d7dd"/></marker><marker id="seqret" markerWidth="12" markerHeight="12" refX="9" refY="4" orient="auto" markerUnits="userSpaceOnUse"><path d="M0,0 L10,4 M0,8 L10,4" fill="none" stroke="#9a9ea8" stroke-width="1.3"/></marker></defs><text x="20" y="22" font-size="10" letter-spacing="2" fill="#9a9ea8">SEQUENCE</text><text x="20" y="44" font-size="17" font-weight="700" fill="#d4d7dd">OpenEntry</text><rect x="810" y="628" width="806" height="290" rx="4" fill="#d4d7dd" fill-opacity="0.015" stroke="#565a62"/><path d="M810,628 h42 l-8,16 h-34 z" fill="#565a62" fill-opacity="0.5" stroke="#565a62"/><text x="818" y="643" font-size="11" font-weight="700" fill="#d4d7dd">alt</text><text x="860" y="643" font-size="11" fill="#9a9ea8">[ctx.isErr]</text><line x1="810" y1="740" x2="1616" y2="740" stroke="#565a62" stroke-dasharray="5 3"/><text x="818" y="754" font-size="11" font-weight="700" fill="#9a9ea8">[else]</text><rect x="810" y="1196" width="806" height="290" rx="4" fill="#d4d7dd" fill-opacity="0.015" stroke="#565a62"/><path d="M810,1196 h42 l-8,16 h-34 z" fill="#565a62" fill-opacity="0.5" stroke="#565a62"/><text x="818" y="1211" font-size="11" font-weight="700" fill="#d4d7dd">alt</text><text x="860" y="1211" font-size="11" fill="#9a9ea8">[svg.isErr]</text><line x1="810" y1="1308" x2="1616" y2="1308" stroke="#565a62" stroke-dasharray="5 3"/><text x="818" y="1322" font-size="11" font-weight="700" fill="#9a9ea8">[else]</text><rect x="810" y="366" width="2208" height="1154" rx="4" fill="#d4d7dd" fill-opacity="0.015" stroke="#565a62"/><path d="M810,366 h42 l-8,16 h-34 z" fill="#565a62" fill-opacity="0.5" stroke="#565a62"/><text x="818" y="381" font-size="11" font-weight="700" fill="#d4d7dd">alt</text><text x="860" y="381" font-size="11" fill="#9a9ea8">[fqn.isNone]</text><line x1="810" y1="950" x2="3018" y2="950" stroke="#565a62" stroke-dasharray="5 3"/><text x="818" y="964" font-size="11" font-weight="700" fill="#9a9ea8">[else]</text><rect x="99" y="172" width="10" height="12" rx="2" fill="#ff5c38" fill-opacity="0.10" stroke="#ff5c38" stroke-opacity="0.5"/><rect x="823" y="172" width="10" height="1428" rx="2" fill="#3b3e45" fill-opacity="1" stroke="#44474e" stroke-opacity="1"/><rect x="1547" y="226" width="10" height="1198" rx="2" fill="#3b3e45" fill-opacity="1" stroke="#44474e" stroke-opacity="1"/><rect x="2271" y="406" width="10" height="742" rx="2" fill="#3b3e45" fill-opacity="1" stroke="#44474e" stroke-opacity="1"/><rect x="2995" y="460" width="10" height="634" rx="2" fill="#3b3e45" fill-opacity="1" stroke="#44474e" stroke-opacity="1"/><rect x="3719" y="1534" width="10" height="66" rx="2" fill="#3b3e45" fill-opacity="1" stroke="#44474e" stroke-opacity="1"/><rect x="20" y="64" width="168" height="60" rx="8" fill="#c77f10" filter="url(#cardlift)"/><path d="M25,64 H180 A8,8 0 0 1 188,72 V116 A8,8 0 0 1 180,124 H25 Z" fill="#2b2d31"/><rect x="20" y="64" width="168" height="60" rx="8" fill="none" stroke="#44474e"/><text x="39" y="84" font-size="10" letter-spacing="1.5" font-weight="600" fill="#c77f10">COMPONENT</text><text x="39" y="104" font-size="15" font-weight="700" fill="#d4d7dd">StructureTree</text><line x1="104" y1="124" x2="104" y2="1648" stroke="#44474e" stroke-dasharray="2 4"/><rect x="744" y="64" width="168" height="60" rx="8" fill="#c77f10" filter="url(#cardlift)"/><path d="M749,64 H904 A8,8 0 0 1 912,72 V116 A8,8 0 0 1 904,124 H749 Z" fill="#2b2d31"/><rect x="744" y="64" width="168" height="60" rx="8" fill="none" stroke="#44474e"/><text x="763" y="84" font-size="10" letter-spacing="1.5" font-weight="600" fill="#c77f10">COMPONENT</text><text x="763" y="104" font-size="15" font-weight="700" fill="#d4d7dd">DiagramService</text><line x1="828" y1="124" x2="828" y2="1648" stroke="#44474e" stroke-dasharray="2 4"/><rect x="1468" y="64" width="168" height="60" rx="8" fill="#c77f10" filter="url(#cardlift)"/><path d="M1473,64 H1628 A8,8 0 0 1 1636,72 V116 A8,8 0 0 1 1628,124 H1473 Z" fill="#2b2d31"/><rect x="1468" y="64" width="168" height="60" rx="8" fill="none" stroke="#44474e"/><text x="1487" y="84" font-size="10" letter-spacing="1.5" font-weight="600" fill="#c77f10">COMPONENT</text><text x="1487" y="104" font-size="15" font-weight="700" fill="#d4d7dd">DiagramEditor</text><line x1="1552" y1="124" x2="1552" y2="1648" stroke="#44474e" stroke-dasharray="2 4"/><rect x="2192" y="64" width="168" height="60" rx="8" fill="#c77f10" filter="url(#cardlift)"/><path d="M2197,64 H2352 A8,8 0 0 1 2360,72 V116 A8,8 0 0 1 2352,124 H2197 Z" fill="#2b2d31"/><rect x="2192" y="64" width="168" height="60" rx="8" fill="none" stroke="#44474e"/><text x="2211" y="84" font-size="10" letter-spacing="1.5" font-weight="600" fill="#c77f10">COMPONENT</text><text x="2211" y="104" font-size="15" font-weight="700" fill="#d4d7dd">Cli</text><line x1="2276" y1="124" x2="2276" y2="1648" stroke="#44474e" stroke-dasharray="2 4"/><rect x="2916" y="64" width="168" height="60" rx="8" fill="#e23b2e" filter="url(#cardlift)"/><path d="M2921,64 H3076 A8,8 0 0 1 3084,72 V116 A8,8 0 0 1 3076,124 H2921 Z" fill="#2b2d31"/><rect x="2916" y="64" width="168" height="60" rx="8" fill="none" stroke="#44474e"/><text x="2935" y="84" font-size="10" letter-spacing="1.5" font-weight="600" fill="#e23b2e">SYSTEM</text><text x="2935" y="104" font-size="15" font-weight="700" fill="#d4d7dd">Pds</text><line x1="3000" y1="124" x2="3000" y2="1648" stroke="#44474e" stroke-dasharray="2 4"/><rect x="3640" y="64" width="168" height="60" rx="8" fill="#e23b2e" filter="url(#cardlift)"/><path d="M3645,64 H3800 A8,8 0 0 1 3808,72 V116 A8,8 0 0 1 3800,124 H3645 Z" fill="#2b2d31"/><rect x="3640" y="64" width="168" height="60" rx="8" fill="none" stroke="#44474e"/><text x="3659" y="84" font-size="10" letter-spacing="1.5" font-weight="600" fill="#e23b2e">SYSTEM</text><text x="3659" y="104" font-size="15" font-weight="700" fill="#d4d7dd">Intellij</text><line x1="3724" y1="124" x2="3724" y2="1648" stroke="#44474e" stroke-dasharray="2 4"/><line x1="109" y1="178" x2="823" y2="178" stroke="#d4d7dd" stroke-width="1.4" marker-end="url(#seqcall)"/><circle cx="87" cy="178" r="8" fill="#ff5c38"/><text x="87" y="181" text-anchor="middle" font-size="10" font-weight="700" fill="#fff">1</text><rect x="345" y="157" width="243" height="17" rx="4" fill="#2b2d31" fill-opacity="0.92"/><text x="466" y="169" text-anchor="middle" font-size="12.5" fill="#d4d7dd">show<tspan fill="#9a9ea8">(target: main::DiagramTarget)</tspan></text><line x1="833" y1="232" x2="1547" y2="232" stroke="#d4d7dd" stroke-width="1.4" marker-end="url(#seqcall)"/><circle cx="811" cy="232" r="8" fill="#ff5c38"/><text x="811" y="235" text-anchor="middle" font-size="10" font-weight="700" fill="#fff">2</text><rect x="957" y="211" width="467" height="17" rx="4" fill="#2b2d31" fill-opacity="0.92"/><text x="1190" y="223" text-anchor="middle" font-size="12.5" fill="#d4d7dd">Render<tspan fill="#9a9ea8">(target: main::DiagramTarget): Result&lt;void, main::CliError&gt;</tspan></text><path d="M1557,286 h34 a6 6 0 0 1 6 6 v8 a6 6 0 0 1 -6 6 h-34" fill="none" stroke="#d4d7dd" stroke-width="1.4" marker-end="url(#seqcall)"/><circle cx="1535" cy="286" r="8" fill="#ff5c38"/><text x="1535" y="289" text-anchor="middle" font-size="10" font-weight="700" fill="#fff">3</text><text x="1603" y="290" text-anchor="start" font-size="12.5" fill="#d4d7dd">theme</text><line x1="1557" y1="412" x2="2271" y2="412" stroke="#d4d7dd" stroke-width="1.4" marker-end="url(#seqcall)"/><circle cx="1535" cy="412" r="8" fill="#ff5c38"/><text x="1535" y="415" text-anchor="middle" font-size="10" font-weight="700" fill="#fff">4</text><rect x="1632" y="391" width="565" height="17" rx="4" fill="#2b2d31" fill-opacity="0.92"/><text x="1914" y="403" text-anchor="middle" font-size="12.5" fill="#d4d7dd">contextSvg<tspan fill="#9a9ea8">(workspaceDir: string, theme: string): Result&lt;string, main::CliError&gt;</tspan></text><line x1="2281" y1="466" x2="2995" y2="466" stroke="#d4d7dd" stroke-width="1.4" marker-end="url(#seqcall)"/><circle cx="2259" cy="466" r="8" fill="#ff5c38"/><text x="2259" y="469" text-anchor="middle" font-size="10" font-weight="700" fill="#fff">5</text><rect x="2345" y="445" width="586" height="17" rx="4" fill="#2b2d31" fill-opacity="0.92"/><text x="2638" y="457" text-anchor="middle" font-size="12.5" fill="#d4d7dd">svg<tspan fill="#9a9ea8">(workspaceDir: string, target: string, theme: string): Result&lt;string, CliError&gt;</tspan></text><line x1="2995" y1="520" x2="2281" y2="520" stroke="#9a9ea8" stroke-width="1.3" stroke-dasharray="5 3" marker-end="url(#seqret)"/><rect x="2517" y="499" width="243" height="17" rx="4" fill="#2b2d31" fill-opacity="0.92"/><text x="2638" y="511" text-anchor="middle" font-size="12.5" fill="#9a9ea8">↩ return<tspan fill="#9a9ea8"> Result&lt;string, CliError&gt;</tspan></text><line x1="2271" y1="574" x2="1557" y2="574" stroke="#9a9ea8" stroke-width="1.3" stroke-dasharray="5 3" marker-end="url(#seqret)"/><rect x="1772" y="553" width="285" height="17" rx="4" fill="#2b2d31" fill-opacity="0.92"/><text x="1914" y="565" text-anchor="middle" font-size="12.5" fill="#9a9ea8">↩ return<tspan fill="#9a9ea8"> Result&lt;string, main::CliError&gt;</tspan></text><line x1="1547" y1="674" x2="833" y2="674" stroke="#f0563b" stroke-width="1.3" stroke-dasharray="5 3" marker-end="url(#seqret)"/><rect x="1111" y="653" width="159" height="17" rx="4" fill="#2b2d31" fill-opacity="0.92"/><text x="1190" y="665" text-anchor="middle" font-size="12.5" fill="#f0563b">↩ Err<tspan fill="#9a9ea8">&lt;main::CliError&gt;</tspan></text><path d="M1557,770 h34 a6 6 0 0 1 6 6 v8 a6 6 0 0 1 -6 6 h-34" fill="none" stroke="#d4d7dd" stroke-width="1.4" marker-end="url(#seqcall)"/><circle cx="1535" cy="770" r="8" fill="#ff5c38"/><text x="1535" y="773" text-anchor="middle" font-size="10" font-weight="700" fill="#fff">6</text><text x="1603" y="774" text-anchor="start" font-size="12.5" fill="#d4d7dd">draw</text><line x1="1547" y1="850" x2="833" y2="850" stroke="#23c2ab" stroke-width="1.3" stroke-dasharray="5 3" marker-end="url(#seqret)"/><rect x="1149" y="829" width="82" height="17" rx="4" fill="#2b2d31" fill-opacity="0.92"/><text x="1190" y="841" text-anchor="middle" font-size="12.5" fill="#23c2ab">↩ Ok<tspan fill="#9a9ea8">&lt;void&gt;</tspan></text><line x1="1557" y1="980" x2="2271" y2="980" stroke="#d4d7dd" stroke-width="1.4" marker-end="url(#seqcall)"/><circle cx="1535" cy="980" r="8" fill="#ff5c38"/><text x="1535" y="983" text-anchor="middle" font-size="10" font-weight="700" fill="#fff">7</text><rect x="1590" y="959" width="649" height="17" rx="4" fill="#2b2d31" fill-opacity="0.92"/><text x="1914" y="971" text-anchor="middle" font-size="12.5" fill="#d4d7dd">symbolSvg<tspan fill="#9a9ea8">(workspaceDir: string, fqn: string, theme: string): Result&lt;string, main::CliError&gt;</tspan></text><line x1="2281" y1="1034" x2="2995" y2="1034" stroke="#d4d7dd" stroke-width="1.4" marker-end="url(#seqcall)"/><circle cx="2259" cy="1034" r="8" fill="#ff5c38"/><text x="2259" y="1037" text-anchor="middle" font-size="10" font-weight="700" fill="#fff">8</text><rect x="2345" y="1013" width="586" height="17" rx="4" fill="#2b2d31" fill-opacity="0.92"/><text x="2638" y="1025" text-anchor="middle" font-size="12.5" fill="#d4d7dd">svg<tspan fill="#9a9ea8">(workspaceDir: string, target: string, theme: string): Result&lt;string, CliError&gt;</tspan></text><line x1="2995" y1="1088" x2="2281" y2="1088" stroke="#9a9ea8" stroke-width="1.3" stroke-dasharray="5 3" marker-end="url(#seqret)"/><rect x="2517" y="1067" width="243" height="17" rx="4" fill="#2b2d31" fill-opacity="0.92"/><text x="2638" y="1079" text-anchor="middle" font-size="12.5" fill="#9a9ea8">↩ return<tspan fill="#9a9ea8"> Result&lt;string, CliError&gt;</tspan></text><line x1="2271" y1="1142" x2="1557" y2="1142" stroke="#9a9ea8" stroke-width="1.3" stroke-dasharray="5 3" marker-end="url(#seqret)"/><rect x="1772" y="1121" width="285" height="17" rx="4" fill="#2b2d31" fill-opacity="0.92"/><text x="1914" y="1133" text-anchor="middle" font-size="12.5" fill="#9a9ea8">↩ return<tspan fill="#9a9ea8"> Result&lt;string, main::CliError&gt;</tspan></text><line x1="1547" y1="1242" x2="833" y2="1242" stroke="#f0563b" stroke-width="1.3" stroke-dasharray="5 3" marker-end="url(#seqret)"/><rect x="1111" y="1221" width="159" height="17" rx="4" fill="#2b2d31" fill-opacity="0.92"/><text x="1190" y="1233" text-anchor="middle" font-size="12.5" fill="#f0563b">↩ Err<tspan fill="#9a9ea8">&lt;main::CliError&gt;</tspan></text><path d="M1557,1338 h34 a6 6 0 0 1 6 6 v8 a6 6 0 0 1 -6 6 h-34" fill="none" stroke="#d4d7dd" stroke-width="1.4" marker-end="url(#seqcall)"/><circle cx="1535" cy="1338" r="8" fill="#ff5c38"/><text x="1535" y="1341" text-anchor="middle" font-size="10" font-weight="700" fill="#fff">9</text><text x="1603" y="1342" text-anchor="start" font-size="12.5" fill="#d4d7dd">draw</text><line x1="1547" y1="1418" x2="833" y2="1418" stroke="#23c2ab" stroke-width="1.3" stroke-dasharray="5 3" marker-end="url(#seqret)"/><rect x="1149" y="1397" width="82" height="17" rx="4" fill="#2b2d31" fill-opacity="0.92"/><text x="1190" y="1409" text-anchor="middle" font-size="12.5" fill="#23c2ab">↩ Ok<tspan fill="#9a9ea8">&lt;void&gt;</tspan></text><line x1="833" y1="1540" x2="3719" y2="1540" stroke="#d4d7dd" stroke-width="1.4" marker-end="url(#seqcall)"/><circle cx="811" cy="1540" r="8" fill="#ff5c38"/><text x="811" y="1543" text-anchor="middle" font-size="10" font-weight="700" fill="#fff">10</text><rect x="2186" y="1519" width="180" height="17" rx="4" fill="#2b2d31" fill-opacity="0.92"/><text x="2276" y="1531" text-anchor="middle" font-size="12.5" fill="#d4d7dd">openEditor<tspan fill="#9a9ea8">(file: string)</tspan></text><line x1="3719" y1="1594" x2="833" y2="1594" stroke="#9a9ea8" stroke-width="1.3" stroke-dasharray="5 3" marker-end="url(#seqret)"/><rect x="2242" y="1573" width="68" height="17" rx="4" fill="#2b2d31" fill-opacity="0.92"/><text x="2276" y="1585" text-anchor="middle" font-size="12.5" fill="#9a9ea8">↩ return</text></g></svg>