<svg xmlns="http://www.w3.org/2000/svg" viewBox="0 0 3478 3636" width="3478" height="3636" font-family="sans-serif" font-size="13"><defs><marker id="arrow" markerWidth="10" markerHeight="10" refX="9" refY="3" orient="auto" markerUnits="strokeWidth"><path d="M0,0 L9,3 L0,6 z" fill="#b7bbc3"/></marker></defs><g font-family="Helvetica, Arial, sans-serif"><defs><marker id="seqcall" markerWidth="11" markerHeight="11" refX="9" refY="3.5" orient="auto" markerUnits="userSpaceOnUse"><path d="M0,0 L10,3.5 L0,7 z" fill="#d4d7dd"/></marker><marker id="seqret" markerWidth="12" markerHeight="12" refX="9" refY="4" orient="auto" markerUnits="userSpaceOnUse"><path d="M0,0 L10,4 M0,8 L10,4" fill="none" stroke="#9a9ea8" stroke-width="1.3"/></marker></defs><text x="20" y="22" font-size="10" letter-spacing="2" fill="#9a9ea8">SEQUENCE</text><text x="20" y="44" font-size="17" font-weight="700" fill="#d4d7dd">OpenDiagram</text><rect x="2048" y="1016" width="736" height="290" rx="4" fill="#d4d7dd" fill-opacity="0.015" stroke="#565a62"/><path d="M2048,1016 h42 l-8,16 h-34 z" fill="#565a62" fill-opacity="0.5" stroke="#565a62"/><text x="2056" y="1031" font-size="11" font-weight="700" fill="#d4d7dd">alt</text><text x="2098" y="1031" font-size="11" fill="#9a9ea8">[ctx.isErr]</text><line x1="2048" y1="1128" x2="2784" y2="1128" stroke="#565a62" stroke-dasharray="5 3"/><text x="2056" y="1142" font-size="11" font-weight="700" fill="#9a9ea8">[else]</text><rect x="2048" y="1584" width="736" height="290" rx="4" fill="#d4d7dd" fill-opacity="0.015" stroke="#565a62"/><path d="M2048,1584 h42 l-8,16 h-34 z" fill="#565a62" fill-opacity="0.5" stroke="#565a62"/><text x="2056" y="1599" font-size="11" font-weight="700" fill="#d4d7dd">alt</text><text x="2098" y="1599" font-size="11" fill="#9a9ea8">[svg.isErr]</text><line x1="2048" y1="1696" x2="2784" y2="1696" stroke="#565a62" stroke-dasharray="5 3"/><text x="2056" y="1710" font-size="11" font-weight="700" fill="#9a9ea8">[else]</text><rect x="740" y="754" width="2044" height="1154" rx="4" fill="#d4d7dd" fill-opacity="0.015" stroke="#565a62"/><path d="M740,754 h42 l-8,16 h-34 z" fill="#565a62" fill-opacity="0.5" stroke="#565a62"/><text x="748" y="769" font-size="11" font-weight="700" fill="#d4d7dd">alt</text><text x="790" y="769" font-size="11" fill="#9a9ea8">[fqn.isNone]</text><line x1="740" y1="1338" x2="2784" y2="1338" stroke="#565a62" stroke-dasharray="5 3"/><text x="748" y="1352" font-size="11" font-weight="700" fill="#9a9ea8">[else]</text><rect x="2048" y="2528" width="736" height="290" rx="4" fill="#d4d7dd" fill-opacity="0.015" stroke="#565a62"/><path d="M2048,2528 h42 l-8,16 h-34 z" fill="#565a62" fill-opacity="0.5" stroke="#565a62"/><text x="2056" y="2543" font-size="11" font-weight="700" fill="#d4d7dd">alt</text><text x="2098" y="2543" font-size="11" fill="#9a9ea8">[ctx.isErr]</text><line x1="2048" y1="2640" x2="2784" y2="2640" stroke="#565a62" stroke-dasharray="5 3"/><text x="2056" y="2654" font-size="11" font-weight="700" fill="#9a9ea8">[else]</text><rect x="2048" y="3096" width="736" height="290" rx="4" fill="#d4d7dd" fill-opacity="0.015" stroke="#565a62"/><path d="M2048,3096 h42 l-8,16 h-34 z" fill="#565a62" fill-opacity="0.5" stroke="#565a62"/><text x="2056" y="3111" font-size="11" font-weight="700" fill="#d4d7dd">alt</text><text x="2098" y="3111" font-size="11" fill="#9a9ea8">[svg.isErr]</text><line x1="2048" y1="3208" x2="2784" y2="3208" stroke="#565a62" stroke-dasharray="5 3"/><text x="2056" y="3222" font-size="11" font-weight="700" fill="#9a9ea8">[else]</text><rect x="740" y="2266" width="2044" height="1154" rx="4" fill="#d4d7dd" fill-opacity="0.015" stroke="#565a62"/><path d="M740,2266 h42 l-8,16 h-34 z" fill="#565a62" fill-opacity="0.5" stroke="#565a62"/><text x="748" y="2281" font-size="11" font-weight="700" fill="#d4d7dd">alt</text><text x="790" y="2281" font-size="11" fill="#9a9ea8">[fqn.isNone]</text><line x1="740" y1="2850" x2="2784" y2="2850" stroke="#565a62" stroke-dasharray="5 3"/><text x="748" y="2864" font-size="11" font-weight="700" fill="#9a9ea8">[else]</text><rect x="86" y="520" width="3306" height="3042" rx="4" fill="#d4d7dd" fill-opacity="0.015" stroke="#565a62"/><path d="M86,520 h42 l-8,16 h-34 z" fill="#565a62" fill-opacity="0.5" stroke="#565a62"/><text x="94" y="535" font-size="11" font-weight="700" fill="#d4d7dd">alt</text><text x="136" y="535" font-size="11" fill="#9a9ea8">[found.isNone]</text><line x1="86" y1="2048" x2="3392" y2="2048" stroke="#565a62" stroke-dasharray="5 3"/><text x="94" y="2062" font-size="11" font-weight="700" fill="#9a9ea8">[else]</text><rect x="86" y="394" width="3306" height="3202" rx="4" fill="#d4d7dd" fill-opacity="0.015" stroke="#565a62"/><path d="M86,394 h42 l-8,16 h-34 z" fill="#565a62" fill-opacity="0.5" stroke="#565a62"/><text x="94" y="409" font-size="11" font-weight="700" fill="#d4d7dd">alt</text><text x="136" y="409" font-size="11" fill="#9a9ea8">[else outline.isErr]</text><rect x="99" y="172" width="10" height="1912" rx="2" fill="#ff5c38" fill-opacity="0.10" stroke="#ff5c38" stroke-opacity="0.5"/><rect x="753" y="172" width="10" height="2876" rx="2" fill="#3b3e45" fill-opacity="1" stroke="#44474e" stroke-opacity="1"/><rect x="1407" y="226" width="10" height="2768" rx="2" fill="#3b3e45" fill-opacity="1" stroke="#44474e" stroke-opacity="1"/><rect x="2061" y="560" width="10" height="2940" rx="2" fill="#3b3e45" fill-opacity="1" stroke="#44474e" stroke-opacity="1"/><rect x="2715" y="614" width="10" height="2710" rx="2" fill="#3b3e45" fill-opacity="1" stroke="#44474e" stroke-opacity="1"/><rect x="3369" y="1922" width="10" height="1578" rx="2" fill="#3b3e45" fill-opacity="1" stroke="#44474e" stroke-opacity="1"/><rect x="20" y="64" width="168" height="60" rx="8" fill="#c77f10" filter="url(#cardlift)"/><path d="M25,64 H180 A8,8 0 0 1 188,72 V116 A8,8 0 0 1 180,124 H25 Z" fill="#2b2d31"/><rect x="20" y="64" width="168" height="60" rx="8" fill="none" stroke="#44474e"/><text x="39" y="84" font-size="10" letter-spacing="1.5" font-weight="600" fill="#c77f10">COMPONENT</text><text x="39" y="104" font-size="15" font-weight="700" fill="#d4d7dd">DiagramAction</text><line x1="104" y1="124" x2="104" y2="3616" stroke="#44474e" stroke-dasharray="2 4"/><rect x="674" y="64" width="168" height="60" rx="8" fill="#c77f10" filter="url(#cardlift)"/><path d="M679,64 H834 A8,8 0 0 1 842,72 V116 A8,8 0 0 1 834,124 H679 Z" fill="#2b2d31"/><rect x="674" y="64" width="168" height="60" rx="8" fill="none" stroke="#44474e"/><text x="693" y="84" font-size="10" letter-spacing="1.5" font-weight="600" fill="#c77f10">COMPONENT</text><text x="693" y="104" font-size="15" font-weight="700" fill="#d4d7dd">Cli</text><line x1="758" y1="124" x2="758" y2="3616" stroke="#44474e" stroke-dasharray="2 4"/><rect x="1328" y="64" width="168" height="60" rx="8" fill="#e23b2e" filter="url(#cardlift)"/><path d="M1333,64 H1488 A8,8 0 0 1 1496,72 V116 A8,8 0 0 1 1488,124 H1333 Z" fill="#2b2d31"/><rect x="1328" y="64" width="168" height="60" rx="8" fill="none" stroke="#44474e"/><text x="1347" y="84" font-size="10" letter-spacing="1.5" font-weight="600" fill="#e23b2e">SYSTEM</text><text x="1347" y="104" font-size="15" font-weight="700" fill="#d4d7dd">Pds</text><line x1="1412" y1="124" x2="1412" y2="3616" stroke="#44474e" stroke-dasharray="2 4"/><rect x="1982" y="64" width="168" height="60" rx="8" fill="#c77f10" filter="url(#cardlift)"/><path d="M1987,64 H2142 A8,8 0 0 1 2150,72 V116 A8,8 0 0 1 2142,124 H1987 Z" fill="#2b2d31"/><rect x="1982" y="64" width="168" height="60" rx="8" fill="none" stroke="#44474e"/><text x="2001" y="84" font-size="10" letter-spacing="1.5" font-weight="600" fill="#c77f10">COMPONENT</text><text x="2001" y="104" font-size="15" font-weight="700" fill="#d4d7dd">DiagramService</text><line x1="2066" y1="124" x2="2066" y2="3616" stroke="#44474e" stroke-dasharray="2 4"/><rect x="2636" y="64" width="168" height="60" rx="8" fill="#c77f10" filter="url(#cardlift)"/><path d="M2641,64 H2796 A8,8 0 0 1 2804,72 V116 A8,8 0 0 1 2796,124 H2641 Z" fill="#2b2d31"/><rect x="2636" y="64" width="168" height="60" rx="8" fill="none" stroke="#44474e"/><text x="2655" y="84" font-size="10" letter-spacing="1.5" font-weight="600" fill="#c77f10">COMPONENT</text><text x="2655" y="104" font-size="15" font-weight="700" fill="#d4d7dd">DiagramEditor</text><line x1="2720" y1="124" x2="2720" y2="3616" stroke="#44474e" stroke-dasharray="2 4"/><rect x="3290" y="64" width="168" height="60" rx="8" fill="#e23b2e" filter="url(#cardlift)"/><path d="M3295,64 H3450 A8,8 0 0 1 3458,72 V116 A8,8 0 0 1 3450,124 H3295 Z" fill="#2b2d31"/><rect x="3290" y="64" width="168" height="60" rx="8" fill="none" stroke="#44474e"/><text x="3309" y="84" font-size="10" letter-spacing="1.5" font-weight="600" fill="#e23b2e">SYSTEM</text><text x="3309" y="104" font-size="15" font-weight="700" fill="#d4d7dd">Intellij</text><line x1="3374" y1="124" x2="3374" y2="3616" stroke="#44474e" stroke-dasharray="2 4"/><line x1="109" y1="178" x2="753" y2="178" stroke="#d4d7dd" stroke-width="1.4" marker-end="url(#seqcall)"/><circle cx="87" cy="178" r="8" fill="#ff5c38"/><text x="87" y="181" text-anchor="middle" font-size="10" font-weight="700" fill="#fff">1</text><rect x="156" y="157" width="551" height="17" rx="4" fill="#2b2d31" fill-opacity="0.92"/><text x="431" y="169" text-anchor="middle" font-size="12.5" fill="#d4d7dd">outline<tspan fill="#9a9ea8">(workspaceDir: string): Result&lt;main::PdsOutlineNode[], main::CliError&gt;</tspan></text><line x1="763" y1="232" x2="1407" y2="232" stroke="#d4d7dd" stroke-width="1.4" marker-end="url(#seqcall)"/><circle cx="741" cy="232" r="8" fill="#ff5c38"/><text x="741" y="235" text-anchor="middle" font-size="10" font-weight="700" fill="#fff">2</text><rect x="852" y="211" width="467" height="17" rx="4" fill="#2b2d31" fill-opacity="0.92"/><text x="1085" y="223" text-anchor="middle" font-size="12.5" fill="#d4d7dd">outline<tspan fill="#9a9ea8">(workspaceDir: string): Result&lt;PdsOutlineNode[], CliError&gt;</tspan></text><line x1="1407" y1="286" x2="763" y2="286" stroke="#9a9ea8" stroke-width="1.3" stroke-dasharray="5 3" marker-end="url(#seqret)"/><rect x="929" y="265" width="313" height="17" rx="4" fill="#2b2d31" fill-opacity="0.92"/><text x="1085" y="277" text-anchor="middle" font-size="12.5" fill="#9a9ea8">↩ return<tspan fill="#9a9ea8"> Result&lt;PdsOutlineNode[], CliError&gt;</tspan></text><line x1="753" y1="340" x2="109" y2="340" stroke="#9a9ea8" stroke-width="1.3" stroke-dasharray="5 3" marker-end="url(#seqret)"/><rect x="233" y="319" width="397" height="17" rx="4" fill="#2b2d31" fill-opacity="0.92"/><text x="431" y="331" text-anchor="middle" font-size="12.5" fill="#9a9ea8">↩ return<tspan fill="#9a9ea8"> Result&lt;main::PdsOutlineNode[], main::CliError&gt;</tspan></text><path d="M109,440 h34 a6 6 0 0 1 6 6 v8 a6 6 0 0 1 -6 6 h-34" fill="none" stroke="#d4d7dd" stroke-width="1.4" marker-end="url(#seqcall)"/><circle cx="87" cy="440" r="8" fill="#ff5c38"/><text x="87" y="443" text-anchor="middle" font-size="10" font-weight="700" fill="#fff">3</text><text x="155" y="444" text-anchor="start" font-size="12.5" fill="#d4d7dd">resolveTarget</text><line x1="109" y1="566" x2="2061" y2="566" stroke="#d4d7dd" stroke-width="1.4" marker-end="url(#seqcall)"/><circle cx="87" cy="566" r="8" fill="#ff5c38"/><text x="87" y="569" text-anchor="middle" font-size="10" font-weight="700" fill="#fff">4</text><rect x="964" y="545" width="243" height="17" rx="4" fill="#2b2d31" fill-opacity="0.92"/><text x="1085" y="557" text-anchor="middle" font-size="12.5" fill="#d4d7dd">show<tspan fill="#9a9ea8">(target: main::DiagramTarget)</tspan></text><line x1="2071" y1="620" x2="2715" y2="620" stroke="#d4d7dd" stroke-width="1.4" marker-end="url(#seqcall)"/><circle cx="2049" cy="620" r="8" fill="#ff5c38"/><text x="2049" y="623" text-anchor="middle" font-size="10" font-weight="700" fill="#fff">5</text><rect x="2160" y="599" width="467" height="17" rx="4" fill="#2b2d31" fill-opacity="0.92"/><text x="2393" y="611" text-anchor="middle" font-size="12.5" fill="#d4d7dd">Render<tspan fill="#9a9ea8">(target: main::DiagramTarget): Result&lt;void, main::CliError&gt;</tspan></text><path d="M2725,674 h34 a6 6 0 0 1 6 6 v8 a6 6 0 0 1 -6 6 h-34" fill="none" stroke="#d4d7dd" stroke-width="1.4" marker-end="url(#seqcall)"/><circle cx="2703" cy="674" r="8" fill="#ff5c38"/><text x="2703" y="677" text-anchor="middle" font-size="10" font-weight="700" fill="#fff">6</text><text x="2771" y="678" text-anchor="start" font-size="12.5" fill="#d4d7dd">theme</text><line x1="2715" y1="800" x2="763" y2="800" stroke="#d4d7dd" stroke-width="1.4" marker-end="url(#seqcall)"/><circle cx="2703" cy="800" r="8" fill="#ff5c38"/><text x="2703" y="803" text-anchor="middle" font-size="10" font-weight="700" fill="#fff">7</text><rect x="1457" y="779" width="565" height="17" rx="4" fill="#2b2d31" fill-opacity="0.92"/><text x="1739" y="791" text-anchor="middle" font-size="12.5" fill="#d4d7dd">contextSvg<tspan fill="#9a9ea8">(workspaceDir: string, theme: string): Result&lt;string, main::CliError&gt;</tspan></text><line x1="763" y1="854" x2="1407" y2="854" stroke="#d4d7dd" stroke-width="1.4" marker-end="url(#seqcall)"/><circle cx="741" cy="854" r="8" fill="#ff5c38"/><text x="741" y="857" text-anchor="middle" font-size="10" font-weight="700" fill="#fff">8</text><rect x="792" y="833" width="586" height="17" rx="4" fill="#2b2d31" fill-opacity="0.92"/><text x="1085" y="845" text-anchor="middle" font-size="12.5" fill="#d4d7dd">svg<tspan fill="#9a9ea8">(workspaceDir: string, target: string, theme: string): Result&lt;string, CliError&gt;</tspan></text><line x1="1407" y1="908" x2="763" y2="908" stroke="#9a9ea8" stroke-width="1.3" stroke-dasharray="5 3" marker-end="url(#seqret)"/><rect x="964" y="887" width="243" height="17" rx="4" fill="#2b2d31" fill-opacity="0.92"/><text x="1085" y="899" text-anchor="middle" font-size="12.5" fill="#9a9ea8">↩ return<tspan fill="#9a9ea8"> Result&lt;string, CliError&gt;</tspan></text><line x1="763" y1="962" x2="2715" y2="962" stroke="#9a9ea8" stroke-width="1.3" stroke-dasharray="5 3" marker-end="url(#seqret)"/><rect x="1597" y="941" width="285" height="17" rx="4" fill="#2b2d31" fill-opacity="0.92"/><text x="1739" y="953" text-anchor="middle" font-size="12.5" fill="#9a9ea8">↩ return<tspan fill="#9a9ea8"> Result&lt;string, main::CliError&gt;</tspan></text><line x1="2715" y1="1062" x2="2071" y2="1062" stroke="#f0563b" stroke-width="1.3" stroke-dasharray="5 3" marker-end="url(#seqret)"/><rect x="2314" y="1041" width="159" height="17" rx="4" fill="#2b2d31" fill-opacity="0.92"/><text x="2393" y="1053" text-anchor="middle" font-size="12.5" fill="#f0563b">↩ Err<tspan fill="#9a9ea8">&lt;main::CliError&gt;</tspan></text><path d="M2725,1158 h34 a6 6 0 0 1 6 6 v8 a6 6 0 0 1 -6 6 h-34" fill="none" stroke="#d4d7dd" stroke-width="1.4" marker-end="url(#seqcall)"/><circle cx="2703" cy="1158" r="8" fill="#ff5c38"/><text x="2703" y="1161" text-anchor="middle" font-size="10" font-weight="700" fill="#fff">9</text><text x="2771" y="1162" text-anchor="start" font-size="12.5" fill="#d4d7dd">draw</text><line x1="2715" y1="1238" x2="2071" y2="1238" stroke="#23c2ab" stroke-width="1.3" stroke-dasharray="5 3" marker-end="url(#seqret)"/><rect x="2352" y="1217" width="82" height="17" rx="4" fill="#2b2d31" fill-opacity="0.92"/><text x="2393" y="1229" text-anchor="middle" font-size="12.5" fill="#23c2ab">↩ Ok<tspan fill="#9a9ea8">&lt;void&gt;</tspan></text><line x1="2715" y1="1368" x2="763" y2="1368" stroke="#d4d7dd" stroke-width="1.4" marker-end="url(#seqcall)"/><circle cx="2703" cy="1368" r="8" fill="#ff5c38"/><text x="2703" y="1371" text-anchor="middle" font-size="10" font-weight="700" fill="#fff">10</text><rect x="1415" y="1347" width="649" height="17" rx="4" fill="#2b2d31" fill-opacity="0.92"/><text x="1739" y="1359" text-anchor="middle" font-size="12.5" fill="#d4d7dd">symbolSvg<tspan fill="#9a9ea8">(workspaceDir: string, fqn: string, theme: string): Result&lt;string, main::CliError&gt;</tspan></text><line x1="763" y1="1422" x2="1407" y2="1422" stroke="#d4d7dd" stroke-width="1.4" marker-end="url(#seqcall)"/><circle cx="741" cy="1422" r="8" fill="#ff5c38"/><text x="741" y="1425" text-anchor="middle" font-size="10" font-weight="700" fill="#fff">11</text><rect x="792" y="1401" width="586" height="17" rx="4" fill="#2b2d31" fill-opacity="0.92"/><text x="1085" y="1413" text-anchor="middle" font-size="12.5" fill="#d4d7dd">svg<tspan fill="#9a9ea8">(workspaceDir: string, target: string, theme: string): Result&lt;string, CliError&gt;</tspan></text><line x1="1407" y1="1476" x2="763" y2="1476" stroke="#9a9ea8" stroke-width="1.3" stroke-dasharray="5 3" marker-end="url(#seqret)"/><rect x="964" y="1455" width="243" height="17" rx="4" fill="#2b2d31" fill-opacity="0.92"/><text x="1085" y="1467" text-anchor="middle" font-size="12.5" fill="#9a9ea8">↩ return<tspan fill="#9a9ea8"> Result&lt;string, CliError&gt;</tspan></text><line x1="763" y1="1530" x2="2715" y2="1530" stroke="#9a9ea8" stroke-width="1.3" stroke-dasharray="5 3" marker-end="url(#seqret)"/><rect x="1597" y="1509" width="285" height="17" rx="4" fill="#2b2d31" fill-opacity="0.92"/><text x="1739" y="1521" text-anchor="middle" font-size="12.5" fill="#9a9ea8">↩ return<tspan fill="#9a9ea8"> Result&lt;string, main::CliError&gt;</tspan></text><line x1="2715" y1="1630" x2="2071" y2="1630" stroke="#f0563b" stroke-width="1.3" stroke-dasharray="5 3" marker-end="url(#seqret)"/><rect x="2314" y="1609" width="159" height="17" rx="4" fill="#2b2d31" fill-opacity="0.92"/><text x="2393" y="1621" text-anchor="middle" font-size="12.5" fill="#f0563b">↩ Err<tspan fill="#9a9ea8">&lt;main::CliError&gt;</tspan></text><path d="M2725,1726 h34 a6 6 0 0 1 6 6 v8 a6 6 0 0 1 -6 6 h-34" fill="none" stroke="#d4d7dd" stroke-width="1.4" marker-end="url(#seqcall)"/><circle cx="2703" cy="1726" r="8" fill="#ff5c38"/><text x="2703" y="1729" text-anchor="middle" font-size="10" font-weight="700" fill="#fff">12</text><text x="2771" y="1730" text-anchor="start" font-size="12.5" fill="#d4d7dd">draw</text><line x1="2715" y1="1806" x2="2071" y2="1806" stroke="#23c2ab" stroke-width="1.3" stroke-dasharray="5 3" marker-end="url(#seqret)"/><rect x="2352" y="1785" width="82" height="17" rx="4" fill="#2b2d31" fill-opacity="0.92"/><text x="2393" y="1797" text-anchor="middle" font-size="12.5" fill="#23c2ab">↩ Ok<tspan fill="#9a9ea8">&lt;void&gt;</tspan></text><line x1="2071" y1="1928" x2="3369" y2="1928" stroke="#d4d7dd" stroke-width="1.4" marker-end="url(#seqcall)"/><circle cx="2049" cy="1928" r="8" fill="#ff5c38"/><text x="2049" y="1931" text-anchor="middle" font-size="10" font-weight="700" fill="#fff">13</text><rect x="2630" y="1907" width="180" height="17" rx="4" fill="#2b2d31" fill-opacity="0.92"/><text x="2720" y="1919" text-anchor="middle" font-size="12.5" fill="#d4d7dd">openEditor<tspan fill="#9a9ea8">(file: string)</tspan></text><line x1="3369" y1="1982" x2="2071" y2="1982" stroke="#9a9ea8" stroke-width="1.3" stroke-dasharray="5 3" marker-end="url(#seqret)"/><rect x="2686" y="1961" width="68" height="17" rx="4" fill="#2b2d31" fill-opacity="0.92"/><text x="2720" y="1973" text-anchor="middle" font-size="12.5" fill="#9a9ea8">↩ return</text><line x1="109" y1="2078" x2="2061" y2="2078" stroke="#d4d7dd" stroke-width="1.4" marker-end="url(#seqcall)"/><circle cx="87" cy="2078" r="8" fill="#ff5c38"/><text x="87" y="2081" text-anchor="middle" font-size="10" font-weight="700" fill="#fff">14</text><rect x="964" y="2057" width="243" height="17" rx="4" fill="#2b2d31" fill-opacity="0.92"/><text x="1085" y="2069" text-anchor="middle" font-size="12.5" fill="#d4d7dd">show<tspan fill="#9a9ea8">(target: main::DiagramTarget)</tspan></text><line x1="2071" y1="2132" x2="2715" y2="2132" stroke="#d4d7dd" stroke-width="1.4" marker-end="url(#seqcall)"/><circle cx="2049" cy="2132" r="8" fill="#ff5c38"/><text x="2049" y="2135" text-anchor="middle" font-size="10" font-weight="700" fill="#fff">15</text><rect x="2160" y="2111" width="467" height="17" rx="4" fill="#2b2d31" fill-opacity="0.92"/><text x="2393" y="2123" text-anchor="middle" font-size="12.5" fill="#d4d7dd">Render<tspan fill="#9a9ea8">(target: main::DiagramTarget): Result&lt;void, main::CliError&gt;</tspan></text><path d="M2725,2186 h34 a6 6 0 0 1 6 6 v8 a6 6 0 0 1 -6 6 h-34" fill="none" stroke="#d4d7dd" stroke-width="1.4" marker-end="url(#seqcall)"/><circle cx="2703" cy="2186" r="8" fill="#ff5c38"/><text x="2703" y="2189" text-anchor="middle" font-size="10" font-weight="700" fill="#fff">16</text><text x="2771" y="2190" text-anchor="start" font-size="12.5" fill="#d4d7dd">theme</text><line x1="2715" y1="2312" x2="763" y2="2312" stroke="#d4d7dd" stroke-width="1.4" marker-end="url(#seqcall)"/><circle cx="2703" cy="2312" r="8" fill="#ff5c38"/><text x="2703" y="2315" text-anchor="middle" font-size="10" font-weight="700" fill="#fff">17</text><rect x="1457" y="2291" width="565" height="17" rx="4" fill="#2b2d31" fill-opacity="0.92"/><text x="1739" y="2303" text-anchor="middle" font-size="12.5" fill="#d4d7dd">contextSvg<tspan fill="#9a9ea8">(workspaceDir: string, theme: string): Result&lt;string, main::CliError&gt;</tspan></text><line x1="763" y1="2366" x2="1407" y2="2366" stroke="#d4d7dd" stroke-width="1.4" marker-end="url(#seqcall)"/><circle cx="741" cy="2366" r="8" fill="#ff5c38"/><text x="741" y="2369" text-anchor="middle" font-size="10" font-weight="700" fill="#fff">18</text><rect x="792" y="2345" width="586" height="17" rx="4" fill="#2b2d31" fill-opacity="0.92"/><text x="1085" y="2357" text-anchor="middle" font-size="12.5" fill="#d4d7dd">svg<tspan fill="#9a9ea8">(workspaceDir: string, target: string, theme: string): Result&lt;string, CliError&gt;</tspan></text><line x1="1407" y1="2420" x2="763" y2="2420" stroke="#9a9ea8" stroke-width="1.3" stroke-dasharray="5 3" marker-end="url(#seqret)"/><rect x="964" y="2399" width="243" height="17" rx="4" fill="#2b2d31" fill-opacity="0.92"/><text x="1085" y="2411" text-anchor="middle" font-size="12.5" fill="#9a9ea8">↩ return<tspan fill="#9a9ea8"> Result&lt;string, CliError&gt;</tspan></text><line x1="763" y1="2474" x2="2715" y2="2474" stroke="#9a9ea8" stroke-width="1.3" stroke-dasharray="5 3" marker-end="url(#seqret)"/><rect x="1597" y="2453" width="285" height="17" rx="4" fill="#2b2d31" fill-opacity="0.92"/><text x="1739" y="2465" text-anchor="middle" font-size="12.5" fill="#9a9ea8">↩ return<tspan fill="#9a9ea8"> Result&lt;string, main::CliError&gt;</tspan></text><line x1="2715" y1="2574" x2="2071" y2="2574" stroke="#f0563b" stroke-width="1.3" stroke-dasharray="5 3" marker-end="url(#seqret)"/><rect x="2314" y="2553" width="159" height="17" rx="4" fill="#2b2d31" fill-opacity="0.92"/><text x="2393" y="2565" text-anchor="middle" font-size="12.5" fill="#f0563b">↩ Err<tspan fill="#9a9ea8">&lt;main::CliError&gt;</tspan></text><path d="M2725,2670 h34 a6 6 0 0 1 6 6 v8 a6 6 0 0 1 -6 6 h-34" fill="none" stroke="#d4d7dd" stroke-width="1.4" marker-end="url(#seqcall)"/><circle cx="2703" cy="2670" r="8" fill="#ff5c38"/><text x="2703" y="2673" text-anchor="middle" font-size="10" font-weight="700" fill="#fff">19</text><text x="2771" y="2674" text-anchor="start" font-size="12.5" fill="#d4d7dd">draw</text><line x1="2715" y1="2750" x2="2071" y2="2750" stroke="#23c2ab" stroke-width="1.3" stroke-dasharray="5 3" marker-end="url(#seqret)"/><rect x="2352" y="2729" width="82" height="17" rx="4" fill="#2b2d31" fill-opacity="0.92"/><text x="2393" y="2741" text-anchor="middle" font-size="12.5" fill="#23c2ab">↩ Ok<tspan fill="#9a9ea8">&lt;void&gt;</tspan></text><line x1="2715" y1="2880" x2="763" y2="2880" stroke="#d4d7dd" stroke-width="1.4" marker-end="url(#seqcall)"/><circle cx="2703" cy="2880" r="8" fill="#ff5c38"/><text x="2703" y="2883" text-anchor="middle" font-size="10" font-weight="700" fill="#fff">20</text><rect x="1415" y="2859" width="649" height="17" rx="4" fill="#2b2d31" fill-opacity="0.92"/><text x="1739" y="2871" text-anchor="middle" font-size="12.5" fill="#d4d7dd">symbolSvg<tspan fill="#9a9ea8">(workspaceDir: string, fqn: string, theme: string): Result&lt;string, main::CliError&gt;</tspan></text><line x1="763" y1="2934" x2="1407" y2="2934" stroke="#d4d7dd" stroke-width="1.4" marker-end="url(#seqcall)"/><circle cx="741" cy="2934" r="8" fill="#ff5c38"/><text x="741" y="2937" text-anchor="middle" font-size="10" font-weight="700" fill="#fff">21</text><rect x="792" y="2913" width="586" height="17" rx="4" fill="#2b2d31" fill-opacity="0.92"/><text x="1085" y="2925" text-anchor="middle" font-size="12.5" fill="#d4d7dd">svg<tspan fill="#9a9ea8">(workspaceDir: string, target: string, theme: string): Result&lt;string, CliError&gt;</tspan></text><line x1="1407" y1="2988" x2="763" y2="2988" stroke="#9a9ea8" stroke-width="1.3" stroke-dasharray="5 3" marker-end="url(#seqret)"/><rect x="964" y="2967" width="243" height="17" rx="4" fill="#2b2d31" fill-opacity="0.92"/><text x="1085" y="2979" text-anchor="middle" font-size="12.5" fill="#9a9ea8">↩ return<tspan fill="#9a9ea8"> Result&lt;string, CliError&gt;</tspan></text><line x1="763" y1="3042" x2="2715" y2="3042" stroke="#9a9ea8" stroke-width="1.3" stroke-dasharray="5 3" marker-end="url(#seqret)"/><rect x="1597" y="3021" width="285" height="17" rx="4" fill="#2b2d31" fill-opacity="0.92"/><text x="1739" y="3033" text-anchor="middle" font-size="12.5" fill="#9a9ea8">↩ return<tspan fill="#9a9ea8"> Result&lt;string, main::CliError&gt;</tspan></text><line x1="2715" y1="3142" x2="2071" y2="3142" stroke="#f0563b" stroke-width="1.3" stroke-dasharray="5 3" marker-end="url(#seqret)"/><rect x="2314" y="3121" width="159" height="17" rx="4" fill="#2b2d31" fill-opacity="0.92"/><text x="2393" y="3133" text-anchor="middle" font-size="12.5" fill="#f0563b">↩ Err<tspan fill="#9a9ea8">&lt;main::CliError&gt;</tspan></text><path d="M2725,3238 h34 a6 6 0 0 1 6 6 v8 a6 6 0 0 1 -6 6 h-34" fill="none" stroke="#d4d7dd" stroke-width="1.4" marker-end="url(#seqcall)"/><circle cx="2703" cy="3238" r="8" fill="#ff5c38"/><text x="2703" y="3241" text-anchor="middle" font-size="10" font-weight="700" fill="#fff">22</text><text x="2771" y="3242" text-anchor="start" font-size="12.5" fill="#d4d7dd">draw</text><line x1="2715" y1="3318" x2="2071" y2="3318" stroke="#23c2ab" stroke-width="1.3" stroke-dasharray="5 3" marker-end="url(#seqret)"/><rect x="2352" y="3297" width="82" height="17" rx="4" fill="#2b2d31" fill-opacity="0.92"/><text x="2393" y="3309" text-anchor="middle" font-size="12.5" fill="#23c2ab">↩ Ok<tspan fill="#9a9ea8">&lt;void&gt;</tspan></text><line x1="2071" y1="3440" x2="3369" y2="3440" stroke="#d4d7dd" stroke-width="1.4" marker-end="url(#seqcall)"/><circle cx="2049" cy="3440" r="8" fill="#ff5c38"/><text x="2049" y="3443" text-anchor="middle" font-size="10" font-weight="700" fill="#fff">23</text><rect x="2630" y="3419" width="180" height="17" rx="4" fill="#2b2d31" fill-opacity="0.92"/><text x="2720" y="3431" text-anchor="middle" font-size="12.5" fill="#d4d7dd">openEditor<tspan fill="#9a9ea8">(file: string)</tspan></text><line x1="3369" y1="3494" x2="2071" y2="3494" stroke="#9a9ea8" stroke-width="1.3" stroke-dasharray="5 3" marker-end="url(#seqret)"/><rect x="2686" y="3473" width="68" height="17" rx="4" fill="#2b2d31" fill-opacity="0.92"/><text x="2720" y="3485" text-anchor="middle" font-size="12.5" fill="#9a9ea8">↩ return</text></g></svg>