<svg xmlns="http://www.w3.org/2000/svg" viewBox="0 0 2084 905" width="2084" height="905" font-family="sans-serif" font-size="13"><defs><marker id="arrow" markerWidth="10" markerHeight="10" refX="9" refY="3" orient="auto" markerUnits="strokeWidth"><path d="M0,0 L9,3 L0,6 z" fill="#b7bbc3"/></marker></defs><g font-family="Helvetica, Arial, sans-serif"><defs><marker id="seqcall" markerWidth="11" markerHeight="11" refX="9" refY="3.5" orient="auto" markerUnits="userSpaceOnUse"><path d="M0,0 L10,3.5 L0,7 z" fill="#d4d7dd"/></marker><marker id="seqret" markerWidth="12" markerHeight="12" refX="9" refY="4" orient="auto" markerUnits="userSpaceOnUse"><path d="M0,0 L10,4 M0,8 L10,4" fill="none" stroke="#9a9ea8" stroke-width="1.3"/></marker></defs><text x="20" y="22" font-size="10" letter-spacing="2" fill="#9a9ea8">SEQUENCE</text><text x="20" y="44" font-size="17" font-weight="700" fill="#d4d7dd">OpenEntry</text><rect x="384" y="539" width="442" height="242" rx="4" fill="#d4d7dd" fill-opacity="0.015" stroke="#565a62"/><path d="M384,539 h42 l-8,16 h-34 z" fill="#565a62" fill-opacity="0.5" stroke="#565a62"/><text x="392" y="554" font-size="11" font-weight="700" fill="#d4d7dd">alt</text><text x="434" y="554" font-size="11" fill="#9a9ea8">[svg.isErr]</text><line x1="384" y1="633" x2="826" y2="633" stroke="#565a62" stroke-dasharray="5 3"/><text x="392" y="647" font-size="11" font-weight="700" fill="#9a9ea8">[else]</text><rect x="99" y="205" width="10" height="12" rx="2" fill="#ff5c38" fill-opacity="0.10" stroke="#ff5c38" stroke-opacity="0.5"/><rect x="397" y="205" width="10" height="642" rx="2" fill="#3b3e45" fill-opacity="1" stroke="#44474e" stroke-opacity="1"/><rect x="757" y="249" width="10" height="480" rx="2" fill="#3b3e45" fill-opacity="1" stroke="#44474e" stroke-opacity="1"/><rect x="1258" y="357" width="10" height="144" rx="2" fill="#3b3e45" fill-opacity="1" stroke="#44474e" stroke-opacity="1"/><rect x="1759" y="401" width="10" height="56" rx="2" fill="#3b3e45" fill-opacity="1" stroke="#44474e" stroke-opacity="1"/><rect x="1975" y="791" width="10" height="56" rx="2" fill="#3b3e45" fill-opacity="1" stroke="#44474e" stroke-opacity="1"/><rect x="20" y="64" width="168" height="103" rx="8" fill="#c77f10" filter="url(#cardlift)"/><path d="M25,64 H180 A8,8 0 0 1 188,72 V159 A8,8 0 0 1 180,167 H25 Z" fill="#2b2d31"/><rect x="20" y="64" width="168" height="103" rx="8" fill="none" stroke="#44474e"/><text x="39" y="84" font-size="10" letter-spacing="1.5" font-weight="600" fill="#c77f10">COMPONENT</text><text x="39" y="104" font-size="15" font-weight="700" fill="#d4d7dd">StructureTree</text><text x="39" y="120" font-size="11" fill="#9a9ea8">PseudoScriptPlugin::Diagrams</text><text x="39" y="138" font-size="11.5" fill="#9a9ea8">The Structure tab:</text><text x="39" y="153" font-size="11.5" fill="#9a9ea8">discovers workspaces,</text><line x1="104" y1="167" x2="104" y2="885" stroke="#44474e" stroke-dasharray="2 4"/><rect x="318" y="64" width="168" height="103" rx="8" fill="#c77f10" filter="url(#cardlift)"/><path d="M323,64 H478 A8,8 0 0 1 486,72 V159 A8,8 0 0 1 478,167 H323 Z" fill="#2b2d31"/><rect x="318" y="64" width="168" height="103" rx="8" fill="none" stroke="#44474e"/><text x="337" y="84" font-size="10" letter-spacing="1.5" font-weight="600" fill="#c77f10">COMPONENT</text><text x="337" y="104" font-size="15" font-weight="700" fill="#d4d7dd">DiagramService</text><text x="337" y="120" font-size="11" fill="#9a9ea8">PseudoScriptPlugin::Diagrams</text><text x="337" y="138" font-size="11.5" fill="#9a9ea8">Opens diagrams in the</text><text x="337" y="153" font-size="11.5" fill="#9a9ea8">main editor area,</text><line x1="402" y1="167" x2="402" y2="885" stroke="#44474e" stroke-dasharray="2 4"/><rect x="678" y="64" width="168" height="103" rx="8" fill="#c77f10" filter="url(#cardlift)"/><path d="M683,64 H838 A8,8 0 0 1 846,72 V159 A8,8 0 0 1 838,167 H683 Z" fill="#2b2d31"/><rect x="678" y="64" width="168" height="103" rx="8" fill="none" stroke="#44474e"/><text x="697" y="84" font-size="10" letter-spacing="1.5" font-weight="600" fill="#c77f10">COMPONENT</text><text x="697" y="104" font-size="15" font-weight="700" fill="#d4d7dd">DiagramEditor</text><text x="697" y="120" font-size="11" fill="#9a9ea8">PseudoScriptPlugin::Diagrams</text><text x="697" y="138" font-size="11.5" fill="#9a9ea8">The zoomable, pannable</text><text x="697" y="153" font-size="11.5" fill="#9a9ea8">SVG canvas: renders</text><line x1="762" y1="167" x2="762" y2="885" stroke="#44474e" stroke-dasharray="2 4"/><rect x="1179" y="64" width="168" height="103" rx="8" fill="#c77f10" filter="url(#cardlift)"/><path d="M1184,64 H1339 A8,8 0 0 1 1347,72 V159 A8,8 0 0 1 1339,167 H1184 Z" fill="#2b2d31"/><rect x="1179" y="64" width="168" height="103" rx="8" fill="none" stroke="#44474e"/><text x="1198" y="84" font-size="10" letter-spacing="1.5" font-weight="600" fill="#c77f10">COMPONENT</text><text x="1198" y="104" font-size="15" font-weight="700" fill="#d4d7dd">Cli</text><text x="1198" y="120" font-size="11" fill="#9a9ea8">PseudoScriptPlugin::Diagrams</text><text x="1198" y="138" font-size="11.5" fill="#9a9ea8">Thin wrapper over the</text><text x="1198" y="153" font-size="11.5" fill="#9a9ea8">`pds` CLI for diagram</text><line x1="1263" y1="167" x2="1263" y2="885" stroke="#44474e" stroke-dasharray="2 4"/><rect x="1680" y="64" width="168" height="103" rx="8" fill="#e23b2e" filter="url(#cardlift)"/><path d="M1685,64 H1840 A8,8 0 0 1 1848,72 V159 A8,8 0 0 1 1840,167 H1685 Z" fill="#2b2d31"/><rect x="1680" y="64" width="168" height="103" rx="8" fill="none" stroke="#44474e"/><text x="1699" y="84" font-size="10" letter-spacing="1.5" font-weight="600" fill="#e23b2e">SYSTEM</text><text x="1699" y="104" font-size="15" font-weight="700" fill="#d4d7dd">Pds</text><text x="1699" y="122" font-size="11.5" fill="#9a9ea8">The `pds` toolchain</text><text x="1699" y="137" font-size="11.5" fill="#9a9ea8">the plugin shells out</text><line x1="1764" y1="167" x2="1764" y2="885" stroke="#44474e" stroke-dasharray="2 4"/><rect x="1896" y="64" width="168" height="103" rx="8" fill="#e23b2e" filter="url(#cardlift)"/><path d="M1901,64 H2056 A8,8 0 0 1 2064,72 V159 A8,8 0 0 1 2056,167 H1901 Z" fill="#2b2d31"/><rect x="1896" y="64" width="168" height="103" rx="8" fill="none" stroke="#44474e"/><text x="1915" y="84" font-size="10" letter-spacing="1.5" font-weight="600" fill="#e23b2e">SYSTEM</text><text x="1915" y="104" font-size="15" font-weight="700" fill="#d4d7dd">Intellij</text><text x="1915" y="122" font-size="11.5" fill="#9a9ea8">The host IDE platform</text><text x="1915" y="137" font-size="11.5" fill="#9a9ea8">(IntelliJ). Provides</text><line x1="1980" y1="167" x2="1980" y2="885" stroke="#44474e" stroke-dasharray="2 4"/><line x1="109" y1="211" x2="397" y2="211" stroke="#d4d7dd" stroke-width="1.4" marker-end="url(#seqcall)"/><circle cx="87" cy="211" r="8" fill="#ff5c38"/><text x="87" y="214" text-anchor="middle" font-size="10" font-weight="700" fill="#fff">1</text><rect x="134" y="191" width="239" height="14" rx="4" fill="#2b2d31" fill-opacity="0.92"/><text x="253" y="202" text-anchor="middle" font-size="12.5" fill="#d4d7dd">show<tspan fill="#9a9ea8">(target: main::DiagramTarget)</tspan></text><line x1="407" y1="255" x2="757" y2="255" stroke="#d4d7dd" stroke-width="1.4" marker-end="url(#seqcall)"/><circle cx="385" cy="255" r="8" fill="#ff5c38"/><text x="385" y="258" text-anchor="middle" font-size="10" font-weight="700" fill="#fff">2</text><rect x="435" y="235" width="295" height="14" rx="4" fill="#2b2d31" fill-opacity="0.92"/><text x="582" y="246" text-anchor="middle" font-size="12.5" fill="#d4d7dd">RenderSymbol<tspan fill="#9a9ea8">(target: main::DiagramTarget)</tspan></text><path d="M767,299 h34 a6 6 0 0 1 6 6 v8 a6 6 0 0 1 -6 6 h-34" fill="none" stroke="#d4d7dd" stroke-width="1.4" marker-end="url(#seqcall)"/><circle cx="745" cy="299" r="8" fill="#ff5c38"/><text x="745" y="302" text-anchor="middle" font-size="10" font-weight="700" fill="#fff">3</text><text x="813" y="303" text-anchor="start" font-size="12.5" fill="#d4d7dd">theme</text><line x1="767" y1="363" x2="1258" y2="363" stroke="#d4d7dd" stroke-width="1.4" marker-end="url(#seqcall)"/><circle cx="745" cy="363" r="8" fill="#ff5c38"/><text x="745" y="366" text-anchor="middle" font-size="10" font-weight="700" fill="#fff">4</text><rect x="802" y="343" width="421" height="14" rx="4" fill="#2b2d31" fill-opacity="0.92"/><text x="1012" y="354" text-anchor="middle" font-size="12.5" fill="#d4d7dd">symbolSvg<tspan fill="#9a9ea8">(workspaceDir: string, fqn: string, theme: string)</tspan></text><line x1="1268" y1="407" x2="1759" y2="407" stroke="#d4d7dd" stroke-width="1.4" marker-end="url(#seqcall)"/><circle cx="1246" cy="407" r="8" fill="#ff5c38"/><text x="1246" y="410" text-anchor="middle" font-size="10" font-weight="700" fill="#fff">5</text><rect x="1303" y="387" width="421" height="14" rx="4" fill="#2b2d31" fill-opacity="0.92"/><text x="1513" y="398" text-anchor="middle" font-size="12.5" fill="#d4d7dd">symbolSvg<tspan fill="#9a9ea8">(workspaceDir: string, fqn: string, theme: string)</tspan></text><line x1="1759" y1="451" x2="1268" y2="451" stroke="#9a9ea8" stroke-width="1.3" stroke-dasharray="5 3" marker-end="url(#seqret)"/><rect x="1373" y="431" width="281" height="14" rx="4" fill="#2b2d31" fill-opacity="0.92"/><text x="1513" y="442" text-anchor="middle" font-size="12.5" fill="#9a9ea8">↩ return<tspan fill="#9a9ea8"> Result&lt;string, main::CliError&gt;</tspan></text><line x1="1258" y1="495" x2="767" y2="495" stroke="#9a9ea8" stroke-width="1.3" stroke-dasharray="5 3" marker-end="url(#seqret)"/><rect x="872" y="475" width="281" height="14" rx="4" fill="#2b2d31" fill-opacity="0.92"/><text x="1012" y="486" text-anchor="middle" font-size="12.5" fill="#9a9ea8">↩ return<tspan fill="#9a9ea8"> Result&lt;string, main::CliError&gt;</tspan></text><line x1="757" y1="577" x2="407" y2="577" stroke="#f0563b" stroke-width="1.3" stroke-dasharray="5 3" marker-end="url(#seqret)"/><rect x="505" y="557" width="155" height="14" rx="4" fill="#2b2d31" fill-opacity="0.92"/><text x="582" y="568" text-anchor="middle" font-size="12.5" fill="#f0563b">↩ Err<tspan fill="#9a9ea8">&lt;main::CliError&gt;</tspan></text><path d="M767,659 h34 a6 6 0 0 1 6 6 v8 a6 6 0 0 1 -6 6 h-34" fill="none" stroke="#d4d7dd" stroke-width="1.4" marker-end="url(#seqcall)"/><circle cx="745" cy="659" r="8" fill="#ff5c38"/><text x="745" y="662" text-anchor="middle" font-size="10" font-weight="700" fill="#fff">6</text><text x="813" y="663" text-anchor="start" font-size="12.5" fill="#d4d7dd">draw</text><line x1="757" y1="723" x2="407" y2="723" stroke="#23c2ab" stroke-width="1.3" stroke-dasharray="5 3" marker-end="url(#seqret)"/><rect x="543" y="703" width="78" height="14" rx="4" fill="#2b2d31" fill-opacity="0.92"/><text x="582" y="714" text-anchor="middle" font-size="12.5" fill="#23c2ab">↩ Ok<tspan fill="#9a9ea8">&lt;void&gt;</tspan></text><line x1="407" y1="797" x2="1975" y2="797" stroke="#d4d7dd" stroke-width="1.4" marker-end="url(#seqcall)"/><circle cx="385" cy="797" r="8" fill="#ff5c38"/><text x="385" y="800" text-anchor="middle" font-size="10" font-weight="700" fill="#fff">7</text><rect x="1103" y="777" width="176" height="14" rx="4" fill="#2b2d31" fill-opacity="0.92"/><text x="1191" y="788" text-anchor="middle" font-size="12.5" fill="#d4d7dd">openEditor<tspan fill="#9a9ea8">(file: string)</tspan></text><line x1="1975" y1="841" x2="407" y2="841" stroke="#9a9ea8" stroke-width="1.3" stroke-dasharray="5 3" marker-end="url(#seqret)"/><rect x="1159" y="821" width="64" height="14" rx="4" fill="#2b2d31" fill-opacity="0.92"/><text x="1191" y="832" text-anchor="middle" font-size="12.5" fill="#9a9ea8">↩ return</text></g></svg>