<svg xmlns="http://www.w3.org/2000/svg" viewBox="0 0 1970 1993" width="1970" height="1993" font-family="sans-serif" font-size="13"><defs><marker id="arrow" markerWidth="10" markerHeight="10" refX="9" refY="3" orient="auto" markerUnits="strokeWidth"><path d="M0,0 L9,3 L0,6 z" fill="#b7bbc3"/></marker></defs><g font-family="Helvetica, Arial, sans-serif"><defs><marker id="seqcall" markerWidth="11" markerHeight="11" refX="9" refY="3.5" orient="auto" markerUnits="userSpaceOnUse"><path d="M0,0 L10,3.5 L0,7 z" fill="#d4d7dd"/></marker><marker id="seqret" markerWidth="12" markerHeight="12" refX="9" refY="4" orient="auto" markerUnits="userSpaceOnUse"><path d="M0,0 L10,4 M0,8 L10,4" fill="none" stroke="#9a9ea8" stroke-width="1.3"/></marker></defs><text x="20" y="22" font-size="10" letter-spacing="2" fill="#9a9ea8">SEQUENCE</text><text x="20" y="44" font-size="17" font-weight="700" fill="#d4d7dd">OpenDiagram</text><rect x="1272" y="855" width="442" height="242" rx="4" fill="#d4d7dd" fill-opacity="0.015" stroke="#565a62"/><path d="M1272,855 h42 l-8,16 h-34 z" fill="#565a62" fill-opacity="0.5" stroke="#565a62"/><text x="1280" y="870" font-size="11" font-weight="700" fill="#d4d7dd">alt</text><text x="1322" y="870" font-size="11" fill="#9a9ea8">[ctx.isErr]</text><line x1="1272" y1="949" x2="1714" y2="949" stroke="#565a62" stroke-dasharray="5 3"/><text x="1280" y="963" font-size="11" font-weight="700" fill="#9a9ea8">[else]</text><rect x="1272" y="1567" width="442" height="242" rx="4" fill="#d4d7dd" fill-opacity="0.015" stroke="#565a62"/><path d="M1272,1567 h42 l-8,16 h-34 z" fill="#565a62" fill-opacity="0.5" stroke="#565a62"/><text x="1280" y="1582" font-size="11" font-weight="700" fill="#d4d7dd">alt</text><text x="1322" y="1582" font-size="11" fill="#9a9ea8">[svg.isErr]</text><line x1="1272" y1="1661" x2="1714" y2="1661" stroke="#565a62" stroke-dasharray="5 3"/><text x="1280" y="1675" font-size="11" font-weight="700" fill="#9a9ea8">[else]</text><rect x="86" y="489" width="1798" height="1438" rx="4" fill="#d4d7dd" fill-opacity="0.015" stroke="#565a62"/><path d="M86,489 h42 l-8,16 h-34 z" fill="#565a62" fill-opacity="0.5" stroke="#565a62"/><text x="94" y="504" font-size="11" font-weight="700" fill="#d4d7dd">alt</text><text x="136" y="504" font-size="11" fill="#9a9ea8">[found.isNone]</text><line x1="86" y1="1213" x2="1884" y2="1213" stroke="#565a62" stroke-dasharray="5 3"/><text x="94" y="1227" font-size="11" font-weight="700" fill="#9a9ea8">[else]</text><rect x="86" y="387" width="1798" height="1570" rx="4" fill="#d4d7dd" fill-opacity="0.015" stroke="#565a62"/><path d="M86,387 h42 l-8,16 h-34 z" fill="#565a62" fill-opacity="0.5" stroke="#565a62"/><text x="94" y="402" font-size="11" font-weight="700" fill="#d4d7dd">alt</text><text x="136" y="402" font-size="11" fill="#9a9ea8">[else outline.isErr]</text><rect x="99" y="205" width="10" height="1040" rx="2" fill="#ff5c38" fill-opacity="0.10" stroke="#ff5c38" stroke-opacity="0.5"/><rect x="568" y="205" width="10" height="1324" rx="2" fill="#3b3e45" fill-opacity="1" stroke="#44474e" stroke-opacity="1"/><rect x="1069" y="249" width="10" height="1236" rx="2" fill="#3b3e45" fill-opacity="1" stroke="#44474e" stroke-opacity="1"/><rect x="1285" y="521" width="10" height="1354" rx="2" fill="#3b3e45" fill-opacity="1" stroke="#44474e" stroke-opacity="1"/><rect x="1645" y="565" width="10" height="1192" rx="2" fill="#3b3e45" fill-opacity="1" stroke="#44474e" stroke-opacity="1"/><rect x="1861" y="1107" width="10" height="768" rx="2" fill="#3b3e45" fill-opacity="1" stroke="#44474e" stroke-opacity="1"/><rect x="20" y="64" width="168" height="103" rx="8" fill="#c77f10" filter="url(#cardlift)"/><path d="M25,64 H180 A8,8 0 0 1 188,72 V159 A8,8 0 0 1 180,167 H25 Z" fill="#2b2d31"/><rect x="20" y="64" width="168" height="103" rx="8" fill="none" stroke="#44474e"/><text x="39" y="84" font-size="10" letter-spacing="1.5" font-weight="600" fill="#c77f10">COMPONENT</text><text x="39" y="104" font-size="15" font-weight="700" fill="#d4d7dd">DiagramAction</text><text x="39" y="120" font-size="11" fill="#9a9ea8">PseudoScriptPlugin::Diagrams</text><text x="39" y="138" font-size="11.5" fill="#9a9ea8">Right-click → Open</text><text x="39" y="153" font-size="11.5" fill="#9a9ea8">Diagram on a `.pds`</text><line x1="104" y1="167" x2="104" y2="1973" stroke="#44474e" stroke-dasharray="2 4"/><rect x="489" y="64" width="168" height="103" rx="8" fill="#c77f10" filter="url(#cardlift)"/><path d="M494,64 H649 A8,8 0 0 1 657,72 V159 A8,8 0 0 1 649,167 H494 Z" fill="#2b2d31"/><rect x="489" y="64" width="168" height="103" rx="8" fill="none" stroke="#44474e"/><text x="508" y="84" font-size="10" letter-spacing="1.5" font-weight="600" fill="#c77f10">COMPONENT</text><text x="508" y="104" font-size="15" font-weight="700" fill="#d4d7dd">Cli</text><text x="508" y="120" font-size="11" fill="#9a9ea8">PseudoScriptPlugin::Diagrams</text><text x="508" y="138" font-size="11.5" fill="#9a9ea8">Thin wrapper over the</text><text x="508" y="153" font-size="11.5" fill="#9a9ea8">`pds` CLI for diagram</text><line x1="573" y1="167" x2="573" y2="1973" stroke="#44474e" stroke-dasharray="2 4"/><rect x="990" y="64" width="168" height="103" rx="8" fill="#e23b2e" filter="url(#cardlift)"/><path d="M995,64 H1150 A8,8 0 0 1 1158,72 V159 A8,8 0 0 1 1150,167 H995 Z" fill="#2b2d31"/><rect x="990" y="64" width="168" height="103" rx="8" fill="none" stroke="#44474e"/><text x="1009" y="84" font-size="10" letter-spacing="1.5" font-weight="600" fill="#e23b2e">SYSTEM</text><text x="1009" y="104" font-size="15" font-weight="700" fill="#d4d7dd">Pds</text><text x="1009" y="122" font-size="11.5" fill="#9a9ea8">The `pds` toolchain</text><text x="1009" y="137" font-size="11.5" fill="#9a9ea8">the plugin shells out</text><line x1="1074" y1="167" x2="1074" y2="1973" stroke="#44474e" stroke-dasharray="2 4"/><rect x="1206" y="64" width="168" height="103" rx="8" fill="#c77f10" filter="url(#cardlift)"/><path d="M1211,64 H1366 A8,8 0 0 1 1374,72 V159 A8,8 0 0 1 1366,167 H1211 Z" fill="#2b2d31"/><rect x="1206" y="64" width="168" height="103" rx="8" fill="none" stroke="#44474e"/><text x="1225" y="84" font-size="10" letter-spacing="1.5" font-weight="600" fill="#c77f10">COMPONENT</text><text x="1225" y="104" font-size="15" font-weight="700" fill="#d4d7dd">DiagramService</text><text x="1225" y="120" font-size="11" fill="#9a9ea8">PseudoScriptPlugin::Diagrams</text><text x="1225" y="138" font-size="11.5" fill="#9a9ea8">Opens diagrams in the</text><text x="1225" y="153" font-size="11.5" fill="#9a9ea8">main editor area,</text><line x1="1290" y1="167" x2="1290" y2="1973" stroke="#44474e" stroke-dasharray="2 4"/><rect x="1566" y="64" width="168" height="103" rx="8" fill="#c77f10" filter="url(#cardlift)"/><path d="M1571,64 H1726 A8,8 0 0 1 1734,72 V159 A8,8 0 0 1 1726,167 H1571 Z" fill="#2b2d31"/><rect x="1566" y="64" width="168" height="103" rx="8" fill="none" stroke="#44474e"/><text x="1585" y="84" font-size="10" letter-spacing="1.5" font-weight="600" fill="#c77f10">COMPONENT</text><text x="1585" y="104" font-size="15" font-weight="700" fill="#d4d7dd">DiagramEditor</text><text x="1585" y="120" font-size="11" fill="#9a9ea8">PseudoScriptPlugin::Diagrams</text><text x="1585" y="138" font-size="11.5" fill="#9a9ea8">The zoomable, pannable</text><text x="1585" y="153" font-size="11.5" fill="#9a9ea8">SVG canvas: renders</text><line x1="1650" y1="167" x2="1650" y2="1973" stroke="#44474e" stroke-dasharray="2 4"/><rect x="1782" y="64" width="168" height="103" rx="8" fill="#e23b2e" filter="url(#cardlift)"/><path d="M1787,64 H1942 A8,8 0 0 1 1950,72 V159 A8,8 0 0 1 1942,167 H1787 Z" fill="#2b2d31"/><rect x="1782" y="64" width="168" height="103" rx="8" fill="none" stroke="#44474e"/><text x="1801" y="84" font-size="10" letter-spacing="1.5" font-weight="600" fill="#e23b2e">SYSTEM</text><text x="1801" y="104" font-size="15" font-weight="700" fill="#d4d7dd">Intellij</text><text x="1801" y="122" font-size="11.5" fill="#9a9ea8">The host IDE platform</text><text x="1801" y="137" font-size="11.5" fill="#9a9ea8">(IntelliJ). Provides</text><line x1="1866" y1="167" x2="1866" y2="1973" stroke="#44474e" stroke-dasharray="2 4"/><line x1="109" y1="211" x2="568" y2="211" stroke="#d4d7dd" stroke-width="1.4" marker-end="url(#seqcall)"/><circle cx="87" cy="211" r="8" fill="#ff5c38"/><text x="87" y="214" text-anchor="middle" font-size="10" font-weight="700" fill="#fff">1</text><rect x="233" y="191" width="211" height="14" rx="4" fill="#2b2d31" fill-opacity="0.92"/><text x="338" y="202" text-anchor="middle" font-size="12.5" fill="#d4d7dd">outline<tspan fill="#9a9ea8">(workspaceDir: string)</tspan></text><line x1="578" y1="255" x2="1069" y2="255" stroke="#d4d7dd" stroke-width="1.4" marker-end="url(#seqcall)"/><circle cx="556" cy="255" r="8" fill="#ff5c38"/><text x="556" y="258" text-anchor="middle" font-size="10" font-weight="700" fill="#fff">2</text><rect x="718" y="235" width="211" height="14" rx="4" fill="#2b2d31" fill-opacity="0.92"/><text x="823" y="246" text-anchor="middle" font-size="12.5" fill="#d4d7dd">outline<tspan fill="#9a9ea8">(workspaceDir: string)</tspan></text><line x1="1069" y1="299" x2="578" y2="299" stroke="#9a9ea8" stroke-width="1.3" stroke-dasharray="5 3" marker-end="url(#seqret)"/><rect x="627" y="279" width="393" height="14" rx="4" fill="#2b2d31" fill-opacity="0.92"/><text x="823" y="290" text-anchor="middle" font-size="12.5" fill="#9a9ea8">↩ return<tspan fill="#9a9ea8"> Result&lt;main::PdsOutlineNode[], main::CliError&gt;</tspan></text><line x1="568" y1="343" x2="109" y2="343" stroke="#9a9ea8" stroke-width="1.3" stroke-dasharray="5 3" marker-end="url(#seqret)"/><rect x="142" y="323" width="393" height="14" rx="4" fill="#2b2d31" fill-opacity="0.92"/><text x="338" y="334" text-anchor="middle" font-size="12.5" fill="#9a9ea8">↩ return<tspan fill="#9a9ea8"> Result&lt;main::PdsOutlineNode[], main::CliError&gt;</tspan></text><path d="M109,425 h34 a6 6 0 0 1 6 6 v8 a6 6 0 0 1 -6 6 h-34" fill="none" stroke="#d4d7dd" stroke-width="1.4" marker-end="url(#seqcall)"/><circle cx="87" cy="425" r="8" fill="#ff5c38"/><text x="87" y="428" text-anchor="middle" font-size="10" font-weight="700" fill="#fff">3</text><text x="155" y="429" text-anchor="start" font-size="12.5" fill="#d4d7dd">resolveTarget</text><line x1="109" y1="527" x2="1285" y2="527" stroke="#d4d7dd" stroke-width="1.4" marker-end="url(#seqcall)"/><circle cx="87" cy="527" r="8" fill="#ff5c38"/><text x="87" y="530" text-anchor="middle" font-size="10" font-weight="700" fill="#fff">4</text><rect x="578" y="507" width="239" height="14" rx="4" fill="#2b2d31" fill-opacity="0.92"/><text x="697" y="518" text-anchor="middle" font-size="12.5" fill="#d4d7dd">showContext<tspan fill="#9a9ea8">(workspaceDir: string)</tspan></text><line x1="1295" y1="571" x2="1645" y2="571" stroke="#d4d7dd" stroke-width="1.4" marker-end="url(#seqcall)"/><circle cx="1273" cy="571" r="8" fill="#ff5c38"/><text x="1273" y="574" text-anchor="middle" font-size="10" font-weight="700" fill="#fff">5</text><rect x="1344" y="551" width="253" height="14" rx="4" fill="#2b2d31" fill-opacity="0.92"/><text x="1470" y="562" text-anchor="middle" font-size="12.5" fill="#d4d7dd">RenderContext<tspan fill="#9a9ea8">(workspaceDir: string)</tspan></text><path d="M1655,615 h34 a6 6 0 0 1 6 6 v8 a6 6 0 0 1 -6 6 h-34" fill="none" stroke="#d4d7dd" stroke-width="1.4" marker-end="url(#seqcall)"/><circle cx="1633" cy="615" r="8" fill="#ff5c38"/><text x="1633" y="618" text-anchor="middle" font-size="10" font-weight="700" fill="#fff">6</text><text x="1701" y="619" text-anchor="start" font-size="12.5" fill="#d4d7dd">theme</text><line x1="1645" y1="679" x2="578" y2="679" stroke="#d4d7dd" stroke-width="1.4" marker-end="url(#seqcall)"/><circle cx="1633" cy="679" r="8" fill="#ff5c38"/><text x="1633" y="682" text-anchor="middle" font-size="10" font-weight="700" fill="#fff">7</text><rect x="943" y="659" width="337" height="14" rx="4" fill="#2b2d31" fill-opacity="0.92"/><text x="1111" y="670" text-anchor="middle" font-size="12.5" fill="#d4d7dd">contextSvg<tspan fill="#9a9ea8">(workspaceDir: string, theme: string)</tspan></text><line x1="578" y1="723" x2="1069" y2="723" stroke="#d4d7dd" stroke-width="1.4" marker-end="url(#seqcall)"/><circle cx="556" cy="723" r="8" fill="#ff5c38"/><text x="556" y="726" text-anchor="middle" font-size="10" font-weight="700" fill="#fff">8</text><rect x="616" y="703" width="414" height="14" rx="4" fill="#2b2d31" fill-opacity="0.92"/><text x="823" y="714" text-anchor="middle" font-size="12.5" fill="#d4d7dd">viewSvg<tspan fill="#9a9ea8">(workspaceDir: string, view: string, theme: string)</tspan></text><line x1="1069" y1="767" x2="578" y2="767" stroke="#9a9ea8" stroke-width="1.3" stroke-dasharray="5 3" marker-end="url(#seqret)"/><rect x="683" y="747" width="281" height="14" rx="4" fill="#2b2d31" fill-opacity="0.92"/><text x="823" y="758" text-anchor="middle" font-size="12.5" fill="#9a9ea8">↩ return<tspan fill="#9a9ea8"> Result&lt;string, main::CliError&gt;</tspan></text><line x1="578" y1="811" x2="1645" y2="811" stroke="#9a9ea8" stroke-width="1.3" stroke-dasharray="5 3" marker-end="url(#seqret)"/><rect x="971" y="791" width="281" height="14" rx="4" fill="#2b2d31" fill-opacity="0.92"/><text x="1111" y="802" text-anchor="middle" font-size="12.5" fill="#9a9ea8">↩ return<tspan fill="#9a9ea8"> Result&lt;string, main::CliError&gt;</tspan></text><line x1="1645" y1="893" x2="1295" y2="893" stroke="#f0563b" stroke-width="1.3" stroke-dasharray="5 3" marker-end="url(#seqret)"/><rect x="1393" y="873" width="155" height="14" rx="4" fill="#2b2d31" fill-opacity="0.92"/><text x="1470" y="884" text-anchor="middle" font-size="12.5" fill="#f0563b">↩ Err<tspan fill="#9a9ea8">&lt;main::CliError&gt;</tspan></text><path d="M1655,975 h34 a6 6 0 0 1 6 6 v8 a6 6 0 0 1 -6 6 h-34" fill="none" stroke="#d4d7dd" stroke-width="1.4" marker-end="url(#seqcall)"/><circle cx="1633" cy="975" r="8" fill="#ff5c38"/><text x="1633" y="978" text-anchor="middle" font-size="10" font-weight="700" fill="#fff">9</text><text x="1701" y="979" text-anchor="start" font-size="12.5" fill="#d4d7dd">draw</text><line x1="1645" y1="1039" x2="1295" y2="1039" stroke="#23c2ab" stroke-width="1.3" stroke-dasharray="5 3" marker-end="url(#seqret)"/><rect x="1431" y="1019" width="78" height="14" rx="4" fill="#2b2d31" fill-opacity="0.92"/><text x="1470" y="1030" text-anchor="middle" font-size="12.5" fill="#23c2ab">↩ Ok<tspan fill="#9a9ea8">&lt;void&gt;</tspan></text><line x1="1295" y1="1113" x2="1861" y2="1113" stroke="#d4d7dd" stroke-width="1.4" marker-end="url(#seqcall)"/><circle cx="1273" cy="1113" r="8" fill="#ff5c38"/><text x="1273" y="1116" text-anchor="middle" font-size="10" font-weight="700" fill="#fff">10</text><rect x="1490" y="1093" width="176" height="14" rx="4" fill="#2b2d31" fill-opacity="0.92"/><text x="1578" y="1104" text-anchor="middle" font-size="12.5" fill="#d4d7dd">openEditor<tspan fill="#9a9ea8">(file: string)</tspan></text><line x1="1861" y1="1157" x2="1295" y2="1157" stroke="#9a9ea8" stroke-width="1.3" stroke-dasharray="5 3" marker-end="url(#seqret)"/><rect x="1546" y="1137" width="64" height="14" rx="4" fill="#2b2d31" fill-opacity="0.92"/><text x="1578" y="1148" text-anchor="middle" font-size="12.5" fill="#9a9ea8">↩ return</text><line x1="109" y1="1239" x2="1285" y2="1239" stroke="#d4d7dd" stroke-width="1.4" marker-end="url(#seqcall)"/><circle cx="87" cy="1239" r="8" fill="#ff5c38"/><text x="87" y="1242" text-anchor="middle" font-size="10" font-weight="700" fill="#fff">11</text><rect x="578" y="1219" width="239" height="14" rx="4" fill="#2b2d31" fill-opacity="0.92"/><text x="697" y="1230" text-anchor="middle" font-size="12.5" fill="#d4d7dd">show<tspan fill="#9a9ea8">(target: main::DiagramTarget)</tspan></text><line x1="1295" y1="1283" x2="1645" y2="1283" stroke="#d4d7dd" stroke-width="1.4" marker-end="url(#seqcall)"/><circle cx="1273" cy="1283" r="8" fill="#ff5c38"/><text x="1273" y="1286" text-anchor="middle" font-size="10" font-weight="700" fill="#fff">12</text><rect x="1323" y="1263" width="295" height="14" rx="4" fill="#2b2d31" fill-opacity="0.92"/><text x="1470" y="1274" text-anchor="middle" font-size="12.5" fill="#d4d7dd">RenderSymbol<tspan fill="#9a9ea8">(target: main::DiagramTarget)</tspan></text><path d="M1655,1327 h34 a6 6 0 0 1 6 6 v8 a6 6 0 0 1 -6 6 h-34" fill="none" stroke="#d4d7dd" stroke-width="1.4" marker-end="url(#seqcall)"/><circle cx="1633" cy="1327" r="8" fill="#ff5c38"/><text x="1633" y="1330" text-anchor="middle" font-size="10" font-weight="700" fill="#fff">13</text><text x="1701" y="1331" text-anchor="start" font-size="12.5" fill="#d4d7dd">theme</text><line x1="1645" y1="1391" x2="578" y2="1391" stroke="#d4d7dd" stroke-width="1.4" marker-end="url(#seqcall)"/><circle cx="1633" cy="1391" r="8" fill="#ff5c38"/><text x="1633" y="1394" text-anchor="middle" font-size="10" font-weight="700" fill="#fff">14</text><rect x="901" y="1371" width="421" height="14" rx="4" fill="#2b2d31" fill-opacity="0.92"/><text x="1111" y="1382" text-anchor="middle" font-size="12.5" fill="#d4d7dd">symbolSvg<tspan fill="#9a9ea8">(workspaceDir: string, fqn: string, theme: string)</tspan></text><line x1="578" y1="1435" x2="1069" y2="1435" stroke="#d4d7dd" stroke-width="1.4" marker-end="url(#seqcall)"/><circle cx="556" cy="1435" r="8" fill="#ff5c38"/><text x="556" y="1438" text-anchor="middle" font-size="10" font-weight="700" fill="#fff">15</text><rect x="613" y="1415" width="421" height="14" rx="4" fill="#2b2d31" fill-opacity="0.92"/><text x="823" y="1426" text-anchor="middle" font-size="12.5" fill="#d4d7dd">symbolSvg<tspan fill="#9a9ea8">(workspaceDir: string, fqn: string, theme: string)</tspan></text><line x1="1069" y1="1479" x2="578" y2="1479" stroke="#9a9ea8" stroke-width="1.3" stroke-dasharray="5 3" marker-end="url(#seqret)"/><rect x="683" y="1459" width="281" height="14" rx="4" fill="#2b2d31" fill-opacity="0.92"/><text x="823" y="1470" text-anchor="middle" font-size="12.5" fill="#9a9ea8">↩ return<tspan fill="#9a9ea8"> Result&lt;string, main::CliError&gt;</tspan></text><line x1="578" y1="1523" x2="1645" y2="1523" stroke="#9a9ea8" stroke-width="1.3" stroke-dasharray="5 3" marker-end="url(#seqret)"/><rect x="971" y="1503" width="281" height="14" rx="4" fill="#2b2d31" fill-opacity="0.92"/><text x="1111" y="1514" text-anchor="middle" font-size="12.5" fill="#9a9ea8">↩ return<tspan fill="#9a9ea8"> Result&lt;string, main::CliError&gt;</tspan></text><line x1="1645" y1="1605" x2="1295" y2="1605" stroke="#f0563b" stroke-width="1.3" stroke-dasharray="5 3" marker-end="url(#seqret)"/><rect x="1393" y="1585" width="155" height="14" rx="4" fill="#2b2d31" fill-opacity="0.92"/><text x="1470" y="1596" text-anchor="middle" font-size="12.5" fill="#f0563b">↩ Err<tspan fill="#9a9ea8">&lt;main::CliError&gt;</tspan></text><path d="M1655,1687 h34 a6 6 0 0 1 6 6 v8 a6 6 0 0 1 -6 6 h-34" fill="none" stroke="#d4d7dd" stroke-width="1.4" marker-end="url(#seqcall)"/><circle cx="1633" cy="1687" r="8" fill="#ff5c38"/><text x="1633" y="1690" text-anchor="middle" font-size="10" font-weight="700" fill="#fff">16</text><text x="1701" y="1691" text-anchor="start" font-size="12.5" fill="#d4d7dd">draw</text><line x1="1645" y1="1751" x2="1295" y2="1751" stroke="#23c2ab" stroke-width="1.3" stroke-dasharray="5 3" marker-end="url(#seqret)"/><rect x="1431" y="1731" width="78" height="14" rx="4" fill="#2b2d31" fill-opacity="0.92"/><text x="1470" y="1742" text-anchor="middle" font-size="12.5" fill="#23c2ab">↩ Ok<tspan fill="#9a9ea8">&lt;void&gt;</tspan></text><line x1="1295" y1="1825" x2="1861" y2="1825" stroke="#d4d7dd" stroke-width="1.4" marker-end="url(#seqcall)"/><circle cx="1273" cy="1825" r="8" fill="#ff5c38"/><text x="1273" y="1828" text-anchor="middle" font-size="10" font-weight="700" fill="#fff">17</text><rect x="1490" y="1805" width="176" height="14" rx="4" fill="#2b2d31" fill-opacity="0.92"/><text x="1578" y="1816" text-anchor="middle" font-size="12.5" fill="#d4d7dd">openEditor<tspan fill="#9a9ea8">(file: string)</tspan></text><line x1="1861" y1="1869" x2="1295" y2="1869" stroke="#9a9ea8" stroke-width="1.3" stroke-dasharray="5 3" marker-end="url(#seqret)"/><rect x="1546" y="1849" width="64" height="14" rx="4" fill="#2b2d31" fill-opacity="0.92"/><text x="1578" y="1860" text-anchor="middle" font-size="12.5" fill="#9a9ea8">↩ return</text></g></svg>