<svg xmlns="http://www.w3.org/2000/svg" viewBox="0 0 1438 1126" width="1438" height="1126" font-family="sans-serif" font-size="13"><defs><marker id="arrow" markerWidth="10" markerHeight="10" refX="9" refY="3" orient="auto" markerUnits="strokeWidth"><path d="M0,0 L9,3 L0,6 z" fill="#b7bbc3"/></marker></defs><g font-family="Helvetica, Arial, sans-serif"><defs><marker id="seqcall" markerWidth="11" markerHeight="11" refX="9" refY="3.5" orient="auto" markerUnits="userSpaceOnUse"><path d="M0,0 L10,3.5 L0,7 z" fill="#d4d7dd"/></marker><marker id="seqret" markerWidth="12" markerHeight="12" refX="9" refY="4" orient="auto" markerUnits="userSpaceOnUse"><path d="M0,0 L10,4 M0,8 L10,4" fill="none" stroke="#9a9ea8" stroke-width="1.3"/></marker></defs><text x="20" y="22" font-size="10" letter-spacing="2" fill="#9a9ea8">SEQUENCE</text><text x="20" y="44" font-size="17" font-weight="700" fill="#d4d7dd">Refresh</text><rect x="86" y="340" width="651" height="210" rx="4" fill="#d4d7dd" fill-opacity="0.015" stroke="#565a62"/><path d="M86,340 h42 l-8,16 h-34 z" fill="#565a62" fill-opacity="0.5" stroke="#565a62"/><text x="94" y="355" font-size="11" font-weight="700" fill="#d4d7dd">alt</text><text x="136" y="355" font-size="11" fill="#9a9ea8">[raw.isErr]</text><line x1="86" y1="452" x2="737" y2="452" stroke="#565a62" stroke-dasharray="5 3"/><text x="94" y="466" font-size="11" font-weight="700" fill="#9a9ea8">[else]</text><rect x="86" y="878" width="82" height="140" rx="4" fill="#d4d7dd" fill-opacity="0.015" stroke="#565a62"/><path d="M86,878 h42 l-8,16 h-34 z" fill="#565a62" fill-opacity="0.5" stroke="#565a62"/><text x="94" y="893" font-size="11" font-weight="700" fill="#d4d7dd">alt</text><text x="136" y="893" font-size="11" fill="#9a9ea8">[else nodes.isErr]</text><rect x="86" y="616" width="1266" height="436" rx="4" fill="#d4d7dd" fill-opacity="0.015" stroke="#565a62"/><path d="M86,616 h50 l-8,16 h-42 z" fill="#565a62" fill-opacity="0.5" stroke="#565a62"/><text x="94" y="631" font-size="11" font-weight="700" fill="#d4d7dd">loop</text><text x="144" y="631" font-size="11" fill="#9a9ea8">[roots.value]</text><rect x="86" y="570" width="1266" height="516" rx="4" fill="#d4d7dd" fill-opacity="0.015" stroke="#565a62"/><path d="M86,570 h42 l-8,16 h-34 z" fill="#565a62" fill-opacity="0.5" stroke="#565a62"/><text x="94" y="585" font-size="11" font-weight="700" fill="#d4d7dd">alt</text><text x="136" y="585" font-size="11" fill="#9a9ea8">[else roots.isErr]</text><rect x="99" y="172" width="10" height="758" rx="2" fill="#ff5c38" fill-opacity="0.10" stroke="#ff5c38" stroke-opacity="0.5"/><rect x="714" y="172" width="10" height="658" rx="2" fill="#3b3e45" fill-opacity="1" stroke="#44474e" stroke-opacity="1"/><rect x="1329" y="226" width="10" height="550" rx="2" fill="#3b3e45" fill-opacity="1" stroke="#44474e" stroke-opacity="1"/><rect x="20" y="64" width="168" height="60" rx="8" fill="#c77f10" filter="url(#cardlift)"/><path d="M25,64 H180 A8,8 0 0 1 188,72 V116 A8,8 0 0 1 180,124 H25 Z" fill="#2b2d31"/><rect x="20" y="64" width="168" height="60" rx="8" fill="none" stroke="#44474e"/><text x="39" y="84" font-size="10" letter-spacing="1.5" font-weight="600" fill="#c77f10">COMPONENT</text><text x="39" y="104" font-size="15" font-weight="700" fill="#d4d7dd">StructureTree</text><line x1="104" y1="124" x2="104" y2="1106" stroke="#44474e" stroke-dasharray="2 4"/><rect x="635" y="64" width="168" height="60" rx="8" fill="#c77f10" filter="url(#cardlift)"/><path d="M640,64 H795 A8,8 0 0 1 803,72 V116 A8,8 0 0 1 795,124 H640 Z" fill="#2b2d31"/><rect x="635" y="64" width="168" height="60" rx="8" fill="none" stroke="#44474e"/><text x="654" y="84" font-size="10" letter-spacing="1.5" font-weight="600" fill="#c77f10">COMPONENT</text><text x="654" y="104" font-size="15" font-weight="700" fill="#d4d7dd">Cli</text><line x1="719" y1="124" x2="719" y2="1106" stroke="#44474e" stroke-dasharray="2 4"/><rect x="1250" y="64" width="168" height="60" rx="8" fill="#e23b2e" filter="url(#cardlift)"/><path d="M1255,64 H1410 A8,8 0 0 1 1418,72 V116 A8,8 0 0 1 1410,124 H1255 Z" fill="#2b2d31"/><rect x="1250" y="64" width="168" height="60" rx="8" fill="none" stroke="#44474e"/><text x="1269" y="84" font-size="10" letter-spacing="1.5" font-weight="600" fill="#e23b2e">SYSTEM</text><text x="1269" y="104" font-size="15" font-weight="700" fill="#d4d7dd">Pds</text><line x1="1334" y1="124" x2="1334" y2="1106" stroke="#44474e" stroke-dasharray="2 4"/><line x1="109" y1="178" x2="714" y2="178" stroke="#d4d7dd" stroke-width="1.4" marker-end="url(#seqcall)"/><circle cx="87" cy="178" r="8" fill="#ff5c38"/><text x="87" y="181" text-anchor="middle" font-size="10" font-weight="700" fill="#fff">1</text><rect x="181" y="157" width="460" height="17" rx="4" fill="#2b2d31" fill-opacity="0.92"/><text x="411" y="169" text-anchor="middle" font-size="12.5" fill="#d4d7dd">workspaces<tspan fill="#9a9ea8">(projectDir: string): Result&lt;string[], main::CliError&gt;</tspan></text><line x1="724" y1="232" x2="1329" y2="232" stroke="#d4d7dd" stroke-width="1.4" marker-end="url(#seqcall)"/><circle cx="702" cy="232" r="8" fill="#ff5c38"/><text x="702" y="235" text-anchor="middle" font-size="10" font-weight="700" fill="#fff">2</text><rect x="859" y="211" width="334" height="17" rx="4" fill="#2b2d31" fill-opacity="0.92"/><text x="1026" y="223" text-anchor="middle" font-size="12.5" fill="#d4d7dd">list<tspan fill="#9a9ea8">(root: string): Result&lt;string[], CliError&gt;</tspan></text><line x1="1329" y1="286" x2="724" y2="286" stroke="#9a9ea8" stroke-width="1.3" stroke-dasharray="5 3" marker-end="url(#seqret)"/><rect x="898" y="265" width="257" height="17" rx="4" fill="#2b2d31" fill-opacity="0.92"/><text x="1026" y="277" text-anchor="middle" font-size="12.5" fill="#9a9ea8">↩ return<tspan fill="#9a9ea8"> Result&lt;string[], CliError&gt;</tspan></text><line x1="714" y1="386" x2="109" y2="386" stroke="#f0563b" stroke-width="1.3" stroke-dasharray="5 3" marker-end="url(#seqret)"/><rect x="332" y="365" width="159" height="17" rx="4" fill="#2b2d31" fill-opacity="0.92"/><text x="411" y="377" text-anchor="middle" font-size="12.5" fill="#f0563b">↩ Err<tspan fill="#9a9ea8">&lt;main::CliError&gt;</tspan></text><line x1="714" y1="482" x2="109" y2="482" stroke="#23c2ab" stroke-width="1.3" stroke-dasharray="5 3" marker-end="url(#seqret)"/><rect x="356" y="461" width="110" height="17" rx="4" fill="#2b2d31" fill-opacity="0.92"/><text x="411" y="473" text-anchor="middle" font-size="12.5" fill="#23c2ab">↩ Ok<tspan fill="#9a9ea8">&lt;string[]&gt;</tspan></text><line x1="109" y1="662" x2="714" y2="662" stroke="#d4d7dd" stroke-width="1.4" marker-end="url(#seqcall)"/><circle cx="87" cy="662" r="8" fill="#ff5c38"/><text x="87" y="665" text-anchor="middle" font-size="10" font-weight="700" fill="#fff">3</text><rect x="136" y="641" width="551" height="17" rx="4" fill="#2b2d31" fill-opacity="0.92"/><text x="411" y="653" text-anchor="middle" font-size="12.5" fill="#d4d7dd">outline<tspan fill="#9a9ea8">(workspaceDir: string): Result&lt;main::PdsOutlineNode[], main::CliError&gt;</tspan></text><line x1="724" y1="716" x2="1329" y2="716" stroke="#d4d7dd" stroke-width="1.4" marker-end="url(#seqcall)"/><circle cx="702" cy="716" r="8" fill="#ff5c38"/><text x="702" y="719" text-anchor="middle" font-size="10" font-weight="700" fill="#fff">4</text><rect x="793" y="695" width="467" height="17" rx="4" fill="#2b2d31" fill-opacity="0.92"/><text x="1026" y="707" text-anchor="middle" font-size="12.5" fill="#d4d7dd">outline<tspan fill="#9a9ea8">(workspaceDir: string): Result&lt;PdsOutlineNode[], CliError&gt;</tspan></text><line x1="1329" y1="770" x2="724" y2="770" stroke="#9a9ea8" stroke-width="1.3" stroke-dasharray="5 3" marker-end="url(#seqret)"/><rect x="870" y="749" width="313" height="17" rx="4" fill="#2b2d31" fill-opacity="0.92"/><text x="1026" y="761" text-anchor="middle" font-size="12.5" fill="#9a9ea8">↩ return<tspan fill="#9a9ea8"> Result&lt;PdsOutlineNode[], CliError&gt;</tspan></text><line x1="714" y1="824" x2="109" y2="824" stroke="#9a9ea8" stroke-width="1.3" stroke-dasharray="5 3" marker-end="url(#seqret)"/><rect x="213" y="803" width="397" height="17" rx="4" fill="#2b2d31" fill-opacity="0.92"/><text x="411" y="815" text-anchor="middle" font-size="12.5" fill="#9a9ea8">↩ return<tspan fill="#9a9ea8"> Result&lt;main::PdsOutlineNode[], main::CliError&gt;</tspan></text><path d="M109,924 h34 a6 6 0 0 1 6 6 v8 a6 6 0 0 1 -6 6 h-34" fill="none" stroke="#d4d7dd" stroke-width="1.4" marker-end="url(#seqcall)"/><circle cx="87" cy="924" r="8" fill="#ff5c38"/><text x="87" y="927" text-anchor="middle" font-size="10" font-weight="700" fill="#fff">5</text><text x="155" y="928" text-anchor="start" font-size="12.5" fill="#d4d7dd">attach</text></g></svg>