<svg xmlns="http://www.w3.org/2000/svg" viewBox="0 0 255 529" width="255" height="529" font-family="sans-serif" font-size="13"><defs><marker id="arrow" markerWidth="10" markerHeight="10" refX="9" refY="3" orient="auto" markerUnits="strokeWidth"><path d="M0,0 L9,3 L0,6 z" fill="#b7bbc3"/></marker></defs><g font-family="Helvetica, Arial, sans-serif"><defs><marker id="seqcall" markerWidth="11" markerHeight="11" refX="9" refY="3.5" orient="auto" markerUnits="userSpaceOnUse"><path d="M0,0 L10,3.5 L0,7 z" fill="#d4d7dd"/></marker><marker id="seqret" markerWidth="12" markerHeight="12" refX="9" refY="4" orient="auto" markerUnits="userSpaceOnUse"><path d="M0,0 L10,4 M0,8 L10,4" fill="none" stroke="#9a9ea8" stroke-width="1.3"/></marker></defs><text x="20" y="22" font-size="10" letter-spacing="2" fill="#9a9ea8">SEQUENCE</text><text x="20" y="44" font-size="17" font-weight="700" fill="#d4d7dd">Export</text><rect x="86" y="275" width="82" height="218" rx="4" fill="#d4d7dd" fill-opacity="0.015" stroke="#565a62"/><path d="M86,275 h42 l-8,16 h-34 z" fill="#565a62" fill-opacity="0.5" stroke="#565a62"/><text x="94" y="290" font-size="11" font-weight="700" fill="#d4d7dd">alt</text><text x="136" y="290" font-size="11" fill="#9a9ea8">[wantsPng]</text><line x1="86" y1="389" x2="168" y2="389" stroke="#565a62" stroke-dasharray="5 3"/><text x="94" y="403" font-size="11" font-weight="700" fill="#9a9ea8">[else]</text><rect x="99" y="205" width="10" height="216" rx="2" fill="#ff5c38" fill-opacity="0.10" stroke="#ff5c38" stroke-opacity="0.5"/><rect x="20" y="64" width="168" height="103" rx="8" fill="#c77f10" filter="url(#cardlift)"/><path d="M25,64 H180 A8,8 0 0 1 188,72 V159 A8,8 0 0 1 180,167 H25 Z" fill="#2b2d31"/><rect x="20" y="64" width="168" height="103" rx="8" fill="none" stroke="#44474e"/><text x="39" y="84" font-size="10" letter-spacing="1.5" font-weight="600" fill="#c77f10">COMPONENT</text><text x="39" y="104" font-size="15" font-weight="700" fill="#d4d7dd">DiagramEditor</text><text x="39" y="120" font-size="11" fill="#9a9ea8">PseudoScriptPlugin::Diagrams</text><text x="39" y="138" font-size="11.5" fill="#9a9ea8">The zoomable, pannable</text><text x="39" y="153" font-size="11.5" fill="#9a9ea8">SVG canvas: renders</text><line x1="104" y1="167" x2="104" y2="509" stroke="#44474e" stroke-dasharray="2 4"/><path d="M109,211 h34 a6 6 0 0 1 6 6 v8 a6 6 0 0 1 -6 6 h-34" fill="none" stroke="#d4d7dd" stroke-width="1.4" marker-end="url(#seqcall)"/><circle cx="87" cy="211" r="8" fill="#ff5c38"/><text x="87" y="214" text-anchor="middle" font-size="10" font-weight="700" fill="#fff">1</text><text x="155" y="215" text-anchor="start" font-size="12.5" fill="#d4d7dd">isPngPath</text><path d="M109,313 h34 a6 6 0 0 1 6 6 v8 a6 6 0 0 1 -6 6 h-34" fill="none" stroke="#d4d7dd" stroke-width="1.4" marker-end="url(#seqcall)"/><circle cx="87" cy="313" r="8" fill="#ff5c38"/><text x="87" y="316" text-anchor="middle" font-size="10" font-weight="700" fill="#fff">2</text><text x="155" y="317" text-anchor="start" font-size="12.5" fill="#d4d7dd">writePng</text><path d="M109,415 h34 a6 6 0 0 1 6 6 v8 a6 6 0 0 1 -6 6 h-34" fill="none" stroke="#d4d7dd" stroke-width="1.4" marker-end="url(#seqcall)"/><circle cx="87" cy="415" r="8" fill="#ff5c38"/><text x="87" y="418" text-anchor="middle" font-size="10" font-weight="700" fill="#fff">3</text><text x="155" y="419" text-anchor="start" font-size="12.5" fill="#d4d7dd">writeSvg</text></g></svg>