<svg xmlns="http://www.w3.org/2000/svg" viewBox="0 0 424 306" width="424" height="306" font-family="sans-serif" font-size="13"><defs><marker id="arrow" markerWidth="10" markerHeight="10" refX="9" refY="3" orient="auto" markerUnits="strokeWidth"><path d="M0,0 L9,3 L0,6 z" fill="#b7bbc3"/></marker></defs><g font-family="Helvetica, Arial, sans-serif"><defs><marker id="seqcall" markerWidth="11" markerHeight="11" refX="9" refY="3.5" orient="auto" markerUnits="userSpaceOnUse"><path d="M0,0 L10,3.5 L0,7 z" fill="#d4d7dd"/></marker><marker id="seqret" markerWidth="12" markerHeight="12" refX="9" refY="4" orient="auto" markerUnits="userSpaceOnUse"><path d="M0,0 L10,4 M0,8 L10,4" fill="none" stroke="#9a9ea8" stroke-width="1.3"/></marker></defs><text x="20" y="22" font-size="10" letter-spacing="2" fill="#9a9ea8">SEQUENCE</text><text x="20" y="44" font-size="17" font-weight="700" fill="#d4d7dd">Export</text><rect x="99" y="172" width="10" height="66" rx="2" fill="#ff5c38" fill-opacity="0.10" stroke="#ff5c38" stroke-opacity="0.5"/><rect x="315" y="172" width="10" height="66" rx="2" fill="#3b3e45" fill-opacity="1" stroke="#44474e" stroke-opacity="1"/><rect x="20" y="64" width="168" height="60" rx="8" fill="#4f72f0" filter="url(#cardlift)"/><path d="M25,64 H180 A8,8 0 0 1 188,72 V116 A8,8 0 0 1 180,124 H25 Z" fill="#2b2d31"/><rect x="20" y="64" width="168" height="60" rx="8" fill="none" stroke="#44474e"/><text x="39" y="84" font-size="10" letter-spacing="1.5" font-weight="600" fill="#4f72f0">PERSON</text><text x="39" y="104" font-size="15" font-weight="700" fill="#d4d7dd">caller</text><line x1="104" y1="124" x2="104" y2="286" stroke="#44474e" stroke-dasharray="2 4"/><rect x="236" y="64" width="168" height="60" rx="8" fill="#c77f10" filter="url(#cardlift)"/><path d="M241,64 H396 A8,8 0 0 1 404,72 V116 A8,8 0 0 1 396,124 H241 Z" fill="#2b2d31"/><rect x="236" y="64" width="168" height="60" rx="8" fill="none" stroke="#44474e"/><text x="255" y="84" font-size="10" letter-spacing="1.5" font-weight="600" fill="#c77f10">COMPONENT</text><text x="255" y="104" font-size="15" font-weight="700" fill="#d4d7dd">DiagramEditor</text><line x1="320" y1="124" x2="320" y2="286" stroke="#44474e" stroke-dasharray="2 4"/><line x1="109" y1="178" x2="315" y2="178" stroke="#d4d7dd" stroke-width="1.4" marker-end="url(#seqcall)"/><circle cx="87" cy="178" r="8" fill="#ff5c38"/><text x="87" y="181" text-anchor="middle" font-size="10" font-weight="700" fill="#fff">1</text><rect x="178" y="157" width="68" height="17" rx="4" fill="#2b2d31" fill-opacity="0.92"/><text x="212" y="169" text-anchor="middle" font-size="12.5" fill="#d4d7dd">Export<tspan fill="#9a9ea8">()</tspan></text><line x1="315" y1="232" x2="109" y2="232" stroke="#9a9ea8" stroke-width="1.3" stroke-dasharray="5 3" marker-end="url(#seqret)"/><rect x="178" y="211" width="68" height="17" rx="4" fill="#2b2d31" fill-opacity="0.92"/><text x="212" y="223" text-anchor="middle" font-size="12.5" fill="#9a9ea8">↩ return</text></g></svg>