<svg xmlns="http://www.w3.org/2000/svg" viewBox="0 0 773 326" width="773" height="326" font-family="sans-serif" font-size="13"><defs><marker id="arrow" markerWidth="10" markerHeight="10" refX="9" refY="3" orient="auto" markerUnits="strokeWidth"><path d="M0,0 L9,3 L0,6 z" fill="#d4d7dd"/></marker><filter id="cardlift" x="-12%" y="-12%" width="124%" height="140%"><feDropShadow dx="0" dy="2" stdDeviation="3.5" flood-color="#000000" flood-opacity="0.12"/></filter></defs><g font-family="Helvetica, Arial, sans-serif"><rect x="6" y="6" width="348" height="296" rx="12" fill="#26282d" stroke="#44474e" stroke-dasharray="6 5"/><text x="18" y="25" font-size="13" font-weight="700" fill="#d4d7dd">Docs</text><rect x="30" y="30" width="300" height="94" rx="8" fill="#c77f10" filter="url(#cardlift)"/><path d="M35,30 H322 A8,8 0 0 1 330,38 V116 A8,8 0 0 1 322,124 H35 Z" fill="#2b2d31"/><rect x="30" y="30" width="300" height="94" rx="8" fill="none" stroke="#44474e"/><text x="49" y="50" font-size="10" letter-spacing="1.5" font-weight="600" fill="#c77f10">COMPONENT</text><text x="49" y="70" font-size="15" font-weight="700" fill="#d4d7dd">DocsPanel</text><text x="49" y="88" font-size="11.5" fill="#9a9ea8">Embedded live preview: runs `pds doc</text><text x="49" y="103" font-size="11.5" fill="#9a9ea8">--watch`, loads the served site in a JCEF…</text><rect x="30" y="184" width="300" height="94" rx="8" fill="#c77f10" filter="url(#cardlift)"/><path d="M35,184 H322 A8,8 0 0 1 330,192 V270 A8,8 0 0 1 322,278 H35 Z" fill="#2b2d31"/><rect x="30" y="184" width="300" height="94" rx="8" fill="none" stroke="#44474e"/><text x="49" y="204" font-size="10" letter-spacing="1.5" font-weight="600" fill="#c77f10">COMPONENT</text><text x="49" y="224" font-size="15" font-weight="700" fill="#d4d7dd">DocActions</text><text x="49" y="242" font-size="11.5" fill="#9a9ea8">The `pds.toml` context-menu actions, run</text><text x="49" y="257" font-size="11.5" fill="#9a9ea8">with a console + stop button.</text><rect x="449" y="30" width="300" height="94" rx="8" fill="#e23b2e" filter="url(#cardlift)"/><path d="M454,30 H741 A8,8 0 0 1 749,38 V116 A8,8 0 0 1 741,124 H454 Z" fill="#2b2d31"/><rect x="449" y="30" width="300" height="94" rx="8" fill="none" stroke="#44474e"/><text x="468" y="50" font-size="10" letter-spacing="1.5" font-weight="600" fill="#e23b2e">SYSTEM</text><text x="468" y="70" font-size="15" font-weight="700" fill="#d4d7dd">Pds</text><text x="468" y="88" font-size="11.5" fill="#9a9ea8">The `pds` toolchain the plugin shells out to</text><text x="468" y="103" font-size="11.5" fill="#9a9ea8">— modelled in full by the `pseudoscript`…</text><path d="M330,77 L384,77 L419,77 " fill="none" stroke="#d4d7dd" marker-end="url(#arrow)"/><path d="M330,195 L387,167 L432,141 " fill="none" stroke="#d4d7dd" marker-end="url(#arrow)"/><rect x="376" y="69" width="29" height="16" rx="4" fill="#2b2d31e6"/><text x="390" y="81" text-anchor="middle" font-size="11.5" fill="#9a9ea8">doc</text><rect x="376" y="146" width="29" height="16" rx="4" fill="#2b2d31e6"/><text x="390" y="158" text-anchor="middle" font-size="11.5" fill="#9a9ea8">doc</text></g></svg>