<svg xmlns="http://www.w3.org/2000/svg" viewBox="0 0 808 897" width="808" height="897" font-family="sans-serif" font-size="13"><defs><marker id="arrow" markerWidth="10" markerHeight="10" refX="9" refY="3" orient="auto" markerUnits="strokeWidth"><path d="M0,0 L9,3 L0,6 z" fill="#b7bbc3"/></marker></defs><g font-family="Helvetica, Arial, sans-serif"><defs><marker id="seqcall" markerWidth="11" markerHeight="11" refX="9" refY="3.5" orient="auto" markerUnits="userSpaceOnUse"><path d="M0,0 L10,3.5 L0,7 z" fill="#d4d7dd"/></marker><marker id="seqret" markerWidth="12" markerHeight="12" refX="9" refY="4" orient="auto" markerUnits="userSpaceOnUse"><path d="M0,0 L10,4 M0,8 L10,4" fill="none" stroke="#9a9ea8" stroke-width="1.3"/></marker></defs><text x="20" y="22" font-size="10" letter-spacing="2" fill="#9a9ea8">SEQUENCE</text><text x="20" y="44" font-size="17" font-weight="700" fill="#d4d7dd">Serve</text><rect x="86" y="619" width="636" height="242" rx="4" fill="#d4d7dd" fill-opacity="0.015" stroke="#565a62"/><path d="M86,619 h42 l-8,16 h-34 z" fill="#565a62" fill-opacity="0.5" stroke="#565a62"/><text x="94" y="634" font-size="11" font-weight="700" fill="#d4d7dd">alt</text><text x="136" y="634" font-size="11" fill="#9a9ea8">[!embedded]</text><line x1="86" y1="757" x2="722" y2="757" stroke="#565a62" stroke-dasharray="5 3"/><text x="94" y="771" font-size="11" font-weight="700" fill="#9a9ea8">[else]</text><rect x="99" y="205" width="10" height="584" rx="2" fill="#ff5c38" fill-opacity="0.10" stroke="#ff5c38" stroke-opacity="0.5"/><rect x="483" y="397" width="10" height="56" rx="2" fill="#3b3e45" fill-opacity="1" stroke="#44474e" stroke-opacity="1"/><rect x="699" y="651" width="10" height="56" rx="2" fill="#3b3e45" fill-opacity="1" stroke="#44474e" stroke-opacity="1"/><rect x="20" y="64" width="168" height="103" rx="8" fill="#c77f10" filter="url(#cardlift)"/><path d="M25,64 H180 A8,8 0 0 1 188,72 V159 A8,8 0 0 1 180,167 H25 Z" fill="#2b2d31"/><rect x="20" y="64" width="168" height="103" rx="8" fill="none" stroke="#44474e"/><text x="39" y="84" font-size="10" letter-spacing="1.5" font-weight="600" fill="#c77f10">COMPONENT</text><text x="39" y="104" font-size="15" font-weight="700" fill="#d4d7dd">DocsPanel</text><text x="39" y="120" font-size="11" fill="#9a9ea8">PseudoScriptPlugin::Docs</text><text x="39" y="138" font-size="11.5" fill="#9a9ea8">Embedded live preview:</text><text x="39" y="153" font-size="11.5" fill="#9a9ea8">runs `pds doc --watch…</text><line x1="104" y1="167" x2="104" y2="877" stroke="#44474e" stroke-dasharray="2 4"/><rect x="404" y="64" width="168" height="103" rx="8" fill="#e23b2e" filter="url(#cardlift)"/><path d="M409,64 H564 A8,8 0 0 1 572,72 V159 A8,8 0 0 1 564,167 H409 Z" fill="#2b2d31"/><rect x="404" y="64" width="168" height="103" rx="8" fill="none" stroke="#44474e"/><text x="423" y="84" font-size="10" letter-spacing="1.5" font-weight="600" fill="#e23b2e">SYSTEM</text><text x="423" y="104" font-size="15" font-weight="700" fill="#d4d7dd">Pds</text><text x="423" y="122" font-size="11.5" fill="#9a9ea8">The `pds` toolchain</text><text x="423" y="137" font-size="11.5" fill="#9a9ea8">the plugin shells out</text><line x1="488" y1="167" x2="488" y2="877" stroke="#44474e" stroke-dasharray="2 4"/><rect x="620" y="64" width="168" height="103" rx="8" fill="#e23b2e" filter="url(#cardlift)"/><path d="M625,64 H780 A8,8 0 0 1 788,72 V159 A8,8 0 0 1 780,167 H625 Z" fill="#2b2d31"/><rect x="620" y="64" width="168" height="103" rx="8" fill="none" stroke="#44474e"/><text x="639" y="84" font-size="10" letter-spacing="1.5" font-weight="600" fill="#e23b2e">SYSTEM</text><text x="639" y="104" font-size="15" font-weight="700" fill="#d4d7dd">Intellij</text><text x="639" y="122" font-size="11.5" fill="#9a9ea8">The host IDE platform</text><text x="639" y="137" font-size="11.5" fill="#9a9ea8">(IntelliJ). Provides</text><line x1="704" y1="167" x2="704" y2="877" stroke="#44474e" stroke-dasharray="2 4"/><path d="M109,211 h34 a6 6 0 0 1 6 6 v8 a6 6 0 0 1 -6 6 h-34" fill="none" stroke="#d4d7dd" stroke-width="1.4" marker-end="url(#seqcall)"/><circle cx="87" cy="211" r="8" fill="#ff5c38"/><text x="87" y="214" text-anchor="middle" font-size="10" font-weight="700" fill="#fff">1</text><text x="155" y="215" text-anchor="start" font-size="12.5" fill="#d4d7dd">stopServer</text><path d="M109,275 h34 a6 6 0 0 1 6 6 v8 a6 6 0 0 1 -6 6 h-34" fill="none" stroke="#d4d7dd" stroke-width="1.4" marker-end="url(#seqcall)"/><circle cx="87" cy="275" r="8" fill="#ff5c38"/><text x="87" y="278" text-anchor="middle" font-size="10" font-weight="700" fill="#fff">2</text><text x="155" y="279" text-anchor="start" font-size="12.5" fill="#d4d7dd">resolveWorkspace</text><path d="M109,339 h34 a6 6 0 0 1 6 6 v8 a6 6 0 0 1 -6 6 h-34" fill="none" stroke="#d4d7dd" stroke-width="1.4" marker-end="url(#seqcall)"/><circle cx="87" cy="339" r="8" fill="#ff5c38"/><text x="87" y="342" text-anchor="middle" font-size="10" font-weight="700" fill="#fff">3</text><text x="155" y="343" text-anchor="start" font-size="12.5" fill="#d4d7dd">freePort</text><line x1="109" y1="403" x2="483" y2="403" stroke="#d4d7dd" stroke-width="1.4" marker-end="url(#seqcall)"/><circle cx="87" cy="403" r="8" fill="#ff5c38"/><text x="87" y="406" text-anchor="middle" font-size="10" font-weight="700" fill="#fff">4</text><rect x="138" y="383" width="316" height="14" rx="4" fill="#2b2d31" fill-opacity="0.92"/><text x="296" y="394" text-anchor="middle" font-size="12.5" fill="#d4d7dd">docWatch<tspan fill="#9a9ea8">(workspaceDir: string, port: number)</tspan></text><line x1="483" y1="447" x2="109" y2="447" stroke="#9a9ea8" stroke-width="1.3" stroke-dasharray="5 3" marker-end="url(#seqret)"/><rect x="264" y="427" width="64" height="14" rx="4" fill="#2b2d31" fill-opacity="0.92"/><text x="296" y="438" text-anchor="middle" font-size="12.5" fill="#9a9ea8">↩ return</text><path d="M109,491 h34 a6 6 0 0 1 6 6 v8 a6 6 0 0 1 -6 6 h-34" fill="none" stroke="#d4d7dd" stroke-width="1.4" marker-end="url(#seqcall)"/><circle cx="87" cy="491" r="8" fill="#ff5c38"/><text x="87" y="494" text-anchor="middle" font-size="10" font-weight="700" fill="#fff">5</text><text x="155" y="495" text-anchor="start" font-size="12.5" fill="#d4d7dd">awaitAnnouncedUrl</text><path d="M109,555 h34 a6 6 0 0 1 6 6 v8 a6 6 0 0 1 -6 6 h-34" fill="none" stroke="#d4d7dd" stroke-width="1.4" marker-end="url(#seqcall)"/><circle cx="87" cy="555" r="8" fill="#ff5c38"/><text x="87" y="558" text-anchor="middle" font-size="10" font-weight="700" fill="#fff">6</text><text x="155" y="559" text-anchor="start" font-size="12.5" fill="#d4d7dd">jcefSupported</text><line x1="109" y1="657" x2="699" y2="657" stroke="#d4d7dd" stroke-width="1.4" marker-end="url(#seqcall)"/><circle cx="87" cy="657" r="8" fill="#ff5c38"/><text x="87" y="660" text-anchor="middle" font-size="10" font-weight="700" fill="#fff">7</text><rect x="316" y="637" width="176" height="14" rx="4" fill="#2b2d31" fill-opacity="0.92"/><text x="404" y="648" text-anchor="middle" font-size="12.5" fill="#d4d7dd">openBrowser<tspan fill="#9a9ea8">(url: string)</tspan></text><line x1="699" y1="701" x2="109" y2="701" stroke="#9a9ea8" stroke-width="1.3" stroke-dasharray="5 3" marker-end="url(#seqret)"/><rect x="372" y="681" width="64" height="14" rx="4" fill="#2b2d31" fill-opacity="0.92"/><text x="404" y="692" text-anchor="middle" font-size="12.5" fill="#9a9ea8">↩ return</text><path d="M109,783 h34 a6 6 0 0 1 6 6 v8 a6 6 0 0 1 -6 6 h-34" fill="none" stroke="#d4d7dd" stroke-width="1.4" marker-end="url(#seqcall)"/><circle cx="87" cy="783" r="8" fill="#ff5c38"/><text x="87" y="786" text-anchor="middle" font-size="10" font-weight="700" fill="#fff">8</text><text x="155" y="787" text-anchor="start" font-size="12.5" fill="#d4d7dd">loadEmbedded</text></g></svg>