<svg xmlns="http://www.w3.org/2000/svg" viewBox="0 0 412 428" width="412" height="428" font-family="sans-serif" font-size="13"><defs><marker id="arrow" markerWidth="10" markerHeight="10" refX="9" refY="3" orient="auto" markerUnits="strokeWidth"><path d="M0,0 L9,3 L0,6 z" fill="#d4d7dd"/></marker><filter id="cardlift" x="-12%" y="-12%" width="124%" height="140%"><feDropShadow dx="0" dy="2" stdDeviation="3.5" flood-color="#000000" flood-opacity="0.12"/></filter></defs><g font-family="Helvetica, Arial, sans-serif"><rect x="24" y="24" width="364" height="380" rx="12" fill="#26282d" stroke="#44474e" stroke-dasharray="6 5"/><text x="36" y="43" font-size="13" font-weight="700" fill="#d4d7dd">PseudoScriptPlugin</text><rect x="40" y="68" width="332" height="320" rx="12" fill="#26282d" stroke="#44474e" stroke-dasharray="6 5"/><text x="52" y="87" font-size="13" font-weight="700" fill="#d4d7dd">LanguageSupport</text><rect x="56" y="278" width="300" height="94" rx="8" fill="#c77f10" filter="url(#cardlift)"/><path d="M61,278 H348 A8,8 0 0 1 356,286 V364 A8,8 0 0 1 348,372 H61 Z" fill="#2b2d31"/><rect x="56" y="278" width="300" height="94" rx="8" fill="none" stroke="#44474e"/><text x="75" y="298" font-size="10" letter-spacing="1.5" font-weight="600" fill="#c77f10">COMPONENT</text><text x="75" y="318" font-size="15" font-weight="700" fill="#d4d7dd">Lexer</text><text x="75" y="336" font-size="11.5" fill="#9a9ea8">Hand-written, stateless lexer, conformant</text><text x="75" y="351" font-size="11.5" fill="#9a9ea8">with the language&apos;s lexical layer (LANG.md…</text><rect x="56" y="112" width="300" height="94" rx="8" fill="#c77f10" filter="url(#cardlift)"/><path d="M61,112 H348 A8,8 0 0 1 356,120 V198 A8,8 0 0 1 348,206 H61 Z" fill="#2b2d31"/><rect x="56" y="112" width="300" height="94" rx="8" fill="none" stroke="#44474e"/><text x="75" y="132" font-size="10" letter-spacing="1.5" font-weight="600" fill="#c77f10">COMPONENT</text><text x="75" y="152" font-size="15" font-weight="700" fill="#d4d7dd">Highlighter</text><text x="75" y="170" font-size="11.5" fill="#9a9ea8">Maps lexer tokens to IDE colour keys,</text><text x="75" y="185" font-size="11.5" fill="#9a9ea8">anchored to the active theme&apos;s defaults. Th…</text><path d="M206,206 L206,212 L206,218 L206,224 L206,230 L206,236 L206,242 L206,248 L206,254 L206,260 L206,266 L206,272 L206,278 " fill="none" stroke="#d4d7dd" marker-end="url(#arrow)"/><rect x="174" y="234" width="64" height="16" rx="4" fill="#2b2d31e6"/><text x="206" y="246" text-anchor="middle" font-size="11.5" fill="#9a9ea8"><tspan x="206" dy="0">tokenize</tspan></text></g></svg>