<svg xmlns="http://www.w3.org/2000/svg" viewBox="0 0 862 172" width="862" height="172" font-family="sans-serif" font-size="13"><defs><marker id="arrow" markerWidth="10" markerHeight="10" refX="9" refY="3" orient="auto" markerUnits="strokeWidth"><path d="M0,0 L9,3 L0,6 z" fill="#d4d7dd"/></marker><filter id="cardlift" x="-12%" y="-12%" width="124%" height="140%"><feDropShadow dx="0" dy="2" stdDeviation="3.5" flood-color="#000000" flood-opacity="0.12"/></filter></defs><g font-family="Helvetica, Arial, sans-serif"><rect x="6" y="6" width="832" height="142" rx="12" fill="#26282d" stroke="#44474e" stroke-dasharray="6 5"/><text x="18" y="25" font-size="13" font-weight="700" fill="#d4d7dd">LanguageSupport</text><rect x="514" y="30" width="300" height="94" rx="8" fill="#c77f10" filter="url(#cardlift)"/><path d="M519,30 H806 A8,8 0 0 1 814,38 V116 A8,8 0 0 1 806,124 H519 Z" fill="#2b2d31"/><rect x="514" y="30" width="300" height="94" rx="8" fill="none" stroke="#44474e"/><text x="533" y="50" font-size="10" letter-spacing="1.5" font-weight="600" fill="#c77f10">COMPONENT</text><text x="533" y="70" font-size="15" font-weight="700" fill="#d4d7dd">Lexer</text><text x="533" y="88" font-size="11.5" fill="#9a9ea8">Hand-written, stateless lexer. Tokenises</text><text x="533" y="103" font-size="11.5" fill="#9a9ea8">`.pds` and infers each identifier&apos;s…</text><rect x="30" y="30" width="300" height="94" rx="8" fill="#c77f10" filter="url(#cardlift)"/><path d="M35,30 H322 A8,8 0 0 1 330,38 V116 A8,8 0 0 1 322,124 H35 Z" fill="#2b2d31"/><rect x="30" y="30" width="300" height="94" rx="8" fill="none" stroke="#44474e"/><text x="49" y="50" font-size="10" letter-spacing="1.5" font-weight="600" fill="#c77f10">COMPONENT</text><text x="49" y="70" font-size="15" font-weight="700" fill="#d4d7dd">Highlighter</text><text x="49" y="88" font-size="11.5" fill="#9a9ea8">Maps lexer tokens to IDE colour keys,</text><text x="49" y="103" font-size="11.5" fill="#9a9ea8">anchored to the active theme&apos;s defaults.</text><path d="M330,77 L449,77 L484,77 " fill="none" stroke="#d4d7dd" marker-end="url(#arrow)"/><rect x="390" y="69" width="64" height="16" rx="4" fill="#2b2d31e6"/><text x="422" y="81" text-anchor="middle" font-size="11.5" fill="#9a9ea8">tokenize</text></g></svg>