<svg xmlns="http://www.w3.org/2000/svg" viewBox="0 0 856 698" width="856" height="698" font-family="sans-serif" font-size="13"><defs><marker id="arrow" markerWidth="10" markerHeight="10" refX="9" refY="3" orient="auto" markerUnits="strokeWidth"><path d="M0,0 L9,3 L0,6 z" fill="#b7bbc3"/></marker></defs><g font-family="Helvetica, Arial, sans-serif"><defs><marker id="seqcall" markerWidth="11" markerHeight="11" refX="9" refY="3.5" orient="auto" markerUnits="userSpaceOnUse"><path d="M0,0 L10,3.5 L0,7 z" fill="#d4d7dd"/></marker><marker id="seqret" markerWidth="12" markerHeight="12" refX="9" refY="4" orient="auto" markerUnits="userSpaceOnUse"><path d="M0,0 L10,4 M0,8 L10,4" fill="none" stroke="#9a9ea8" stroke-width="1.3"/></marker></defs><text x="20" y="22" font-size="10" letter-spacing="2" fill="#9a9ea8">SEQUENCE</text><text x="20" y="44" font-size="17" font-weight="700" fill="#d4d7dd">Start</text><rect x="86" y="286" width="684" height="372" rx="4" fill="#d4d7dd" fill-opacity="0.015" stroke="#565a62"/><path d="M86,286 h42 l-8,16 h-34 z" fill="#565a62" fill-opacity="0.5" stroke="#565a62"/><text x="94" y="301" font-size="11" font-weight="700" fill="#d4d7dd">alt</text><text x="136" y="301" font-size="11" fill="#9a9ea8">[!ok]</text><line x1="86" y1="452" x2="770" y2="452" stroke="#565a62" stroke-dasharray="5 3"/><text x="94" y="466" font-size="11" font-weight="700" fill="#9a9ea8">[else]</text><rect x="99" y="172" width="10" height="316" rx="2" fill="#ff5c38" fill-opacity="0.10" stroke="#ff5c38" stroke-opacity="0.5"/><rect x="315" y="172" width="10" height="220" rx="2" fill="#3b3e45" fill-opacity="1" stroke="#44474e" stroke-opacity="1"/><rect x="531" y="476" width="10" height="120" rx="2" fill="#3b3e45" fill-opacity="1" stroke="#44474e" stroke-opacity="1"/><rect x="747" y="530" width="10" height="66" rx="2" fill="#3b3e45" fill-opacity="1" stroke="#44474e" stroke-opacity="1"/><rect x="20" y="64" width="168" height="60" rx="8" fill="#c77f10" filter="url(#cardlift)"/><path d="M25,64 H180 A8,8 0 0 1 188,72 V116 A8,8 0 0 1 180,124 H25 Z" fill="#2b2d31"/><rect x="20" y="64" width="168" height="60" rx="8" fill="none" stroke="#44474e"/><text x="39" y="84" font-size="10" letter-spacing="1.5" font-weight="600" fill="#c77f10">COMPONENT</text><text x="39" y="104" font-size="15" font-weight="700" fill="#d4d7dd">LanguageServer</text><line x1="104" y1="124" x2="104" y2="678" stroke="#44474e" stroke-dasharray="2 4"/><rect x="236" y="64" width="168" height="60" rx="8" fill="#c77f10" filter="url(#cardlift)"/><path d="M241,64 H396 A8,8 0 0 1 404,72 V116 A8,8 0 0 1 396,124 H241 Z" fill="#2b2d31"/><rect x="236" y="64" width="168" height="60" rx="8" fill="none" stroke="#44474e"/><text x="255" y="84" font-size="10" letter-spacing="1.5" font-weight="600" fill="#c77f10">COMPONENT</text><text x="255" y="104" font-size="15" font-weight="700" fill="#d4d7dd">BinaryCheck</text><line x1="320" y1="124" x2="320" y2="678" stroke="#44474e" stroke-dasharray="2 4"/><rect x="452" y="64" width="168" height="60" rx="8" fill="#e23b2e" filter="url(#cardlift)"/><path d="M457,64 H612 A8,8 0 0 1 620,72 V116 A8,8 0 0 1 612,124 H457 Z" fill="#2b2d31"/><rect x="452" y="64" width="168" height="60" rx="8" fill="none" stroke="#44474e"/><text x="471" y="84" font-size="10" letter-spacing="1.5" font-weight="600" fill="#e23b2e">SYSTEM</text><text x="471" y="104" font-size="15" font-weight="700" fill="#d4d7dd">Pds</text><line x1="536" y1="124" x2="536" y2="678" stroke="#44474e" stroke-dasharray="2 4"/><rect x="668" y="64" width="168" height="60" rx="8" fill="#0f9d8a" filter="url(#cardlift)"/><path d="M673,64 H828 A8,8 0 0 1 836,72 V116 A8,8 0 0 1 828,124 H673 Z" fill="#2b2d31"/><rect x="668" y="64" width="168" height="60" rx="8" fill="none" stroke="#44474e"/><text x="687" y="84" font-size="10" letter-spacing="1.5" font-weight="600" fill="#0f9d8a">CONTAINER</text><text x="687" y="104" font-size="15" font-weight="700" fill="#d4d7dd">LspHost</text><line x1="752" y1="124" x2="752" y2="678" stroke="#44474e" stroke-dasharray="2 4"/><line x1="109" y1="178" x2="315" y2="178" stroke="#d4d7dd" stroke-width="1.4" marker-end="url(#seqcall)"/><circle cx="87" cy="178" r="8" fill="#ff5c38"/><text x="87" y="181" text-anchor="middle" font-size="10" font-weight="700" fill="#fff">1</text><rect x="140" y="157" width="145" height="17" rx="4" fill="#2b2d31" fill-opacity="0.92"/><text x="212" y="169" text-anchor="middle" font-size="12.5" fill="#d4d7dd">isAvailable<tspan fill="#9a9ea8">(): bool</tspan></text><line x1="315" y1="232" x2="109" y2="232" stroke="#9a9ea8" stroke-width="1.3" stroke-dasharray="5 3" marker-end="url(#seqret)"/><rect x="161" y="211" width="103" height="17" rx="4" fill="#2b2d31" fill-opacity="0.92"/><text x="212" y="223" text-anchor="middle" font-size="12.5" fill="#9a9ea8">↩ return<tspan fill="#9a9ea8"> bool</tspan></text><line x1="109" y1="332" x2="315" y2="332" stroke="#d4d7dd" stroke-width="1.4" marker-end="url(#seqcall)"/><circle cx="87" cy="332" r="8" fill="#ff5c38"/><text x="87" y="335" text-anchor="middle" font-size="10" font-weight="700" fill="#fff">2</text><rect x="119" y="311" width="187" height="17" rx="4" fill="#2b2d31" fill-opacity="0.92"/><text x="212" y="323" text-anchor="middle" font-size="12.5" fill="#d4d7dd">notFoundMessage<tspan fill="#9a9ea8">(): string</tspan></text><line x1="315" y1="386" x2="109" y2="386" stroke="#9a9ea8" stroke-width="1.3" stroke-dasharray="5 3" marker-end="url(#seqret)"/><rect x="154" y="365" width="117" height="17" rx="4" fill="#2b2d31" fill-opacity="0.92"/><text x="212" y="377" text-anchor="middle" font-size="12.5" fill="#9a9ea8">↩ return<tspan fill="#9a9ea8"> string</tspan></text><line x1="109" y1="482" x2="531" y2="482" stroke="#d4d7dd" stroke-width="1.4" marker-end="url(#seqcall)"/><circle cx="87" cy="482" r="8" fill="#ff5c38"/><text x="87" y="485" text-anchor="middle" font-size="10" font-weight="700" fill="#fff">3</text><rect x="297" y="461" width="47" height="17" rx="4" fill="#2b2d31" fill-opacity="0.92"/><text x="320" y="473" text-anchor="middle" font-size="12.5" fill="#d4d7dd">lsp<tspan fill="#9a9ea8">()</tspan></text><line x1="541" y1="536" x2="747" y2="536" stroke="#d4d7dd" stroke-width="1.4" marker-end="url(#seqcall)"/><circle cx="519" cy="536" r="8" fill="#ff5c38"/><text x="519" y="539" text-anchor="middle" font-size="10" font-weight="700" fill="#fff">4</text><rect x="628" y="515" width="33" height="17" rx="4" fill="#2b2d31" fill-opacity="0.92"/><text x="644" y="527" text-anchor="middle" font-size="12.5" fill="#d4d7dd">run</text><line x1="747" y1="590" x2="541" y2="590" stroke="#9a9ea8" stroke-width="1.3" stroke-dasharray="5 3" marker-end="url(#seqret)"/><rect x="610" y="569" width="68" height="17" rx="4" fill="#2b2d31" fill-opacity="0.92"/><text x="644" y="581" text-anchor="middle" font-size="12.5" fill="#9a9ea8">↩ return</text></g></svg>