<svg xmlns="http://www.w3.org/2000/svg" viewBox="0 0 929 557" width="929" height="557" font-family="sans-serif" font-size="13"><defs><marker id="arrow" markerWidth="10" markerHeight="10" refX="9" refY="3" orient="auto" markerUnits="strokeWidth"><path d="M0,0 L9,3 L0,6 z" fill="#d4d7dd"/></marker><filter id="cardlift" x="-12%" y="-12%" width="124%" height="140%"><feDropShadow dx="0" dy="2" stdDeviation="3.5" flood-color="#000000" flood-opacity="0.12"/></filter></defs><g font-family="Helvetica, Arial, sans-serif"><rect x="6" y="6" width="348" height="527" rx="12" fill="#26282d" stroke="#44474e" stroke-dasharray="6 5"/><text x="18" y="25" font-size="13" font-weight="700" fill="#d4d7dd">LspBridge</text><rect x="30" y="30" width="300" height="94" rx="8" fill="#c77f10" filter="url(#cardlift)"/><path d="M35,30 H322 A8,8 0 0 1 330,38 V116 A8,8 0 0 1 322,124 H35 Z" fill="#2b2d31"/><rect x="30" y="30" width="300" height="94" rx="8" fill="none" stroke="#44474e"/><text x="49" y="50" font-size="10" letter-spacing="1.5" font-weight="600" fill="#c77f10">COMPONENT</text><text x="49" y="70" font-size="15" font-weight="700" fill="#d4d7dd">ServerFactory</text><text x="49" y="88" font-size="11.5" fill="#9a9ea8">Hands LSP4IJ the connection provider for the</text><text x="49" y="103" font-size="11.5" fill="#9a9ea8">`pseudoscript` server.</text><rect x="30" y="261" width="300" height="94" rx="8" fill="#c77f10" filter="url(#cardlift)"/><path d="M35,261 H322 A8,8 0 0 1 330,269 V347 A8,8 0 0 1 322,355 H35 Z" fill="#2b2d31"/><rect x="30" y="261" width="300" height="94" rx="8" fill="none" stroke="#44474e"/><text x="49" y="281" font-size="10" letter-spacing="1.5" font-weight="600" fill="#c77f10">COMPONENT</text><text x="49" y="301" font-size="15" font-weight="700" fill="#d4d7dd">LanguageServer</text><text x="49" y="319" font-size="11.5" fill="#9a9ea8">The launcher LSP4IJ starts: it spawns `pds</text><text x="49" y="334" font-size="11.5" fill="#9a9ea8">lsp` with the project root as the working…</text><rect x="30" y="415" width="300" height="94" rx="8" fill="#c77f10" filter="url(#cardlift)"/><path d="M35,415 H322 A8,8 0 0 1 330,423 V501 A8,8 0 0 1 322,509 H35 Z" fill="#2b2d31"/><rect x="30" y="415" width="300" height="94" rx="8" fill="none" stroke="#44474e"/><text x="49" y="435" font-size="10" letter-spacing="1.5" font-weight="600" fill="#c77f10">COMPONENT</text><text x="49" y="455" font-size="15" font-weight="700" fill="#d4d7dd">SemanticTokens</text><text x="49" y="473" font-size="11.5" fill="#9a9ea8">Maps `pds lsp` semantic tokens onto the</text><text x="49" y="488" font-size="11.5" fill="#9a9ea8">plugin&apos;s colour keys: the lexer paints the…</text><rect x="605" y="184" width="300" height="94" rx="8" fill="#0f9d8a" filter="url(#cardlift)"/><path d="M610,184 H897 A8,8 0 0 1 905,192 V270 A8,8 0 0 1 897,278 H610 Z" fill="#2b2d31"/><rect x="605" y="184" width="300" height="94" rx="8" fill="none" stroke="#44474e"/><text x="624" y="204" font-size="10" letter-spacing="1.5" font-weight="600" fill="#0f9d8a">CONTAINER</text><text x="624" y="224" font-size="15" font-weight="700" fill="#d4d7dd">Configuration</text><text x="624" y="242" font-size="11.5" fill="#9a9ea8">Settings, binary detection, and user-facing</text><text x="624" y="257" font-size="11.5" fill="#9a9ea8">setup guidance.</text><rect x="605" y="30" width="300" height="94" rx="8" fill="#e23b2e" filter="url(#cardlift)"/><path d="M610,30 H897 A8,8 0 0 1 905,38 V116 A8,8 0 0 1 897,124 H610 Z" fill="#2b2d31"/><rect x="605" y="30" width="300" height="94" rx="8" fill="none" stroke="#44474e"/><text x="624" y="50" font-size="10" letter-spacing="1.5" font-weight="600" fill="#e23b2e">SYSTEM</text><text x="624" y="70" font-size="15" font-weight="700" fill="#d4d7dd">Lsp4ij</text><text x="624" y="88" font-size="11.5" fill="#9a9ea8">The LSP4IJ client runtime — a required</text><text x="624" y="103" font-size="11.5" fill="#9a9ea8">companion IDE plugin. Owns the LSP lifecycl…</text><rect x="605" y="338" width="300" height="94" rx="8" fill="#e23b2e" filter="url(#cardlift)"/><path d="M610,338 H897 A8,8 0 0 1 905,346 V424 A8,8 0 0 1 897,432 H610 Z" fill="#2b2d31"/><rect x="605" y="338" width="300" height="94" rx="8" fill="none" stroke="#44474e"/><text x="624" y="358" font-size="10" letter-spacing="1.5" font-weight="600" fill="#e23b2e">SYSTEM</text><text x="624" y="378" font-size="15" font-weight="700" fill="#d4d7dd">Pds</text><text x="624" y="396" font-size="11.5" fill="#9a9ea8">The `pds` toolchain the plugin shells out to</text><text x="624" y="411" font-size="11.5" fill="#9a9ea8">— modelled in full by the `pseudoscript`…</text><path d="M330,77 L534,77 L575,77 " fill="none" stroke="#d4d7dd" marker-end="url(#arrow)"/><path d="M330,298 L514,274 L576,260 " fill="none" stroke="#d4d7dd" marker-end="url(#arrow)"/><path d="M330,308 L540,308 L588,295 " fill="none" stroke="#d4d7dd" marker-end="url(#arrow)"/><path d="M330,320 L462,342 L576,364 " fill="none" stroke="#d4d7dd" marker-end="url(#arrow)"/><rect x="415" y="69" width="106" height="16" rx="4" fill="#2b2d31e6"/><text x="468" y="81" text-anchor="middle" font-size="11.5" fill="#9a9ea8">registerServer</text><rect x="426" y="262" width="85" height="16" rx="4" fill="#2b2d31e6"/><text x="468" y="274" text-anchor="middle" font-size="11.5" fill="#9a9ea8">isAvailable</text><rect x="412" y="300" width="113" height="16" rx="4" fill="#2b2d31e6"/><text x="468" y="312" text-anchor="middle" font-size="11.5" fill="#9a9ea8">notFoundMessage</text><rect x="454" y="339" width="29" height="16" rx="4" fill="#2b2d31e6"/><text x="468" y="351" text-anchor="middle" font-size="11.5" fill="#9a9ea8">lsp</text></g></svg>