<svg xmlns="http://www.w3.org/2000/svg" viewBox="0 0 1072 821" width="1072" height="821" font-family="sans-serif" font-size="13"><defs><marker id="arrow" markerWidth="10" markerHeight="10" refX="9" refY="3" orient="auto" markerUnits="strokeWidth"><path d="M0,0 L9,3 L0,6 z" fill="#b7bbc3"/></marker></defs><g font-family="Helvetica, Arial, sans-serif"><defs><marker id="seqcall" markerWidth="11" markerHeight="11" refX="9" refY="3.5" orient="auto" markerUnits="userSpaceOnUse"><path d="M0,0 L10,3.5 L0,7 z" fill="#d4d7dd"/></marker><marker id="seqret" markerWidth="12" markerHeight="12" refX="9" refY="4" orient="auto" markerUnits="userSpaceOnUse"><path d="M0,0 L10,4 M0,8 L10,4" fill="none" stroke="#9a9ea8" stroke-width="1.3"/></marker></defs><text x="20" y="22" font-size="10" letter-spacing="2" fill="#9a9ea8">SEQUENCE</text><text x="20" y="44" font-size="17" font-weight="700" fill="#d4d7dd">Start</text><rect x="86" y="387" width="900" height="398" rx="4" fill="#d4d7dd" fill-opacity="0.015" stroke="#565a62"/><path d="M86,387 h42 l-8,16 h-34 z" fill="#565a62" fill-opacity="0.5" stroke="#565a62"/><text x="94" y="402" font-size="11" font-weight="700" fill="#d4d7dd">alt</text><text x="136" y="402" font-size="11" fill="#9a9ea8">[!ok]</text><line x1="86" y1="613" x2="986" y2="613" stroke="#565a62" stroke-dasharray="5 3"/><text x="94" y="627" font-size="11" font-weight="700" fill="#9a9ea8">[else]</text><rect x="99" y="205" width="10" height="440" rx="2" fill="#ff5c38" fill-opacity="0.10" stroke="#ff5c38" stroke-opacity="0.5"/><rect x="315" y="205" width="10" height="358" rx="2" fill="#3b3e45" fill-opacity="1" stroke="#44474e" stroke-opacity="1"/><rect x="531" y="249" width="10" height="270" rx="2" fill="#3b3e45" fill-opacity="1" stroke="#44474e" stroke-opacity="1"/><rect x="747" y="633" width="10" height="100" rx="2" fill="#3b3e45" fill-opacity="1" stroke="#44474e" stroke-opacity="1"/><rect x="963" y="677" width="10" height="56" rx="2" fill="#3b3e45" fill-opacity="1" stroke="#44474e" stroke-opacity="1"/><rect x="20" y="64" width="168" height="103" rx="8" fill="#c77f10" filter="url(#cardlift)"/><path d="M25,64 H180 A8,8 0 0 1 188,72 V159 A8,8 0 0 1 180,167 H25 Z" fill="#2b2d31"/><rect x="20" y="64" width="168" height="103" rx="8" fill="none" stroke="#44474e"/><text x="39" y="84" font-size="10" letter-spacing="1.5" font-weight="600" fill="#c77f10">COMPONENT</text><text x="39" y="104" font-size="15" font-weight="700" fill="#d4d7dd">LanguageServer</text><text x="39" y="120" font-size="11" fill="#9a9ea8">PseudoScriptPlugin::LspBridge</text><text x="39" y="138" font-size="11.5" fill="#9a9ea8">The launcher LSP4IJ</text><text x="39" y="153" font-size="11.5" fill="#9a9ea8">starts: it spawns `pd…</text><line x1="104" y1="167" x2="104" y2="801" stroke="#44474e" stroke-dasharray="2 4"/><rect x="236" y="64" width="168" height="103" rx="8" fill="#0f9d8a" filter="url(#cardlift)"/><path d="M241,64 H396 A8,8 0 0 1 404,72 V159 A8,8 0 0 1 396,167 H241 Z" fill="#2b2d31"/><rect x="236" y="64" width="168" height="103" rx="8" fill="none" stroke="#44474e"/><text x="255" y="84" font-size="10" letter-spacing="1.5" font-weight="600" fill="#0f9d8a">CONTAINER</text><text x="255" y="104" font-size="15" font-weight="700" fill="#d4d7dd">Configuration</text><text x="255" y="120" font-size="11" fill="#9a9ea8">PseudoScriptPlugin</text><text x="255" y="138" font-size="11.5" fill="#9a9ea8">Settings, binary</text><text x="255" y="153" font-size="11.5" fill="#9a9ea8">detection, and</text><line x1="320" y1="167" x2="320" y2="801" stroke="#44474e" stroke-dasharray="2 4"/><rect x="452" y="64" width="168" height="103" rx="8" fill="#c77f10" filter="url(#cardlift)"/><path d="M457,64 H612 A8,8 0 0 1 620,72 V159 A8,8 0 0 1 612,167 H457 Z" fill="#2b2d31"/><rect x="452" y="64" width="168" height="103" rx="8" fill="none" stroke="#44474e"/><text x="471" y="84" font-size="10" letter-spacing="1.5" font-weight="600" fill="#c77f10">COMPONENT</text><text x="471" y="104" font-size="15" font-weight="700" fill="#d4d7dd">BinaryCheck</text><text x="471" y="120" font-size="11" fill="#9a9ea8">PseudoScriptPlugin::Configuration</text><text x="471" y="138" font-size="11.5" fill="#9a9ea8">&quot;Can we reach `pds`?&quot;</text><text x="471" y="153" font-size="11.5" fill="#9a9ea8">— the single check</text><line x1="536" y1="167" x2="536" y2="801" stroke="#44474e" stroke-dasharray="2 4"/><rect x="668" y="64" width="168" height="103" rx="8" fill="#e23b2e" filter="url(#cardlift)"/><path d="M673,64 H828 A8,8 0 0 1 836,72 V159 A8,8 0 0 1 828,167 H673 Z" fill="#2b2d31"/><rect x="668" y="64" width="168" height="103" rx="8" fill="none" stroke="#44474e"/><text x="687" y="84" font-size="10" letter-spacing="1.5" font-weight="600" fill="#e23b2e">SYSTEM</text><text x="687" y="104" font-size="15" font-weight="700" fill="#d4d7dd">Pds</text><text x="687" y="122" font-size="11.5" fill="#9a9ea8">The `pds` toolchain</text><text x="687" y="137" font-size="11.5" fill="#9a9ea8">the plugin shells out</text><line x1="752" y1="167" x2="752" y2="801" stroke="#44474e" stroke-dasharray="2 4"/><rect x="884" y="64" width="168" height="103" rx="8" fill="#0f9d8a" filter="url(#cardlift)"/><path d="M889,64 H1044 A8,8 0 0 1 1052,72 V159 A8,8 0 0 1 1044,167 H889 Z" fill="#2b2d31"/><rect x="884" y="64" width="168" height="103" rx="8" fill="none" stroke="#44474e"/><text x="903" y="84" font-size="10" letter-spacing="1.5" font-weight="600" fill="#0f9d8a">CONTAINER</text><text x="903" y="104" font-size="15" font-weight="700" fill="#d4d7dd">Cli</text><line x1="968" y1="167" x2="968" y2="801" stroke="#44474e" stroke-dasharray="2 4"/><line x1="109" y1="211" x2="315" y2="211" stroke="#d4d7dd" stroke-width="1.4" marker-end="url(#seqcall)"/><circle cx="87" cy="211" r="8" fill="#ff5c38"/><text x="87" y="214" text-anchor="middle" font-size="10" font-weight="700" fill="#fff">1</text><rect x="163" y="191" width="99" height="14" rx="4" fill="#2b2d31" fill-opacity="0.92"/><text x="212" y="202" text-anchor="middle" font-size="12.5" fill="#d4d7dd">isAvailable<tspan fill="#9a9ea8">()</tspan></text><line x1="325" y1="255" x2="531" y2="255" stroke="#d4d7dd" stroke-width="1.4" marker-end="url(#seqcall)"/><circle cx="303" cy="255" r="8" fill="#ff5c38"/><text x="303" y="258" text-anchor="middle" font-size="10" font-weight="700" fill="#fff">2</text><rect x="379" y="235" width="99" height="14" rx="4" fill="#2b2d31" fill-opacity="0.92"/><text x="428" y="246" text-anchor="middle" font-size="12.5" fill="#d4d7dd">isAvailable<tspan fill="#9a9ea8">()</tspan></text><line x1="531" y1="299" x2="325" y2="299" stroke="#9a9ea8" stroke-width="1.3" stroke-dasharray="5 3" marker-end="url(#seqret)"/><rect x="379" y="279" width="99" height="14" rx="4" fill="#2b2d31" fill-opacity="0.92"/><text x="428" y="290" text-anchor="middle" font-size="12.5" fill="#9a9ea8">↩ return<tspan fill="#9a9ea8"> bool</tspan></text><line x1="315" y1="343" x2="109" y2="343" stroke="#9a9ea8" stroke-width="1.3" stroke-dasharray="5 3" marker-end="url(#seqret)"/><rect x="163" y="323" width="99" height="14" rx="4" fill="#2b2d31" fill-opacity="0.92"/><text x="212" y="334" text-anchor="middle" font-size="12.5" fill="#9a9ea8">↩ return<tspan fill="#9a9ea8"> bool</tspan></text><line x1="109" y1="425" x2="315" y2="425" stroke="#d4d7dd" stroke-width="1.4" marker-end="url(#seqcall)"/><circle cx="87" cy="425" r="8" fill="#ff5c38"/><text x="87" y="428" text-anchor="middle" font-size="10" font-weight="700" fill="#fff">3</text><rect x="149" y="405" width="127" height="14" rx="4" fill="#2b2d31" fill-opacity="0.92"/><text x="212" y="416" text-anchor="middle" font-size="12.5" fill="#d4d7dd">notFoundMessage<tspan fill="#9a9ea8">()</tspan></text><line x1="325" y1="469" x2="531" y2="469" stroke="#d4d7dd" stroke-width="1.4" marker-end="url(#seqcall)"/><circle cx="303" cy="469" r="8" fill="#ff5c38"/><text x="303" y="472" text-anchor="middle" font-size="10" font-weight="700" fill="#fff">4</text><rect x="365" y="449" width="127" height="14" rx="4" fill="#2b2d31" fill-opacity="0.92"/><text x="428" y="460" text-anchor="middle" font-size="12.5" fill="#d4d7dd">notFoundMessage<tspan fill="#9a9ea8">()</tspan></text><line x1="531" y1="513" x2="325" y2="513" stroke="#9a9ea8" stroke-width="1.3" stroke-dasharray="5 3" marker-end="url(#seqret)"/><rect x="372" y="493" width="113" height="14" rx="4" fill="#2b2d31" fill-opacity="0.92"/><text x="428" y="504" text-anchor="middle" font-size="12.5" fill="#9a9ea8">↩ return<tspan fill="#9a9ea8"> string</tspan></text><line x1="315" y1="557" x2="109" y2="557" stroke="#9a9ea8" stroke-width="1.3" stroke-dasharray="5 3" marker-end="url(#seqret)"/><rect x="156" y="537" width="113" height="14" rx="4" fill="#2b2d31" fill-opacity="0.92"/><text x="212" y="548" text-anchor="middle" font-size="12.5" fill="#9a9ea8">↩ return<tspan fill="#9a9ea8"> string</tspan></text><line x1="109" y1="639" x2="747" y2="639" stroke="#d4d7dd" stroke-width="1.4" marker-end="url(#seqcall)"/><circle cx="87" cy="639" r="8" fill="#ff5c38"/><text x="87" y="642" text-anchor="middle" font-size="10" font-weight="700" fill="#fff">5</text><rect x="407" y="619" width="43" height="14" rx="4" fill="#2b2d31" fill-opacity="0.92"/><text x="428" y="630" text-anchor="middle" font-size="12.5" fill="#d4d7dd">lsp<tspan fill="#9a9ea8">()</tspan></text><line x1="757" y1="683" x2="963" y2="683" stroke="#d4d7dd" stroke-width="1.4" marker-end="url(#seqcall)"/><circle cx="735" cy="683" r="8" fill="#ff5c38"/><text x="735" y="686" text-anchor="middle" font-size="10" font-weight="700" fill="#fff">6</text><rect x="835" y="663" width="50" height="14" rx="4" fill="#2b2d31" fill-opacity="0.92"/><text x="860" y="674" text-anchor="middle" font-size="12.5" fill="#d4d7dd">runLsp</text><line x1="963" y1="727" x2="757" y2="727" stroke="#9a9ea8" stroke-width="1.3" stroke-dasharray="5 3" marker-end="url(#seqret)"/><rect x="828" y="707" width="64" height="14" rx="4" fill="#2b2d31" fill-opacity="0.92"/><text x="860" y="718" text-anchor="middle" font-size="12.5" fill="#9a9ea8">↩ return</text></g></svg>